M48
;GenerationSoftware,Autodesk,EAGLE,9.2.0*%
;CreationDate,2018-11-03T04:15:01Z*%
FMAT,2
ICI,OFF
METRIC,TZ,000.000
T5C0.711
T4C0.800
T3C1.016
T2C1.400
T1C3.200
%
G90
M71
T1
X19050Y63500
X19050Y12700
X72390Y12700
X72390Y63500
T2
X24580Y52110
X24580Y57110
T3
X68580Y29210
X68580Y31750
X25400Y20320
X27940Y20320
X30480Y20320
X68580Y54610
X68580Y52070
X68580Y49530
X68580Y46990
X68580Y44450
X68580Y39370
X68580Y36830
X68580Y34290
T4
X39370Y41910
X62230Y54610
X39370Y54610
X39370Y52070
X39370Y49530
X39370Y46990
X39370Y44450
X39370Y34290
X39370Y39370
X39370Y36830
X62230Y19050
X39370Y31750
X39370Y29210
X39370Y26670
X39370Y24130
X39370Y21590
X39370Y19050
X62230Y21590
X62230Y52070
X62230Y49530
X62230Y46990
X62230Y44450
X62230Y41910
X62230Y39370
X62230Y36830
X62230Y34290
X62230Y31750
X62230Y29210
X62230Y26670
X62230Y24130
T5
X32131Y34290
X33909Y34290
X26289Y34290
X24511Y34290
M30