; NON-PLATED HOLES START AT T1
; THROUGH (PLATED) HOLES START AT T100
M48
INCH
T100C0.129921
T101C0.040000
T102C0.030000
T103C0.038000
%
T100
X000916Y009074
X000916Y031074
X019916Y009074
X019916Y031074
T101
X019916Y028074
X019916Y026074
T102
X011916Y012074
X011916Y028074
X012916Y012074
X012916Y028074
X005916Y017074
X013916Y012074
X013916Y028074
X011916Y023073
X012916Y023073
X013916Y023073
X005916Y012074
X005916Y028074
X006916Y017074
X007916Y017074
X005916Y023073
X006916Y012074
X006916Y028074
X007916Y012074
X007916Y028074
X006916Y023073
X007916Y023073
X011916Y017074
X012916Y017074
X013916Y017074
T103
X002916Y013073
X002916Y014073
X008916Y015073
X002916Y024074
X009916Y015073
X002916Y015073
X002916Y025074
X008916Y010074
X008916Y026074
X009916Y010074
X009916Y026074
X002916Y016073
X002916Y026074
X008916Y021073
X009916Y021073
X002916Y017074
X002916Y027074
X002916Y028074
T00
M30
