G04 MADE WITH FRITZING*
G04 WWW.FRITZING.ORG*
G04 SINGLE SIDED*
G04 HOLES NOT PLATED*
G04 CONTOUR ON CENTER OF CONTOUR VECTOR*
%ASAXBY*%
%FSLAX23Y23*%
%MOIN*%
%OFA0B0*%
%SFA1.0B1.0*%
%ADD10C,0.137795*%
%ADD11C,0.080000*%
%ADD12C,0.070000*%
%ADD13C,0.078000*%
%ADD14R,0.079986X0.080000*%
%ADD15C,0.048000*%
%ADD16R,0.001000X0.001000*%
%LNCOPPER0*%
G90*
G70*
G54D10*
X92Y3107D03*
X1992Y3107D03*
X92Y907D03*
X1992Y907D03*
G54D11*
X1992Y2607D03*
X1992Y2807D03*
G54D12*
X592Y2807D03*
X692Y2807D03*
X792Y2807D03*
X592Y1707D03*
X692Y1707D03*
X792Y1707D03*
X1192Y2807D03*
X1292Y2807D03*
X1392Y2807D03*
X1192Y1707D03*
X1292Y1707D03*
X1392Y1707D03*
X592Y2307D03*
X692Y2307D03*
X792Y2307D03*
X592Y1207D03*
X692Y1207D03*
X792Y1207D03*
X1192Y2307D03*
X1292Y2307D03*
X1392Y2307D03*
X1192Y1207D03*
X1292Y1207D03*
X1392Y1207D03*
G54D13*
X292Y1707D03*
X292Y1607D03*
X292Y1507D03*
X292Y1407D03*
X292Y1307D03*
X292Y2807D03*
X292Y2707D03*
X292Y2607D03*
X292Y2507D03*
X292Y2407D03*
X992Y2607D03*
X892Y2607D03*
X992Y1007D03*
X892Y1007D03*
X992Y1507D03*
X892Y1507D03*
X992Y2107D03*
X892Y2107D03*
G54D14*
X1992Y2607D03*
G54D15*
X1392Y2345D02*
X1392Y2770D01*
D02*
X333Y1707D02*
X554Y1707D01*
D02*
X892Y2907D02*
X692Y2907D01*
D02*
X692Y2907D02*
X692Y2845D01*
D02*
X892Y2649D02*
X892Y2907D01*
D02*
X1392Y1245D02*
X1392Y1670D01*
D02*
X192Y1607D02*
X192Y1907D01*
D02*
X192Y1907D02*
X1192Y1907D01*
D02*
X250Y1607D02*
X192Y1607D01*
D02*
X1192Y1907D02*
X1192Y1745D01*
D02*
X1192Y3007D02*
X1192Y2845D01*
D02*
X192Y3007D02*
X1192Y3007D01*
D02*
X192Y2707D02*
X192Y3007D01*
D02*
X250Y2707D02*
X192Y2707D01*
D02*
X1292Y1607D02*
X1292Y1670D01*
D02*
X1031Y1520D02*
X1292Y1607D01*
D02*
X1949Y2807D02*
X1429Y2807D01*
D02*
X792Y1107D02*
X792Y1170D01*
D02*
X192Y1107D02*
X792Y1107D01*
D02*
X183Y1510D02*
X192Y1107D01*
D02*
X892Y2407D02*
X692Y2407D01*
D02*
X692Y2407D02*
X692Y2345D01*
D02*
X892Y2149D02*
X892Y2407D01*
D02*
X1292Y2707D02*
X1292Y2770D01*
D02*
X1031Y2620D02*
X1292Y2707D01*
D02*
X331Y1294D02*
X556Y1219D01*
D02*
X892Y1807D02*
X692Y1807D01*
D02*
X692Y1807D02*
X692Y1745D01*
D02*
X892Y1549D02*
X892Y1807D01*
D02*
X992Y2507D02*
X1165Y2334D01*
D02*
X333Y2507D02*
X992Y2507D01*
D02*
X992Y1407D02*
X1165Y1234D01*
D02*
X333Y1407D02*
X992Y1407D01*
D02*
X331Y2394D02*
X556Y2319D01*
D02*
X792Y1607D02*
X792Y1670D01*
D02*
X332Y1515D02*
X792Y1607D01*
D02*
X792Y2707D02*
X792Y2770D01*
D02*
X332Y2615D02*
X792Y2707D01*
D02*
X333Y2807D02*
X554Y2807D01*
D02*
X1292Y1107D02*
X1292Y1170D01*
D02*
X1031Y1020D02*
X1292Y1107D01*
D02*
X1392Y2007D02*
X1392Y2270D01*
D02*
X792Y2007D02*
X1392Y2007D01*
D02*
X797Y2199D02*
X792Y2007D01*
D02*
X797Y2199D02*
X794Y2270D01*
D02*
X83Y2202D02*
X797Y2199D01*
D02*
X892Y1307D02*
X692Y1307D01*
D02*
X692Y1307D02*
X692Y1245D01*
D02*
X892Y1049D02*
X892Y1307D01*
D02*
X1292Y2207D02*
X1292Y2270D01*
D02*
X1031Y2120D02*
X1292Y2207D01*
D02*
X192Y2607D02*
X250Y2607D01*
D02*
X192Y1507D02*
X292Y1507D01*
D02*
X92Y1607D02*
X183Y1510D01*
D02*
X92Y2507D02*
X83Y2202D01*
D02*
X192Y2607D02*
X92Y2507D01*
D02*
X83Y2202D02*
X92Y1607D01*
D02*
X183Y1510D02*
X250Y1508D01*
D02*
X1392Y907D02*
X1392Y1170D01*
D02*
X792Y907D02*
X1392Y907D01*
D02*
X792Y1107D02*
X792Y907D01*
G54D16*
X586Y2842D02*
X597Y2842D01*
X686Y2842D02*
X697Y2842D01*
X786Y2842D02*
X797Y2842D01*
X1186Y2842D02*
X1197Y2842D01*
X1286Y2842D02*
X1297Y2842D01*
X1386Y2842D02*
X1396Y2842D01*
X582Y2841D02*
X601Y2841D01*
X682Y2841D02*
X701Y2841D01*
X782Y2841D02*
X801Y2841D01*
X1182Y2841D02*
X1201Y2841D01*
X1282Y2841D02*
X1301Y2841D01*
X1382Y2841D02*
X1401Y2841D01*
X579Y2840D02*
X603Y2840D01*
X679Y2840D02*
X703Y2840D01*
X779Y2840D02*
X803Y2840D01*
X1179Y2840D02*
X1203Y2840D01*
X1279Y2840D02*
X1303Y2840D01*
X1379Y2840D02*
X1403Y2840D01*
X577Y2839D02*
X606Y2839D01*
X677Y2839D02*
X706Y2839D01*
X777Y2839D02*
X806Y2839D01*
X1177Y2839D02*
X1206Y2839D01*
X1277Y2839D02*
X1306Y2839D01*
X1377Y2839D02*
X1406Y2839D01*
X575Y2838D02*
X608Y2838D01*
X675Y2838D02*
X708Y2838D01*
X775Y2838D02*
X808Y2838D01*
X1175Y2838D02*
X1208Y2838D01*
X1274Y2838D02*
X1308Y2838D01*
X1374Y2838D02*
X1408Y2838D01*
X573Y2837D02*
X609Y2837D01*
X673Y2837D02*
X709Y2837D01*
X773Y2837D02*
X809Y2837D01*
X1173Y2837D02*
X1209Y2837D01*
X1273Y2837D02*
X1309Y2837D01*
X1373Y2837D02*
X1409Y2837D01*
X571Y2836D02*
X611Y2836D01*
X671Y2836D02*
X711Y2836D01*
X771Y2836D02*
X811Y2836D01*
X1171Y2836D02*
X1211Y2836D01*
X1271Y2836D02*
X1311Y2836D01*
X1371Y2836D02*
X1411Y2836D01*
X570Y2835D02*
X612Y2835D01*
X670Y2835D02*
X712Y2835D01*
X770Y2835D02*
X812Y2835D01*
X1170Y2835D02*
X1212Y2835D01*
X1270Y2835D02*
X1312Y2835D01*
X1370Y2835D02*
X1412Y2835D01*
X569Y2834D02*
X614Y2834D01*
X669Y2834D02*
X714Y2834D01*
X769Y2834D02*
X814Y2834D01*
X1169Y2834D02*
X1213Y2834D01*
X1269Y2834D02*
X1313Y2834D01*
X1369Y2834D02*
X1413Y2834D01*
X568Y2833D02*
X615Y2833D01*
X668Y2833D02*
X715Y2833D01*
X768Y2833D02*
X815Y2833D01*
X1168Y2833D02*
X1215Y2833D01*
X1267Y2833D02*
X1315Y2833D01*
X1367Y2833D02*
X1415Y2833D01*
X567Y2832D02*
X616Y2832D01*
X667Y2832D02*
X716Y2832D01*
X767Y2832D02*
X816Y2832D01*
X1166Y2832D02*
X1216Y2832D01*
X1266Y2832D02*
X1316Y2832D01*
X1366Y2832D02*
X1416Y2832D01*
X566Y2831D02*
X617Y2831D01*
X666Y2831D02*
X717Y2831D01*
X766Y2831D02*
X817Y2831D01*
X1166Y2831D02*
X1217Y2831D01*
X1266Y2831D02*
X1317Y2831D01*
X1366Y2831D02*
X1417Y2831D01*
X565Y2830D02*
X617Y2830D01*
X665Y2830D02*
X717Y2830D01*
X765Y2830D02*
X817Y2830D01*
X1165Y2830D02*
X1217Y2830D01*
X1265Y2830D02*
X1317Y2830D01*
X1365Y2830D02*
X1417Y2830D01*
X564Y2829D02*
X618Y2829D01*
X664Y2829D02*
X718Y2829D01*
X764Y2829D02*
X818Y2829D01*
X1164Y2829D02*
X1218Y2829D01*
X1264Y2829D02*
X1318Y2829D01*
X1364Y2829D02*
X1418Y2829D01*
X563Y2828D02*
X619Y2828D01*
X663Y2828D02*
X719Y2828D01*
X763Y2828D02*
X819Y2828D01*
X1163Y2828D02*
X1219Y2828D01*
X1263Y2828D02*
X1319Y2828D01*
X1363Y2828D02*
X1419Y2828D01*
X563Y2827D02*
X620Y2827D01*
X663Y2827D02*
X720Y2827D01*
X763Y2827D02*
X820Y2827D01*
X1163Y2827D02*
X1220Y2827D01*
X1263Y2827D02*
X1320Y2827D01*
X1363Y2827D02*
X1420Y2827D01*
X562Y2826D02*
X620Y2826D01*
X662Y2826D02*
X720Y2826D01*
X762Y2826D02*
X820Y2826D01*
X1162Y2826D02*
X1220Y2826D01*
X1262Y2826D02*
X1320Y2826D01*
X1362Y2826D02*
X1420Y2826D01*
X561Y2825D02*
X621Y2825D01*
X661Y2825D02*
X721Y2825D01*
X761Y2825D02*
X821Y2825D01*
X1161Y2825D02*
X1221Y2825D01*
X1261Y2825D02*
X1321Y2825D01*
X1361Y2825D02*
X1421Y2825D01*
X561Y2824D02*
X621Y2824D01*
X661Y2824D02*
X721Y2824D01*
X761Y2824D02*
X821Y2824D01*
X1161Y2824D02*
X1221Y2824D01*
X1261Y2824D02*
X1321Y2824D01*
X1361Y2824D02*
X1421Y2824D01*
X560Y2823D02*
X622Y2823D01*
X660Y2823D02*
X722Y2823D01*
X760Y2823D02*
X822Y2823D01*
X1160Y2823D02*
X1222Y2823D01*
X1260Y2823D02*
X1322Y2823D01*
X1360Y2823D02*
X1422Y2823D01*
X560Y2822D02*
X586Y2822D01*
X596Y2822D02*
X622Y2822D01*
X660Y2822D02*
X686Y2822D01*
X696Y2822D02*
X722Y2822D01*
X760Y2822D02*
X786Y2822D01*
X796Y2822D02*
X822Y2822D01*
X1160Y2822D02*
X1186Y2822D01*
X1196Y2822D02*
X1222Y2822D01*
X1260Y2822D02*
X1286Y2822D01*
X1296Y2822D02*
X1322Y2822D01*
X1360Y2822D02*
X1386Y2822D01*
X1396Y2822D02*
X1422Y2822D01*
X559Y2821D02*
X584Y2821D01*
X599Y2821D02*
X623Y2821D01*
X659Y2821D02*
X684Y2821D01*
X699Y2821D02*
X723Y2821D01*
X759Y2821D02*
X784Y2821D01*
X799Y2821D02*
X823Y2821D01*
X1159Y2821D02*
X1184Y2821D01*
X1199Y2821D02*
X1223Y2821D01*
X1259Y2821D02*
X1284Y2821D01*
X1299Y2821D02*
X1323Y2821D01*
X1359Y2821D02*
X1384Y2821D01*
X1399Y2821D02*
X1423Y2821D01*
X559Y2820D02*
X582Y2820D01*
X600Y2820D02*
X623Y2820D01*
X659Y2820D02*
X682Y2820D01*
X700Y2820D02*
X723Y2820D01*
X759Y2820D02*
X782Y2820D01*
X800Y2820D02*
X823Y2820D01*
X1159Y2820D02*
X1182Y2820D01*
X1200Y2820D02*
X1223Y2820D01*
X1259Y2820D02*
X1282Y2820D01*
X1300Y2820D02*
X1323Y2820D01*
X1359Y2820D02*
X1382Y2820D01*
X1400Y2820D02*
X1423Y2820D01*
X559Y2819D02*
X581Y2819D01*
X601Y2819D02*
X623Y2819D01*
X659Y2819D02*
X681Y2819D01*
X701Y2819D02*
X723Y2819D01*
X759Y2819D02*
X781Y2819D01*
X801Y2819D02*
X823Y2819D01*
X1159Y2819D02*
X1181Y2819D01*
X1201Y2819D02*
X1223Y2819D01*
X1259Y2819D02*
X1281Y2819D01*
X1301Y2819D02*
X1323Y2819D01*
X1359Y2819D02*
X1381Y2819D01*
X1401Y2819D02*
X1423Y2819D01*
X558Y2818D02*
X580Y2818D01*
X602Y2818D02*
X624Y2818D01*
X658Y2818D02*
X680Y2818D01*
X702Y2818D02*
X724Y2818D01*
X758Y2818D02*
X780Y2818D01*
X802Y2818D02*
X824Y2818D01*
X1158Y2818D02*
X1180Y2818D01*
X1202Y2818D02*
X1224Y2818D01*
X1258Y2818D02*
X1280Y2818D01*
X1302Y2818D02*
X1324Y2818D01*
X1358Y2818D02*
X1380Y2818D01*
X1402Y2818D02*
X1424Y2818D01*
X558Y2817D02*
X579Y2817D01*
X603Y2817D02*
X624Y2817D01*
X658Y2817D02*
X679Y2817D01*
X703Y2817D02*
X724Y2817D01*
X758Y2817D02*
X779Y2817D01*
X803Y2817D02*
X824Y2817D01*
X1158Y2817D02*
X1179Y2817D01*
X1203Y2817D02*
X1224Y2817D01*
X1258Y2817D02*
X1279Y2817D01*
X1303Y2817D02*
X1324Y2817D01*
X1358Y2817D02*
X1379Y2817D01*
X1403Y2817D02*
X1424Y2817D01*
X558Y2816D02*
X578Y2816D01*
X604Y2816D02*
X624Y2816D01*
X658Y2816D02*
X678Y2816D01*
X704Y2816D02*
X724Y2816D01*
X758Y2816D02*
X778Y2816D01*
X804Y2816D02*
X824Y2816D01*
X1158Y2816D02*
X1178Y2816D01*
X1204Y2816D02*
X1224Y2816D01*
X1258Y2816D02*
X1278Y2816D01*
X1304Y2816D02*
X1324Y2816D01*
X1358Y2816D02*
X1378Y2816D01*
X1404Y2816D02*
X1424Y2816D01*
X558Y2815D02*
X577Y2815D01*
X605Y2815D02*
X625Y2815D01*
X658Y2815D02*
X677Y2815D01*
X705Y2815D02*
X725Y2815D01*
X758Y2815D02*
X777Y2815D01*
X805Y2815D02*
X825Y2815D01*
X1157Y2815D02*
X1177Y2815D01*
X1205Y2815D02*
X1225Y2815D01*
X1257Y2815D02*
X1277Y2815D01*
X1305Y2815D02*
X1325Y2815D01*
X1357Y2815D02*
X1377Y2815D01*
X1405Y2815D02*
X1425Y2815D01*
X557Y2814D02*
X577Y2814D01*
X605Y2814D02*
X625Y2814D01*
X657Y2814D02*
X677Y2814D01*
X705Y2814D02*
X725Y2814D01*
X757Y2814D02*
X777Y2814D01*
X805Y2814D02*
X825Y2814D01*
X1157Y2814D02*
X1177Y2814D01*
X1205Y2814D02*
X1225Y2814D01*
X1257Y2814D02*
X1277Y2814D01*
X1305Y2814D02*
X1325Y2814D01*
X1357Y2814D02*
X1377Y2814D01*
X1405Y2814D02*
X1425Y2814D01*
X557Y2813D02*
X576Y2813D01*
X606Y2813D02*
X625Y2813D01*
X657Y2813D02*
X676Y2813D01*
X706Y2813D02*
X725Y2813D01*
X757Y2813D02*
X776Y2813D01*
X806Y2813D02*
X825Y2813D01*
X1157Y2813D02*
X1176Y2813D01*
X1206Y2813D02*
X1225Y2813D01*
X1257Y2813D02*
X1276Y2813D01*
X1306Y2813D02*
X1325Y2813D01*
X1357Y2813D02*
X1376Y2813D01*
X1406Y2813D02*
X1425Y2813D01*
X557Y2812D02*
X576Y2812D01*
X606Y2812D02*
X625Y2812D01*
X657Y2812D02*
X676Y2812D01*
X706Y2812D02*
X725Y2812D01*
X757Y2812D02*
X776Y2812D01*
X806Y2812D02*
X825Y2812D01*
X1157Y2812D02*
X1176Y2812D01*
X1206Y2812D02*
X1225Y2812D01*
X1257Y2812D02*
X1276Y2812D01*
X1306Y2812D02*
X1325Y2812D01*
X1357Y2812D02*
X1376Y2812D01*
X1406Y2812D02*
X1425Y2812D01*
X557Y2811D02*
X576Y2811D01*
X606Y2811D02*
X625Y2811D01*
X657Y2811D02*
X676Y2811D01*
X706Y2811D02*
X725Y2811D01*
X757Y2811D02*
X776Y2811D01*
X806Y2811D02*
X825Y2811D01*
X1157Y2811D02*
X1176Y2811D01*
X1206Y2811D02*
X1225Y2811D01*
X1257Y2811D02*
X1276Y2811D01*
X1306Y2811D02*
X1325Y2811D01*
X1357Y2811D02*
X1376Y2811D01*
X1406Y2811D02*
X1425Y2811D01*
X557Y2810D02*
X576Y2810D01*
X606Y2810D02*
X625Y2810D01*
X657Y2810D02*
X676Y2810D01*
X706Y2810D02*
X725Y2810D01*
X757Y2810D02*
X776Y2810D01*
X806Y2810D02*
X825Y2810D01*
X1157Y2810D02*
X1176Y2810D01*
X1206Y2810D02*
X1225Y2810D01*
X1257Y2810D02*
X1276Y2810D01*
X1306Y2810D02*
X1325Y2810D01*
X1357Y2810D02*
X1376Y2810D01*
X1406Y2810D02*
X1425Y2810D01*
X557Y2809D02*
X576Y2809D01*
X607Y2809D02*
X626Y2809D01*
X657Y2809D02*
X676Y2809D01*
X706Y2809D02*
X726Y2809D01*
X757Y2809D02*
X776Y2809D01*
X806Y2809D02*
X825Y2809D01*
X1157Y2809D02*
X1176Y2809D01*
X1206Y2809D02*
X1225Y2809D01*
X1257Y2809D02*
X1276Y2809D01*
X1306Y2809D02*
X1325Y2809D01*
X1357Y2809D02*
X1376Y2809D01*
X1406Y2809D02*
X1425Y2809D01*
X557Y2808D02*
X576Y2808D01*
X607Y2808D02*
X626Y2808D01*
X657Y2808D02*
X676Y2808D01*
X707Y2808D02*
X726Y2808D01*
X757Y2808D02*
X776Y2808D01*
X807Y2808D02*
X826Y2808D01*
X1157Y2808D02*
X1176Y2808D01*
X1207Y2808D02*
X1226Y2808D01*
X1257Y2808D02*
X1276Y2808D01*
X1307Y2808D02*
X1326Y2808D01*
X1357Y2808D02*
X1376Y2808D01*
X1406Y2808D02*
X1426Y2808D01*
X557Y2807D02*
X576Y2807D01*
X607Y2807D02*
X626Y2807D01*
X657Y2807D02*
X676Y2807D01*
X707Y2807D02*
X726Y2807D01*
X757Y2807D02*
X776Y2807D01*
X807Y2807D02*
X826Y2807D01*
X1157Y2807D02*
X1176Y2807D01*
X1206Y2807D02*
X1226Y2807D01*
X1257Y2807D02*
X1276Y2807D01*
X1306Y2807D02*
X1325Y2807D01*
X1357Y2807D02*
X1376Y2807D01*
X1406Y2807D02*
X1425Y2807D01*
X557Y2806D02*
X576Y2806D01*
X606Y2806D02*
X626Y2806D01*
X657Y2806D02*
X676Y2806D01*
X706Y2806D02*
X725Y2806D01*
X757Y2806D02*
X776Y2806D01*
X806Y2806D02*
X825Y2806D01*
X1157Y2806D02*
X1176Y2806D01*
X1206Y2806D02*
X1225Y2806D01*
X1257Y2806D02*
X1276Y2806D01*
X1306Y2806D02*
X1325Y2806D01*
X1357Y2806D02*
X1376Y2806D01*
X1406Y2806D02*
X1425Y2806D01*
X557Y2805D02*
X576Y2805D01*
X606Y2805D02*
X625Y2805D01*
X657Y2805D02*
X676Y2805D01*
X706Y2805D02*
X725Y2805D01*
X757Y2805D02*
X776Y2805D01*
X806Y2805D02*
X825Y2805D01*
X1157Y2805D02*
X1176Y2805D01*
X1206Y2805D02*
X1225Y2805D01*
X1257Y2805D02*
X1276Y2805D01*
X1306Y2805D02*
X1325Y2805D01*
X1357Y2805D02*
X1376Y2805D01*
X1406Y2805D02*
X1425Y2805D01*
X557Y2804D02*
X576Y2804D01*
X606Y2804D02*
X625Y2804D01*
X657Y2804D02*
X676Y2804D01*
X706Y2804D02*
X725Y2804D01*
X757Y2804D02*
X776Y2804D01*
X806Y2804D02*
X825Y2804D01*
X1157Y2804D02*
X1176Y2804D01*
X1206Y2804D02*
X1225Y2804D01*
X1257Y2804D02*
X1276Y2804D01*
X1306Y2804D02*
X1325Y2804D01*
X1357Y2804D02*
X1376Y2804D01*
X1406Y2804D02*
X1425Y2804D01*
X557Y2803D02*
X576Y2803D01*
X606Y2803D02*
X625Y2803D01*
X657Y2803D02*
X676Y2803D01*
X706Y2803D02*
X725Y2803D01*
X757Y2803D02*
X776Y2803D01*
X806Y2803D02*
X825Y2803D01*
X1157Y2803D02*
X1176Y2803D01*
X1206Y2803D02*
X1225Y2803D01*
X1257Y2803D02*
X1276Y2803D01*
X1306Y2803D02*
X1325Y2803D01*
X1357Y2803D02*
X1376Y2803D01*
X1406Y2803D02*
X1425Y2803D01*
X557Y2802D02*
X577Y2802D01*
X606Y2802D02*
X625Y2802D01*
X657Y2802D02*
X677Y2802D01*
X706Y2802D02*
X725Y2802D01*
X757Y2802D02*
X777Y2802D01*
X806Y2802D02*
X825Y2802D01*
X1157Y2802D02*
X1176Y2802D01*
X1206Y2802D02*
X1225Y2802D01*
X1257Y2802D02*
X1276Y2802D01*
X1306Y2802D02*
X1325Y2802D01*
X1357Y2802D02*
X1376Y2802D01*
X1406Y2802D02*
X1425Y2802D01*
X557Y2801D02*
X577Y2801D01*
X605Y2801D02*
X625Y2801D01*
X657Y2801D02*
X677Y2801D01*
X705Y2801D02*
X725Y2801D01*
X757Y2801D02*
X777Y2801D01*
X805Y2801D02*
X825Y2801D01*
X1157Y2801D02*
X1177Y2801D01*
X1205Y2801D02*
X1225Y2801D01*
X1257Y2801D02*
X1277Y2801D01*
X1305Y2801D02*
X1325Y2801D01*
X1357Y2801D02*
X1377Y2801D01*
X1405Y2801D02*
X1425Y2801D01*
X558Y2800D02*
X578Y2800D01*
X605Y2800D02*
X625Y2800D01*
X658Y2800D02*
X678Y2800D01*
X705Y2800D02*
X725Y2800D01*
X758Y2800D02*
X778Y2800D01*
X805Y2800D02*
X825Y2800D01*
X1158Y2800D02*
X1178Y2800D01*
X1205Y2800D02*
X1225Y2800D01*
X1258Y2800D02*
X1278Y2800D01*
X1305Y2800D02*
X1325Y2800D01*
X1358Y2800D02*
X1378Y2800D01*
X1405Y2800D02*
X1425Y2800D01*
X558Y2799D02*
X578Y2799D01*
X604Y2799D02*
X624Y2799D01*
X658Y2799D02*
X678Y2799D01*
X704Y2799D02*
X724Y2799D01*
X758Y2799D02*
X778Y2799D01*
X804Y2799D02*
X824Y2799D01*
X1158Y2799D02*
X1178Y2799D01*
X1204Y2799D02*
X1224Y2799D01*
X1258Y2799D02*
X1278Y2799D01*
X1304Y2799D02*
X1324Y2799D01*
X1358Y2799D02*
X1378Y2799D01*
X1404Y2799D02*
X1424Y2799D01*
X558Y2798D02*
X579Y2798D01*
X603Y2798D02*
X624Y2798D01*
X658Y2798D02*
X679Y2798D01*
X703Y2798D02*
X724Y2798D01*
X758Y2798D02*
X779Y2798D01*
X803Y2798D02*
X824Y2798D01*
X1158Y2798D02*
X1179Y2798D01*
X1203Y2798D02*
X1224Y2798D01*
X1258Y2798D02*
X1279Y2798D01*
X1303Y2798D02*
X1324Y2798D01*
X1358Y2798D02*
X1379Y2798D01*
X1403Y2798D02*
X1424Y2798D01*
X558Y2797D02*
X580Y2797D01*
X602Y2797D02*
X624Y2797D01*
X658Y2797D02*
X680Y2797D01*
X702Y2797D02*
X724Y2797D01*
X758Y2797D02*
X780Y2797D01*
X802Y2797D02*
X824Y2797D01*
X1158Y2797D02*
X1180Y2797D01*
X1202Y2797D02*
X1224Y2797D01*
X1258Y2797D02*
X1280Y2797D01*
X1302Y2797D02*
X1324Y2797D01*
X1358Y2797D02*
X1380Y2797D01*
X1402Y2797D02*
X1424Y2797D01*
X559Y2796D02*
X581Y2796D01*
X601Y2796D02*
X623Y2796D01*
X659Y2796D02*
X681Y2796D01*
X701Y2796D02*
X723Y2796D01*
X759Y2796D02*
X781Y2796D01*
X801Y2796D02*
X823Y2796D01*
X1159Y2796D02*
X1181Y2796D01*
X1201Y2796D02*
X1223Y2796D01*
X1259Y2796D02*
X1281Y2796D01*
X1301Y2796D02*
X1323Y2796D01*
X1359Y2796D02*
X1381Y2796D01*
X1401Y2796D02*
X1423Y2796D01*
X559Y2795D02*
X582Y2795D01*
X600Y2795D02*
X623Y2795D01*
X659Y2795D02*
X682Y2795D01*
X700Y2795D02*
X723Y2795D01*
X759Y2795D02*
X782Y2795D01*
X800Y2795D02*
X823Y2795D01*
X1159Y2795D02*
X1182Y2795D01*
X1200Y2795D02*
X1223Y2795D01*
X1259Y2795D02*
X1282Y2795D01*
X1300Y2795D02*
X1323Y2795D01*
X1359Y2795D02*
X1382Y2795D01*
X1400Y2795D02*
X1423Y2795D01*
X560Y2794D02*
X584Y2794D01*
X598Y2794D02*
X623Y2794D01*
X660Y2794D02*
X684Y2794D01*
X698Y2794D02*
X723Y2794D01*
X760Y2794D02*
X784Y2794D01*
X798Y2794D02*
X823Y2794D01*
X1160Y2794D02*
X1184Y2794D01*
X1198Y2794D02*
X1223Y2794D01*
X1260Y2794D02*
X1284Y2794D01*
X1298Y2794D02*
X1323Y2794D01*
X1359Y2794D02*
X1384Y2794D01*
X1398Y2794D02*
X1423Y2794D01*
X560Y2793D02*
X587Y2793D01*
X595Y2793D02*
X622Y2793D01*
X660Y2793D02*
X687Y2793D01*
X695Y2793D02*
X722Y2793D01*
X760Y2793D02*
X787Y2793D01*
X795Y2793D02*
X822Y2793D01*
X1160Y2793D02*
X1187Y2793D01*
X1195Y2793D02*
X1222Y2793D01*
X1260Y2793D02*
X1287Y2793D01*
X1295Y2793D02*
X1322Y2793D01*
X1360Y2793D02*
X1387Y2793D01*
X1395Y2793D02*
X1422Y2793D01*
X561Y2792D02*
X622Y2792D01*
X661Y2792D02*
X722Y2792D01*
X760Y2792D02*
X822Y2792D01*
X1160Y2792D02*
X1222Y2792D01*
X1260Y2792D02*
X1322Y2792D01*
X1360Y2792D02*
X1422Y2792D01*
X561Y2791D02*
X621Y2791D01*
X661Y2791D02*
X721Y2791D01*
X761Y2791D02*
X821Y2791D01*
X1161Y2791D02*
X1221Y2791D01*
X1261Y2791D02*
X1321Y2791D01*
X1361Y2791D02*
X1421Y2791D01*
X562Y2790D02*
X621Y2790D01*
X662Y2790D02*
X721Y2790D01*
X762Y2790D02*
X821Y2790D01*
X1162Y2790D02*
X1221Y2790D01*
X1262Y2790D02*
X1321Y2790D01*
X1362Y2790D02*
X1421Y2790D01*
X562Y2789D02*
X620Y2789D01*
X662Y2789D02*
X720Y2789D01*
X762Y2789D02*
X820Y2789D01*
X1162Y2789D02*
X1220Y2789D01*
X1262Y2789D02*
X1320Y2789D01*
X1362Y2789D02*
X1420Y2789D01*
X563Y2788D02*
X619Y2788D01*
X663Y2788D02*
X719Y2788D01*
X763Y2788D02*
X819Y2788D01*
X1163Y2788D02*
X1219Y2788D01*
X1263Y2788D02*
X1319Y2788D01*
X1363Y2788D02*
X1419Y2788D01*
X563Y2787D02*
X619Y2787D01*
X663Y2787D02*
X719Y2787D01*
X763Y2787D02*
X819Y2787D01*
X1163Y2787D02*
X1219Y2787D01*
X1263Y2787D02*
X1319Y2787D01*
X1363Y2787D02*
X1419Y2787D01*
X564Y2786D02*
X618Y2786D01*
X664Y2786D02*
X718Y2786D01*
X764Y2786D02*
X818Y2786D01*
X1164Y2786D02*
X1218Y2786D01*
X1264Y2786D02*
X1318Y2786D01*
X1364Y2786D02*
X1418Y2786D01*
X565Y2785D02*
X617Y2785D01*
X665Y2785D02*
X717Y2785D01*
X765Y2785D02*
X817Y2785D01*
X1165Y2785D02*
X1217Y2785D01*
X1265Y2785D02*
X1317Y2785D01*
X1365Y2785D02*
X1417Y2785D01*
X566Y2784D02*
X616Y2784D01*
X666Y2784D02*
X716Y2784D01*
X766Y2784D02*
X816Y2784D01*
X1166Y2784D02*
X1216Y2784D01*
X1266Y2784D02*
X1316Y2784D01*
X1366Y2784D02*
X1416Y2784D01*
X567Y2783D02*
X615Y2783D01*
X667Y2783D02*
X715Y2783D01*
X767Y2783D02*
X815Y2783D01*
X1167Y2783D02*
X1215Y2783D01*
X1267Y2783D02*
X1315Y2783D01*
X1367Y2783D02*
X1415Y2783D01*
X568Y2782D02*
X614Y2782D01*
X668Y2782D02*
X714Y2782D01*
X768Y2782D02*
X814Y2782D01*
X1168Y2782D02*
X1214Y2782D01*
X1268Y2782D02*
X1314Y2782D01*
X1368Y2782D02*
X1414Y2782D01*
X569Y2781D02*
X613Y2781D01*
X669Y2781D02*
X713Y2781D01*
X769Y2781D02*
X813Y2781D01*
X1169Y2781D02*
X1213Y2781D01*
X1269Y2781D02*
X1313Y2781D01*
X1369Y2781D02*
X1413Y2781D01*
X570Y2780D02*
X612Y2780D01*
X670Y2780D02*
X712Y2780D01*
X770Y2780D02*
X812Y2780D01*
X1170Y2780D02*
X1212Y2780D01*
X1270Y2780D02*
X1312Y2780D01*
X1370Y2780D02*
X1412Y2780D01*
X572Y2779D02*
X611Y2779D01*
X672Y2779D02*
X711Y2779D01*
X772Y2779D02*
X811Y2779D01*
X1172Y2779D02*
X1211Y2779D01*
X1272Y2779D02*
X1310Y2779D01*
X1372Y2779D02*
X1410Y2779D01*
X573Y2778D02*
X609Y2778D01*
X673Y2778D02*
X709Y2778D01*
X773Y2778D02*
X809Y2778D01*
X1173Y2778D02*
X1209Y2778D01*
X1273Y2778D02*
X1309Y2778D01*
X1373Y2778D02*
X1409Y2778D01*
X575Y2777D02*
X607Y2777D01*
X675Y2777D02*
X707Y2777D01*
X775Y2777D02*
X807Y2777D01*
X1175Y2777D02*
X1207Y2777D01*
X1275Y2777D02*
X1307Y2777D01*
X1375Y2777D02*
X1407Y2777D01*
X577Y2776D02*
X605Y2776D01*
X677Y2776D02*
X705Y2776D01*
X777Y2776D02*
X805Y2776D01*
X1177Y2776D02*
X1205Y2776D01*
X1277Y2776D02*
X1305Y2776D01*
X1377Y2776D02*
X1405Y2776D01*
X580Y2775D02*
X603Y2775D01*
X680Y2775D02*
X703Y2775D01*
X780Y2775D02*
X803Y2775D01*
X1179Y2775D02*
X1203Y2775D01*
X1279Y2775D02*
X1303Y2775D01*
X1379Y2775D02*
X1403Y2775D01*
X583Y2774D02*
X600Y2774D01*
X683Y2774D02*
X700Y2774D01*
X783Y2774D02*
X800Y2774D01*
X1182Y2774D02*
X1200Y2774D01*
X1282Y2774D02*
X1300Y2774D01*
X1382Y2774D02*
X1400Y2774D01*
X587Y2773D02*
X595Y2773D01*
X687Y2773D02*
X695Y2773D01*
X787Y2773D02*
X795Y2773D01*
X1187Y2773D02*
X1195Y2773D01*
X1287Y2773D02*
X1295Y2773D01*
X1387Y2773D02*
X1395Y2773D01*
X585Y2342D02*
X597Y2342D01*
X685Y2342D02*
X697Y2342D01*
X785Y2342D02*
X797Y2342D01*
X1185Y2342D02*
X1197Y2342D01*
X1285Y2342D02*
X1297Y2342D01*
X1385Y2342D02*
X1397Y2342D01*
X581Y2341D02*
X601Y2341D01*
X681Y2341D02*
X701Y2341D01*
X781Y2341D02*
X801Y2341D01*
X1181Y2341D02*
X1201Y2341D01*
X1281Y2341D02*
X1301Y2341D01*
X1381Y2341D02*
X1401Y2341D01*
X579Y2340D02*
X603Y2340D01*
X679Y2340D02*
X703Y2340D01*
X779Y2340D02*
X803Y2340D01*
X1179Y2340D02*
X1203Y2340D01*
X1279Y2340D02*
X1303Y2340D01*
X1379Y2340D02*
X1403Y2340D01*
X576Y2339D02*
X606Y2339D01*
X676Y2339D02*
X706Y2339D01*
X776Y2339D02*
X806Y2339D01*
X1176Y2339D02*
X1206Y2339D01*
X1276Y2339D02*
X1306Y2339D01*
X1376Y2339D02*
X1406Y2339D01*
X574Y2338D02*
X608Y2338D01*
X674Y2338D02*
X708Y2338D01*
X774Y2338D02*
X808Y2338D01*
X1174Y2338D02*
X1208Y2338D01*
X1274Y2338D02*
X1308Y2338D01*
X1374Y2338D02*
X1408Y2338D01*
X573Y2337D02*
X609Y2337D01*
X673Y2337D02*
X709Y2337D01*
X773Y2337D02*
X809Y2337D01*
X1173Y2337D02*
X1209Y2337D01*
X1273Y2337D02*
X1309Y2337D01*
X1373Y2337D02*
X1409Y2337D01*
X571Y2336D02*
X611Y2336D01*
X671Y2336D02*
X711Y2336D01*
X771Y2336D02*
X811Y2336D01*
X1171Y2336D02*
X1211Y2336D01*
X1271Y2336D02*
X1311Y2336D01*
X1371Y2336D02*
X1411Y2336D01*
X570Y2335D02*
X612Y2335D01*
X670Y2335D02*
X712Y2335D01*
X770Y2335D02*
X812Y2335D01*
X1170Y2335D02*
X1212Y2335D01*
X1270Y2335D02*
X1312Y2335D01*
X1370Y2335D02*
X1412Y2335D01*
X569Y2334D02*
X614Y2334D01*
X669Y2334D02*
X714Y2334D01*
X769Y2334D02*
X814Y2334D01*
X1169Y2334D02*
X1214Y2334D01*
X1269Y2334D02*
X1314Y2334D01*
X1369Y2334D02*
X1414Y2334D01*
X567Y2333D02*
X615Y2333D01*
X667Y2333D02*
X715Y2333D01*
X767Y2333D02*
X815Y2333D01*
X1167Y2333D02*
X1215Y2333D01*
X1267Y2333D02*
X1315Y2333D01*
X1367Y2333D02*
X1415Y2333D01*
X566Y2332D02*
X616Y2332D01*
X666Y2332D02*
X716Y2332D01*
X766Y2332D02*
X816Y2332D01*
X1166Y2332D02*
X1216Y2332D01*
X1266Y2332D02*
X1316Y2332D01*
X1366Y2332D02*
X1416Y2332D01*
X566Y2331D02*
X617Y2331D01*
X666Y2331D02*
X717Y2331D01*
X766Y2331D02*
X817Y2331D01*
X1166Y2331D02*
X1217Y2331D01*
X1266Y2331D02*
X1317Y2331D01*
X1366Y2331D02*
X1417Y2331D01*
X565Y2330D02*
X617Y2330D01*
X665Y2330D02*
X717Y2330D01*
X765Y2330D02*
X817Y2330D01*
X1165Y2330D02*
X1217Y2330D01*
X1265Y2330D02*
X1317Y2330D01*
X1365Y2330D02*
X1417Y2330D01*
X564Y2329D02*
X618Y2329D01*
X664Y2329D02*
X718Y2329D01*
X764Y2329D02*
X818Y2329D01*
X1164Y2329D02*
X1218Y2329D01*
X1264Y2329D02*
X1318Y2329D01*
X1364Y2329D02*
X1418Y2329D01*
X563Y2328D02*
X619Y2328D01*
X663Y2328D02*
X719Y2328D01*
X763Y2328D02*
X819Y2328D01*
X1163Y2328D02*
X1219Y2328D01*
X1263Y2328D02*
X1319Y2328D01*
X1363Y2328D02*
X1419Y2328D01*
X563Y2327D02*
X620Y2327D01*
X663Y2327D02*
X720Y2327D01*
X763Y2327D02*
X820Y2327D01*
X1163Y2327D02*
X1220Y2327D01*
X1263Y2327D02*
X1320Y2327D01*
X1362Y2327D02*
X1420Y2327D01*
X562Y2326D02*
X620Y2326D01*
X662Y2326D02*
X720Y2326D01*
X762Y2326D02*
X820Y2326D01*
X1162Y2326D02*
X1220Y2326D01*
X1262Y2326D02*
X1320Y2326D01*
X1362Y2326D02*
X1420Y2326D01*
X561Y2325D02*
X621Y2325D01*
X661Y2325D02*
X721Y2325D01*
X761Y2325D02*
X821Y2325D01*
X1161Y2325D02*
X1221Y2325D01*
X1261Y2325D02*
X1321Y2325D01*
X1361Y2325D02*
X1421Y2325D01*
X561Y2324D02*
X621Y2324D01*
X661Y2324D02*
X721Y2324D01*
X761Y2324D02*
X821Y2324D01*
X1161Y2324D02*
X1221Y2324D01*
X1261Y2324D02*
X1321Y2324D01*
X1361Y2324D02*
X1421Y2324D01*
X560Y2323D02*
X622Y2323D01*
X660Y2323D02*
X722Y2323D01*
X760Y2323D02*
X822Y2323D01*
X1160Y2323D02*
X1222Y2323D01*
X1260Y2323D02*
X1322Y2323D01*
X1360Y2323D02*
X1422Y2323D01*
X560Y2322D02*
X586Y2322D01*
X596Y2322D02*
X622Y2322D01*
X660Y2322D02*
X686Y2322D01*
X696Y2322D02*
X722Y2322D01*
X760Y2322D02*
X786Y2322D01*
X796Y2322D02*
X822Y2322D01*
X1160Y2322D02*
X1186Y2322D01*
X1196Y2322D02*
X1222Y2322D01*
X1260Y2322D02*
X1286Y2322D01*
X1296Y2322D02*
X1322Y2322D01*
X1360Y2322D02*
X1386Y2322D01*
X1396Y2322D02*
X1422Y2322D01*
X559Y2321D02*
X584Y2321D01*
X599Y2321D02*
X623Y2321D01*
X659Y2321D02*
X684Y2321D01*
X699Y2321D02*
X723Y2321D01*
X759Y2321D02*
X784Y2321D01*
X799Y2321D02*
X823Y2321D01*
X1159Y2321D02*
X1183Y2321D01*
X1199Y2321D02*
X1223Y2321D01*
X1259Y2321D02*
X1283Y2321D01*
X1299Y2321D02*
X1323Y2321D01*
X1359Y2321D02*
X1383Y2321D01*
X1399Y2321D02*
X1423Y2321D01*
X559Y2320D02*
X582Y2320D01*
X600Y2320D02*
X623Y2320D01*
X659Y2320D02*
X682Y2320D01*
X700Y2320D02*
X723Y2320D01*
X759Y2320D02*
X782Y2320D01*
X800Y2320D02*
X823Y2320D01*
X1159Y2320D02*
X1182Y2320D01*
X1200Y2320D02*
X1223Y2320D01*
X1259Y2320D02*
X1282Y2320D01*
X1300Y2320D02*
X1323Y2320D01*
X1359Y2320D02*
X1382Y2320D01*
X1400Y2320D02*
X1423Y2320D01*
X559Y2319D02*
X581Y2319D01*
X601Y2319D02*
X623Y2319D01*
X659Y2319D02*
X681Y2319D01*
X701Y2319D02*
X723Y2319D01*
X759Y2319D02*
X781Y2319D01*
X801Y2319D02*
X823Y2319D01*
X1159Y2319D02*
X1181Y2319D01*
X1201Y2319D02*
X1223Y2319D01*
X1259Y2319D02*
X1281Y2319D01*
X1301Y2319D02*
X1323Y2319D01*
X1359Y2319D02*
X1381Y2319D01*
X1401Y2319D02*
X1423Y2319D01*
X558Y2318D02*
X580Y2318D01*
X602Y2318D02*
X624Y2318D01*
X658Y2318D02*
X680Y2318D01*
X702Y2318D02*
X724Y2318D01*
X758Y2318D02*
X780Y2318D01*
X802Y2318D02*
X824Y2318D01*
X1158Y2318D02*
X1180Y2318D01*
X1202Y2318D02*
X1224Y2318D01*
X1258Y2318D02*
X1280Y2318D01*
X1302Y2318D02*
X1324Y2318D01*
X1358Y2318D02*
X1380Y2318D01*
X1402Y2318D02*
X1424Y2318D01*
X558Y2317D02*
X579Y2317D01*
X603Y2317D02*
X624Y2317D01*
X658Y2317D02*
X679Y2317D01*
X703Y2317D02*
X724Y2317D01*
X758Y2317D02*
X779Y2317D01*
X803Y2317D02*
X824Y2317D01*
X1158Y2317D02*
X1179Y2317D01*
X1203Y2317D02*
X1224Y2317D01*
X1258Y2317D02*
X1279Y2317D01*
X1303Y2317D02*
X1324Y2317D01*
X1358Y2317D02*
X1379Y2317D01*
X1403Y2317D02*
X1424Y2317D01*
X558Y2316D02*
X578Y2316D01*
X604Y2316D02*
X624Y2316D01*
X658Y2316D02*
X678Y2316D01*
X704Y2316D02*
X724Y2316D01*
X758Y2316D02*
X778Y2316D01*
X804Y2316D02*
X824Y2316D01*
X1158Y2316D02*
X1178Y2316D01*
X1204Y2316D02*
X1224Y2316D01*
X1258Y2316D02*
X1278Y2316D01*
X1304Y2316D02*
X1324Y2316D01*
X1358Y2316D02*
X1378Y2316D01*
X1404Y2316D02*
X1424Y2316D01*
X558Y2315D02*
X577Y2315D01*
X605Y2315D02*
X625Y2315D01*
X658Y2315D02*
X677Y2315D01*
X705Y2315D02*
X725Y2315D01*
X757Y2315D02*
X777Y2315D01*
X805Y2315D02*
X825Y2315D01*
X1157Y2315D02*
X1177Y2315D01*
X1205Y2315D02*
X1225Y2315D01*
X1257Y2315D02*
X1277Y2315D01*
X1305Y2315D02*
X1325Y2315D01*
X1357Y2315D02*
X1377Y2315D01*
X1405Y2315D02*
X1425Y2315D01*
X557Y2314D02*
X577Y2314D01*
X605Y2314D02*
X625Y2314D01*
X657Y2314D02*
X677Y2314D01*
X705Y2314D02*
X725Y2314D01*
X757Y2314D02*
X777Y2314D01*
X805Y2314D02*
X825Y2314D01*
X1157Y2314D02*
X1177Y2314D01*
X1205Y2314D02*
X1225Y2314D01*
X1257Y2314D02*
X1277Y2314D01*
X1305Y2314D02*
X1325Y2314D01*
X1357Y2314D02*
X1377Y2314D01*
X1405Y2314D02*
X1425Y2314D01*
X557Y2313D02*
X576Y2313D01*
X606Y2313D02*
X625Y2313D01*
X657Y2313D02*
X676Y2313D01*
X706Y2313D02*
X725Y2313D01*
X757Y2313D02*
X776Y2313D01*
X806Y2313D02*
X825Y2313D01*
X1157Y2313D02*
X1176Y2313D01*
X1206Y2313D02*
X1225Y2313D01*
X1257Y2313D02*
X1276Y2313D01*
X1306Y2313D02*
X1325Y2313D01*
X1357Y2313D02*
X1376Y2313D01*
X1406Y2313D02*
X1425Y2313D01*
X557Y2312D02*
X576Y2312D01*
X606Y2312D02*
X625Y2312D01*
X657Y2312D02*
X676Y2312D01*
X706Y2312D02*
X725Y2312D01*
X757Y2312D02*
X776Y2312D01*
X806Y2312D02*
X825Y2312D01*
X1157Y2312D02*
X1176Y2312D01*
X1206Y2312D02*
X1225Y2312D01*
X1257Y2312D02*
X1276Y2312D01*
X1306Y2312D02*
X1325Y2312D01*
X1357Y2312D02*
X1376Y2312D01*
X1406Y2312D02*
X1425Y2312D01*
X557Y2311D02*
X576Y2311D01*
X606Y2311D02*
X625Y2311D01*
X657Y2311D02*
X676Y2311D01*
X706Y2311D02*
X725Y2311D01*
X757Y2311D02*
X776Y2311D01*
X806Y2311D02*
X825Y2311D01*
X1157Y2311D02*
X1176Y2311D01*
X1206Y2311D02*
X1225Y2311D01*
X1257Y2311D02*
X1276Y2311D01*
X1306Y2311D02*
X1325Y2311D01*
X1357Y2311D02*
X1376Y2311D01*
X1406Y2311D02*
X1425Y2311D01*
X557Y2310D02*
X576Y2310D01*
X606Y2310D02*
X625Y2310D01*
X657Y2310D02*
X676Y2310D01*
X706Y2310D02*
X725Y2310D01*
X757Y2310D02*
X776Y2310D01*
X806Y2310D02*
X825Y2310D01*
X1157Y2310D02*
X1176Y2310D01*
X1206Y2310D02*
X1225Y2310D01*
X1257Y2310D02*
X1276Y2310D01*
X1306Y2310D02*
X1325Y2310D01*
X1357Y2310D02*
X1376Y2310D01*
X1406Y2310D02*
X1425Y2310D01*
X557Y2309D02*
X576Y2309D01*
X607Y2309D02*
X626Y2309D01*
X657Y2309D02*
X676Y2309D01*
X706Y2309D02*
X726Y2309D01*
X757Y2309D02*
X776Y2309D01*
X806Y2309D02*
X826Y2309D01*
X1157Y2309D02*
X1176Y2309D01*
X1206Y2309D02*
X1225Y2309D01*
X1257Y2309D02*
X1276Y2309D01*
X1306Y2309D02*
X1325Y2309D01*
X1357Y2309D02*
X1376Y2309D01*
X1406Y2309D02*
X1425Y2309D01*
X557Y2308D02*
X576Y2308D01*
X607Y2308D02*
X626Y2308D01*
X657Y2308D02*
X676Y2308D01*
X707Y2308D02*
X726Y2308D01*
X757Y2308D02*
X776Y2308D01*
X807Y2308D02*
X826Y2308D01*
X1157Y2308D02*
X1176Y2308D01*
X1207Y2308D02*
X1226Y2308D01*
X1257Y2308D02*
X1276Y2308D01*
X1307Y2308D02*
X1326Y2308D01*
X1357Y2308D02*
X1376Y2308D01*
X1407Y2308D02*
X1426Y2308D01*
X557Y2307D02*
X576Y2307D01*
X607Y2307D02*
X626Y2307D01*
X657Y2307D02*
X676Y2307D01*
X707Y2307D02*
X726Y2307D01*
X757Y2307D02*
X776Y2307D01*
X807Y2307D02*
X826Y2307D01*
X1157Y2307D02*
X1176Y2307D01*
X1206Y2307D02*
X1226Y2307D01*
X1257Y2307D02*
X1276Y2307D01*
X1306Y2307D02*
X1325Y2307D01*
X1357Y2307D02*
X1376Y2307D01*
X1406Y2307D02*
X1425Y2307D01*
X557Y2306D02*
X576Y2306D01*
X606Y2306D02*
X626Y2306D01*
X657Y2306D02*
X676Y2306D01*
X706Y2306D02*
X725Y2306D01*
X757Y2306D02*
X776Y2306D01*
X806Y2306D02*
X825Y2306D01*
X1157Y2306D02*
X1176Y2306D01*
X1206Y2306D02*
X1225Y2306D01*
X1257Y2306D02*
X1276Y2306D01*
X1306Y2306D02*
X1325Y2306D01*
X1357Y2306D02*
X1376Y2306D01*
X1406Y2306D02*
X1425Y2306D01*
X557Y2305D02*
X576Y2305D01*
X606Y2305D02*
X625Y2305D01*
X657Y2305D02*
X676Y2305D01*
X706Y2305D02*
X725Y2305D01*
X757Y2305D02*
X776Y2305D01*
X806Y2305D02*
X825Y2305D01*
X1157Y2305D02*
X1176Y2305D01*
X1206Y2305D02*
X1225Y2305D01*
X1257Y2305D02*
X1276Y2305D01*
X1306Y2305D02*
X1325Y2305D01*
X1357Y2305D02*
X1376Y2305D01*
X1406Y2305D02*
X1425Y2305D01*
X557Y2304D02*
X576Y2304D01*
X606Y2304D02*
X625Y2304D01*
X657Y2304D02*
X676Y2304D01*
X706Y2304D02*
X725Y2304D01*
X757Y2304D02*
X776Y2304D01*
X806Y2304D02*
X825Y2304D01*
X1157Y2304D02*
X1176Y2304D01*
X1206Y2304D02*
X1225Y2304D01*
X1257Y2304D02*
X1276Y2304D01*
X1306Y2304D02*
X1325Y2304D01*
X1357Y2304D02*
X1376Y2304D01*
X1406Y2304D02*
X1425Y2304D01*
X557Y2303D02*
X576Y2303D01*
X606Y2303D02*
X625Y2303D01*
X657Y2303D02*
X676Y2303D01*
X706Y2303D02*
X725Y2303D01*
X757Y2303D02*
X776Y2303D01*
X806Y2303D02*
X825Y2303D01*
X1157Y2303D02*
X1176Y2303D01*
X1206Y2303D02*
X1225Y2303D01*
X1257Y2303D02*
X1276Y2303D01*
X1306Y2303D02*
X1325Y2303D01*
X1357Y2303D02*
X1376Y2303D01*
X1406Y2303D02*
X1425Y2303D01*
X557Y2302D02*
X577Y2302D01*
X606Y2302D02*
X625Y2302D01*
X657Y2302D02*
X677Y2302D01*
X706Y2302D02*
X725Y2302D01*
X757Y2302D02*
X777Y2302D01*
X806Y2302D02*
X825Y2302D01*
X1157Y2302D02*
X1177Y2302D01*
X1206Y2302D02*
X1225Y2302D01*
X1257Y2302D02*
X1276Y2302D01*
X1306Y2302D02*
X1325Y2302D01*
X1357Y2302D02*
X1376Y2302D01*
X1406Y2302D02*
X1425Y2302D01*
X557Y2301D02*
X577Y2301D01*
X605Y2301D02*
X625Y2301D01*
X657Y2301D02*
X677Y2301D01*
X705Y2301D02*
X725Y2301D01*
X757Y2301D02*
X777Y2301D01*
X805Y2301D02*
X825Y2301D01*
X1157Y2301D02*
X1177Y2301D01*
X1205Y2301D02*
X1225Y2301D01*
X1257Y2301D02*
X1277Y2301D01*
X1305Y2301D02*
X1325Y2301D01*
X1357Y2301D02*
X1377Y2301D01*
X1405Y2301D02*
X1425Y2301D01*
X558Y2300D02*
X578Y2300D01*
X605Y2300D02*
X625Y2300D01*
X658Y2300D02*
X678Y2300D01*
X705Y2300D02*
X725Y2300D01*
X758Y2300D02*
X778Y2300D01*
X805Y2300D02*
X825Y2300D01*
X1158Y2300D02*
X1178Y2300D01*
X1205Y2300D02*
X1225Y2300D01*
X1258Y2300D02*
X1278Y2300D01*
X1305Y2300D02*
X1325Y2300D01*
X1358Y2300D02*
X1378Y2300D01*
X1405Y2300D02*
X1425Y2300D01*
X558Y2299D02*
X578Y2299D01*
X604Y2299D02*
X624Y2299D01*
X658Y2299D02*
X678Y2299D01*
X704Y2299D02*
X724Y2299D01*
X758Y2299D02*
X778Y2299D01*
X804Y2299D02*
X824Y2299D01*
X1158Y2299D02*
X1178Y2299D01*
X1204Y2299D02*
X1224Y2299D01*
X1258Y2299D02*
X1278Y2299D01*
X1304Y2299D02*
X1324Y2299D01*
X1358Y2299D02*
X1378Y2299D01*
X1404Y2299D02*
X1424Y2299D01*
X558Y2298D02*
X579Y2298D01*
X603Y2298D02*
X624Y2298D01*
X658Y2298D02*
X679Y2298D01*
X703Y2298D02*
X724Y2298D01*
X758Y2298D02*
X779Y2298D01*
X803Y2298D02*
X824Y2298D01*
X1158Y2298D02*
X1179Y2298D01*
X1203Y2298D02*
X1224Y2298D01*
X1258Y2298D02*
X1279Y2298D01*
X1303Y2298D02*
X1324Y2298D01*
X1358Y2298D02*
X1379Y2298D01*
X1403Y2298D02*
X1424Y2298D01*
X558Y2297D02*
X580Y2297D01*
X602Y2297D02*
X624Y2297D01*
X658Y2297D02*
X680Y2297D01*
X702Y2297D02*
X724Y2297D01*
X758Y2297D02*
X780Y2297D01*
X802Y2297D02*
X824Y2297D01*
X1158Y2297D02*
X1180Y2297D01*
X1202Y2297D02*
X1224Y2297D01*
X1258Y2297D02*
X1280Y2297D01*
X1302Y2297D02*
X1324Y2297D01*
X1358Y2297D02*
X1380Y2297D01*
X1402Y2297D02*
X1424Y2297D01*
X559Y2296D02*
X581Y2296D01*
X601Y2296D02*
X623Y2296D01*
X659Y2296D02*
X681Y2296D01*
X701Y2296D02*
X723Y2296D01*
X759Y2296D02*
X781Y2296D01*
X801Y2296D02*
X823Y2296D01*
X1159Y2296D02*
X1181Y2296D01*
X1201Y2296D02*
X1223Y2296D01*
X1259Y2296D02*
X1281Y2296D01*
X1301Y2296D02*
X1323Y2296D01*
X1359Y2296D02*
X1381Y2296D01*
X1401Y2296D02*
X1423Y2296D01*
X559Y2295D02*
X582Y2295D01*
X600Y2295D02*
X623Y2295D01*
X659Y2295D02*
X682Y2295D01*
X700Y2295D02*
X723Y2295D01*
X759Y2295D02*
X782Y2295D01*
X800Y2295D02*
X823Y2295D01*
X1159Y2295D02*
X1182Y2295D01*
X1200Y2295D02*
X1223Y2295D01*
X1259Y2295D02*
X1282Y2295D01*
X1300Y2295D02*
X1323Y2295D01*
X1359Y2295D02*
X1382Y2295D01*
X1400Y2295D02*
X1423Y2295D01*
X560Y2294D02*
X584Y2294D01*
X598Y2294D02*
X623Y2294D01*
X660Y2294D02*
X684Y2294D01*
X698Y2294D02*
X723Y2294D01*
X760Y2294D02*
X784Y2294D01*
X798Y2294D02*
X823Y2294D01*
X1160Y2294D02*
X1184Y2294D01*
X1198Y2294D02*
X1223Y2294D01*
X1260Y2294D02*
X1284Y2294D01*
X1298Y2294D02*
X1323Y2294D01*
X1360Y2294D02*
X1384Y2294D01*
X1398Y2294D02*
X1423Y2294D01*
X560Y2293D02*
X587Y2293D01*
X595Y2293D02*
X622Y2293D01*
X660Y2293D02*
X687Y2293D01*
X695Y2293D02*
X722Y2293D01*
X760Y2293D02*
X787Y2293D01*
X795Y2293D02*
X822Y2293D01*
X1160Y2293D02*
X1187Y2293D01*
X1195Y2293D02*
X1222Y2293D01*
X1260Y2293D02*
X1287Y2293D01*
X1295Y2293D02*
X1322Y2293D01*
X1360Y2293D02*
X1387Y2293D01*
X1395Y2293D02*
X1422Y2293D01*
X561Y2292D02*
X622Y2292D01*
X661Y2292D02*
X722Y2292D01*
X761Y2292D02*
X822Y2292D01*
X1160Y2292D02*
X1222Y2292D01*
X1260Y2292D02*
X1322Y2292D01*
X1360Y2292D02*
X1422Y2292D01*
X561Y2291D02*
X621Y2291D01*
X661Y2291D02*
X721Y2291D01*
X761Y2291D02*
X821Y2291D01*
X1161Y2291D02*
X1221Y2291D01*
X1261Y2291D02*
X1321Y2291D01*
X1361Y2291D02*
X1421Y2291D01*
X562Y2290D02*
X621Y2290D01*
X662Y2290D02*
X721Y2290D01*
X762Y2290D02*
X821Y2290D01*
X1162Y2290D02*
X1221Y2290D01*
X1262Y2290D02*
X1321Y2290D01*
X1362Y2290D02*
X1421Y2290D01*
X562Y2289D02*
X620Y2289D01*
X662Y2289D02*
X720Y2289D01*
X762Y2289D02*
X820Y2289D01*
X1162Y2289D02*
X1220Y2289D01*
X1262Y2289D02*
X1320Y2289D01*
X1362Y2289D02*
X1420Y2289D01*
X563Y2288D02*
X619Y2288D01*
X663Y2288D02*
X719Y2288D01*
X763Y2288D02*
X819Y2288D01*
X1163Y2288D02*
X1219Y2288D01*
X1263Y2288D02*
X1319Y2288D01*
X1363Y2288D02*
X1419Y2288D01*
X564Y2287D02*
X619Y2287D01*
X664Y2287D02*
X719Y2287D01*
X763Y2287D02*
X819Y2287D01*
X1163Y2287D02*
X1219Y2287D01*
X1263Y2287D02*
X1319Y2287D01*
X1363Y2287D02*
X1419Y2287D01*
X564Y2286D02*
X618Y2286D01*
X664Y2286D02*
X718Y2286D01*
X764Y2286D02*
X818Y2286D01*
X1164Y2286D02*
X1218Y2286D01*
X1264Y2286D02*
X1318Y2286D01*
X1364Y2286D02*
X1418Y2286D01*
X565Y2285D02*
X617Y2285D01*
X665Y2285D02*
X717Y2285D01*
X765Y2285D02*
X817Y2285D01*
X1165Y2285D02*
X1217Y2285D01*
X1265Y2285D02*
X1317Y2285D01*
X1365Y2285D02*
X1417Y2285D01*
X566Y2284D02*
X616Y2284D01*
X666Y2284D02*
X716Y2284D01*
X766Y2284D02*
X816Y2284D01*
X1166Y2284D02*
X1216Y2284D01*
X1266Y2284D02*
X1316Y2284D01*
X1366Y2284D02*
X1416Y2284D01*
X567Y2283D02*
X615Y2283D01*
X667Y2283D02*
X715Y2283D01*
X767Y2283D02*
X815Y2283D01*
X1167Y2283D02*
X1215Y2283D01*
X1267Y2283D02*
X1315Y2283D01*
X1367Y2283D02*
X1415Y2283D01*
X568Y2282D02*
X614Y2282D01*
X668Y2282D02*
X714Y2282D01*
X768Y2282D02*
X814Y2282D01*
X1168Y2282D02*
X1214Y2282D01*
X1268Y2282D02*
X1314Y2282D01*
X1368Y2282D02*
X1414Y2282D01*
X569Y2281D02*
X613Y2281D01*
X669Y2281D02*
X713Y2281D01*
X769Y2281D02*
X813Y2281D01*
X1169Y2281D02*
X1213Y2281D01*
X1269Y2281D02*
X1313Y2281D01*
X1369Y2281D02*
X1413Y2281D01*
X570Y2280D02*
X612Y2280D01*
X670Y2280D02*
X712Y2280D01*
X770Y2280D02*
X812Y2280D01*
X1170Y2280D02*
X1212Y2280D01*
X1270Y2280D02*
X1312Y2280D01*
X1370Y2280D02*
X1412Y2280D01*
X572Y2279D02*
X610Y2279D01*
X672Y2279D02*
X710Y2279D01*
X772Y2279D02*
X810Y2279D01*
X1172Y2279D02*
X1210Y2279D01*
X1272Y2279D02*
X1310Y2279D01*
X1372Y2279D02*
X1410Y2279D01*
X573Y2278D02*
X609Y2278D01*
X673Y2278D02*
X709Y2278D01*
X773Y2278D02*
X809Y2278D01*
X1173Y2278D02*
X1209Y2278D01*
X1273Y2278D02*
X1309Y2278D01*
X1373Y2278D02*
X1409Y2278D01*
X575Y2277D02*
X607Y2277D01*
X675Y2277D02*
X707Y2277D01*
X775Y2277D02*
X807Y2277D01*
X1175Y2277D02*
X1207Y2277D01*
X1275Y2277D02*
X1307Y2277D01*
X1375Y2277D02*
X1407Y2277D01*
X577Y2276D02*
X605Y2276D01*
X677Y2276D02*
X705Y2276D01*
X777Y2276D02*
X805Y2276D01*
X1177Y2276D02*
X1205Y2276D01*
X1277Y2276D02*
X1305Y2276D01*
X1377Y2276D02*
X1405Y2276D01*
X580Y2275D02*
X603Y2275D01*
X680Y2275D02*
X702Y2275D01*
X780Y2275D02*
X802Y2275D01*
X1180Y2275D02*
X1202Y2275D01*
X1280Y2275D02*
X1302Y2275D01*
X1380Y2275D02*
X1402Y2275D01*
X583Y2274D02*
X599Y2274D01*
X683Y2274D02*
X699Y2274D01*
X783Y2274D02*
X799Y2274D01*
X1183Y2274D02*
X1199Y2274D01*
X1283Y2274D02*
X1299Y2274D01*
X1383Y2274D02*
X1399Y2274D01*
X587Y2273D02*
X595Y2273D01*
X687Y2273D02*
X695Y2273D01*
X787Y2273D02*
X795Y2273D01*
X1187Y2273D02*
X1195Y2273D01*
X1287Y2273D02*
X1295Y2273D01*
X1387Y2273D02*
X1395Y2273D01*
X585Y1742D02*
X597Y1742D01*
X685Y1742D02*
X697Y1742D01*
X785Y1742D02*
X797Y1742D01*
X1185Y1742D02*
X1197Y1742D01*
X1285Y1742D02*
X1297Y1742D01*
X1385Y1742D02*
X1397Y1742D01*
X581Y1741D02*
X601Y1741D01*
X681Y1741D02*
X701Y1741D01*
X781Y1741D02*
X801Y1741D01*
X1181Y1741D02*
X1201Y1741D01*
X1281Y1741D02*
X1301Y1741D01*
X1381Y1741D02*
X1401Y1741D01*
X579Y1740D02*
X604Y1740D01*
X679Y1740D02*
X704Y1740D01*
X779Y1740D02*
X804Y1740D01*
X1179Y1740D02*
X1204Y1740D01*
X1279Y1740D02*
X1304Y1740D01*
X1379Y1740D02*
X1404Y1740D01*
X576Y1739D02*
X606Y1739D01*
X676Y1739D02*
X706Y1739D01*
X776Y1739D02*
X806Y1739D01*
X1176Y1739D02*
X1206Y1739D01*
X1276Y1739D02*
X1306Y1739D01*
X1376Y1739D02*
X1406Y1739D01*
X574Y1738D02*
X608Y1738D01*
X674Y1738D02*
X708Y1738D01*
X774Y1738D02*
X808Y1738D01*
X1174Y1738D02*
X1208Y1738D01*
X1274Y1738D02*
X1308Y1738D01*
X1374Y1738D02*
X1408Y1738D01*
X573Y1737D02*
X610Y1737D01*
X673Y1737D02*
X710Y1737D01*
X773Y1737D02*
X809Y1737D01*
X1173Y1737D02*
X1209Y1737D01*
X1273Y1737D02*
X1309Y1737D01*
X1373Y1737D02*
X1409Y1737D01*
X571Y1736D02*
X611Y1736D01*
X671Y1736D02*
X711Y1736D01*
X771Y1736D02*
X811Y1736D01*
X1171Y1736D02*
X1211Y1736D01*
X1271Y1736D02*
X1311Y1736D01*
X1371Y1736D02*
X1411Y1736D01*
X570Y1735D02*
X612Y1735D01*
X670Y1735D02*
X712Y1735D01*
X770Y1735D02*
X812Y1735D01*
X1170Y1735D02*
X1212Y1735D01*
X1270Y1735D02*
X1312Y1735D01*
X1370Y1735D02*
X1412Y1735D01*
X569Y1734D02*
X614Y1734D01*
X669Y1734D02*
X714Y1734D01*
X769Y1734D02*
X814Y1734D01*
X1169Y1734D02*
X1214Y1734D01*
X1268Y1734D02*
X1314Y1734D01*
X1368Y1734D02*
X1414Y1734D01*
X567Y1733D02*
X615Y1733D01*
X667Y1733D02*
X715Y1733D01*
X767Y1733D02*
X815Y1733D01*
X1167Y1733D02*
X1215Y1733D01*
X1267Y1733D02*
X1315Y1733D01*
X1367Y1733D02*
X1415Y1733D01*
X566Y1732D02*
X616Y1732D01*
X666Y1732D02*
X716Y1732D01*
X766Y1732D02*
X816Y1732D01*
X1166Y1732D02*
X1216Y1732D01*
X1266Y1732D02*
X1316Y1732D01*
X1366Y1732D02*
X1416Y1732D01*
X566Y1731D02*
X617Y1731D01*
X666Y1731D02*
X717Y1731D01*
X766Y1731D02*
X817Y1731D01*
X1165Y1731D02*
X1217Y1731D01*
X1265Y1731D02*
X1317Y1731D01*
X1365Y1731D02*
X1417Y1731D01*
X565Y1730D02*
X618Y1730D01*
X665Y1730D02*
X718Y1730D01*
X765Y1730D02*
X818Y1730D01*
X1165Y1730D02*
X1217Y1730D01*
X1265Y1730D02*
X1317Y1730D01*
X1365Y1730D02*
X1417Y1730D01*
X564Y1729D02*
X618Y1729D01*
X664Y1729D02*
X718Y1729D01*
X764Y1729D02*
X818Y1729D01*
X1164Y1729D02*
X1218Y1729D01*
X1264Y1729D02*
X1318Y1729D01*
X1364Y1729D02*
X1418Y1729D01*
X563Y1728D02*
X619Y1728D01*
X663Y1728D02*
X719Y1728D01*
X763Y1728D02*
X819Y1728D01*
X1163Y1728D02*
X1219Y1728D01*
X1263Y1728D02*
X1319Y1728D01*
X1363Y1728D02*
X1419Y1728D01*
X563Y1727D02*
X620Y1727D01*
X663Y1727D02*
X720Y1727D01*
X763Y1727D02*
X820Y1727D01*
X1162Y1727D02*
X1220Y1727D01*
X1262Y1727D02*
X1320Y1727D01*
X1362Y1727D02*
X1420Y1727D01*
X562Y1726D02*
X620Y1726D01*
X662Y1726D02*
X720Y1726D01*
X762Y1726D02*
X820Y1726D01*
X1162Y1726D02*
X1220Y1726D01*
X1262Y1726D02*
X1320Y1726D01*
X1362Y1726D02*
X1420Y1726D01*
X561Y1725D02*
X621Y1725D01*
X661Y1725D02*
X721Y1725D01*
X761Y1725D02*
X821Y1725D01*
X1161Y1725D02*
X1221Y1725D01*
X1261Y1725D02*
X1321Y1725D01*
X1361Y1725D02*
X1421Y1725D01*
X561Y1724D02*
X621Y1724D01*
X661Y1724D02*
X721Y1724D01*
X761Y1724D02*
X821Y1724D01*
X1161Y1724D02*
X1221Y1724D01*
X1261Y1724D02*
X1321Y1724D01*
X1361Y1724D02*
X1421Y1724D01*
X560Y1723D02*
X622Y1723D01*
X660Y1723D02*
X722Y1723D01*
X760Y1723D02*
X822Y1723D01*
X1160Y1723D02*
X1222Y1723D01*
X1260Y1723D02*
X1322Y1723D01*
X1360Y1723D02*
X1422Y1723D01*
X560Y1722D02*
X586Y1722D01*
X597Y1722D02*
X622Y1722D01*
X660Y1722D02*
X686Y1722D01*
X697Y1722D02*
X722Y1722D01*
X760Y1722D02*
X786Y1722D01*
X797Y1722D02*
X822Y1722D01*
X1160Y1722D02*
X1186Y1722D01*
X1197Y1722D02*
X1222Y1722D01*
X1260Y1722D02*
X1286Y1722D01*
X1296Y1722D02*
X1322Y1722D01*
X1360Y1722D02*
X1386Y1722D01*
X1396Y1722D02*
X1422Y1722D01*
X559Y1721D02*
X583Y1721D01*
X599Y1721D02*
X623Y1721D01*
X659Y1721D02*
X683Y1721D01*
X699Y1721D02*
X723Y1721D01*
X759Y1721D02*
X783Y1721D01*
X799Y1721D02*
X823Y1721D01*
X1159Y1721D02*
X1183Y1721D01*
X1199Y1721D02*
X1223Y1721D01*
X1259Y1721D02*
X1283Y1721D01*
X1299Y1721D02*
X1323Y1721D01*
X1359Y1721D02*
X1383Y1721D01*
X1399Y1721D02*
X1423Y1721D01*
X559Y1720D02*
X582Y1720D01*
X600Y1720D02*
X623Y1720D01*
X659Y1720D02*
X682Y1720D01*
X700Y1720D02*
X723Y1720D01*
X759Y1720D02*
X782Y1720D01*
X800Y1720D02*
X823Y1720D01*
X1159Y1720D02*
X1182Y1720D01*
X1200Y1720D02*
X1223Y1720D01*
X1259Y1720D02*
X1282Y1720D01*
X1300Y1720D02*
X1323Y1720D01*
X1359Y1720D02*
X1382Y1720D01*
X1400Y1720D02*
X1423Y1720D01*
X559Y1719D02*
X581Y1719D01*
X601Y1719D02*
X624Y1719D01*
X659Y1719D02*
X681Y1719D01*
X701Y1719D02*
X724Y1719D01*
X759Y1719D02*
X781Y1719D01*
X801Y1719D02*
X824Y1719D01*
X1159Y1719D02*
X1181Y1719D01*
X1201Y1719D02*
X1223Y1719D01*
X1259Y1719D02*
X1281Y1719D01*
X1301Y1719D02*
X1323Y1719D01*
X1359Y1719D02*
X1381Y1719D01*
X1401Y1719D02*
X1423Y1719D01*
X558Y1718D02*
X580Y1718D01*
X603Y1718D02*
X624Y1718D01*
X658Y1718D02*
X680Y1718D01*
X702Y1718D02*
X724Y1718D01*
X758Y1718D02*
X780Y1718D01*
X802Y1718D02*
X824Y1718D01*
X1158Y1718D02*
X1180Y1718D01*
X1202Y1718D02*
X1224Y1718D01*
X1258Y1718D02*
X1280Y1718D01*
X1302Y1718D02*
X1324Y1718D01*
X1358Y1718D02*
X1380Y1718D01*
X1402Y1718D02*
X1424Y1718D01*
X558Y1717D02*
X579Y1717D01*
X603Y1717D02*
X624Y1717D01*
X658Y1717D02*
X679Y1717D01*
X703Y1717D02*
X724Y1717D01*
X758Y1717D02*
X779Y1717D01*
X803Y1717D02*
X824Y1717D01*
X1158Y1717D02*
X1179Y1717D01*
X1203Y1717D02*
X1224Y1717D01*
X1258Y1717D02*
X1279Y1717D01*
X1303Y1717D02*
X1324Y1717D01*
X1358Y1717D02*
X1379Y1717D01*
X1403Y1717D02*
X1424Y1717D01*
X558Y1716D02*
X578Y1716D01*
X604Y1716D02*
X624Y1716D01*
X658Y1716D02*
X678Y1716D01*
X704Y1716D02*
X724Y1716D01*
X758Y1716D02*
X778Y1716D01*
X804Y1716D02*
X824Y1716D01*
X1158Y1716D02*
X1178Y1716D01*
X1204Y1716D02*
X1224Y1716D01*
X1258Y1716D02*
X1278Y1716D01*
X1304Y1716D02*
X1324Y1716D01*
X1358Y1716D02*
X1378Y1716D01*
X1404Y1716D02*
X1424Y1716D01*
X557Y1715D02*
X577Y1715D01*
X605Y1715D02*
X625Y1715D01*
X657Y1715D02*
X677Y1715D01*
X705Y1715D02*
X725Y1715D01*
X757Y1715D02*
X777Y1715D01*
X805Y1715D02*
X825Y1715D01*
X1157Y1715D02*
X1177Y1715D01*
X1205Y1715D02*
X1225Y1715D01*
X1257Y1715D02*
X1277Y1715D01*
X1305Y1715D02*
X1325Y1715D01*
X1357Y1715D02*
X1377Y1715D01*
X1405Y1715D02*
X1425Y1715D01*
X557Y1714D02*
X577Y1714D01*
X605Y1714D02*
X625Y1714D01*
X657Y1714D02*
X677Y1714D01*
X705Y1714D02*
X725Y1714D01*
X757Y1714D02*
X777Y1714D01*
X805Y1714D02*
X825Y1714D01*
X1157Y1714D02*
X1177Y1714D01*
X1205Y1714D02*
X1225Y1714D01*
X1257Y1714D02*
X1277Y1714D01*
X1305Y1714D02*
X1325Y1714D01*
X1357Y1714D02*
X1377Y1714D01*
X1405Y1714D02*
X1425Y1714D01*
X557Y1713D02*
X576Y1713D01*
X606Y1713D02*
X625Y1713D01*
X657Y1713D02*
X676Y1713D01*
X706Y1713D02*
X725Y1713D01*
X757Y1713D02*
X776Y1713D01*
X806Y1713D02*
X825Y1713D01*
X1157Y1713D02*
X1176Y1713D01*
X1206Y1713D02*
X1225Y1713D01*
X1257Y1713D02*
X1276Y1713D01*
X1306Y1713D02*
X1325Y1713D01*
X1357Y1713D02*
X1376Y1713D01*
X1406Y1713D02*
X1425Y1713D01*
X557Y1712D02*
X576Y1712D01*
X606Y1712D02*
X625Y1712D01*
X657Y1712D02*
X676Y1712D01*
X706Y1712D02*
X725Y1712D01*
X757Y1712D02*
X776Y1712D01*
X806Y1712D02*
X825Y1712D01*
X1157Y1712D02*
X1176Y1712D01*
X1206Y1712D02*
X1225Y1712D01*
X1257Y1712D02*
X1276Y1712D01*
X1306Y1712D02*
X1325Y1712D01*
X1357Y1712D02*
X1376Y1712D01*
X1406Y1712D02*
X1425Y1712D01*
X557Y1711D02*
X576Y1711D01*
X606Y1711D02*
X625Y1711D01*
X657Y1711D02*
X676Y1711D01*
X706Y1711D02*
X725Y1711D01*
X757Y1711D02*
X776Y1711D01*
X806Y1711D02*
X825Y1711D01*
X1157Y1711D02*
X1176Y1711D01*
X1206Y1711D02*
X1225Y1711D01*
X1257Y1711D02*
X1276Y1711D01*
X1306Y1711D02*
X1325Y1711D01*
X1357Y1711D02*
X1376Y1711D01*
X1406Y1711D02*
X1425Y1711D01*
X557Y1710D02*
X576Y1710D01*
X606Y1710D02*
X625Y1710D01*
X657Y1710D02*
X676Y1710D01*
X706Y1710D02*
X725Y1710D01*
X757Y1710D02*
X776Y1710D01*
X806Y1710D02*
X825Y1710D01*
X1157Y1710D02*
X1176Y1710D01*
X1206Y1710D02*
X1225Y1710D01*
X1257Y1710D02*
X1276Y1710D01*
X1306Y1710D02*
X1325Y1710D01*
X1357Y1710D02*
X1376Y1710D01*
X1406Y1710D02*
X1425Y1710D01*
X557Y1709D02*
X576Y1709D01*
X607Y1709D02*
X626Y1709D01*
X657Y1709D02*
X676Y1709D01*
X706Y1709D02*
X726Y1709D01*
X757Y1709D02*
X776Y1709D01*
X806Y1709D02*
X826Y1709D01*
X1157Y1709D02*
X1176Y1709D01*
X1206Y1709D02*
X1225Y1709D01*
X1257Y1709D02*
X1276Y1709D01*
X1306Y1709D02*
X1325Y1709D01*
X1357Y1709D02*
X1376Y1709D01*
X1406Y1709D02*
X1425Y1709D01*
X557Y1708D02*
X576Y1708D01*
X607Y1708D02*
X626Y1708D01*
X657Y1708D02*
X676Y1708D01*
X707Y1708D02*
X726Y1708D01*
X757Y1708D02*
X776Y1708D01*
X807Y1708D02*
X826Y1708D01*
X1157Y1708D02*
X1176Y1708D01*
X1207Y1708D02*
X1226Y1708D01*
X1257Y1708D02*
X1276Y1708D01*
X1307Y1708D02*
X1326Y1708D01*
X1357Y1708D02*
X1376Y1708D01*
X1407Y1708D02*
X1426Y1708D01*
X557Y1707D02*
X576Y1707D01*
X607Y1707D02*
X626Y1707D01*
X657Y1707D02*
X676Y1707D01*
X707Y1707D02*
X726Y1707D01*
X757Y1707D02*
X776Y1707D01*
X807Y1707D02*
X826Y1707D01*
X1157Y1707D02*
X1176Y1707D01*
X1206Y1707D02*
X1226Y1707D01*
X1257Y1707D02*
X1276Y1707D01*
X1306Y1707D02*
X1325Y1707D01*
X1357Y1707D02*
X1376Y1707D01*
X1406Y1707D02*
X1425Y1707D01*
X557Y1706D02*
X576Y1706D01*
X606Y1706D02*
X626Y1706D01*
X657Y1706D02*
X676Y1706D01*
X706Y1706D02*
X725Y1706D01*
X757Y1706D02*
X776Y1706D01*
X806Y1706D02*
X825Y1706D01*
X1157Y1706D02*
X1176Y1706D01*
X1206Y1706D02*
X1225Y1706D01*
X1257Y1706D02*
X1276Y1706D01*
X1306Y1706D02*
X1325Y1706D01*
X1357Y1706D02*
X1376Y1706D01*
X1406Y1706D02*
X1425Y1706D01*
X557Y1705D02*
X576Y1705D01*
X606Y1705D02*
X625Y1705D01*
X657Y1705D02*
X676Y1705D01*
X706Y1705D02*
X725Y1705D01*
X757Y1705D02*
X776Y1705D01*
X806Y1705D02*
X825Y1705D01*
X1157Y1705D02*
X1176Y1705D01*
X1206Y1705D02*
X1225Y1705D01*
X1257Y1705D02*
X1276Y1705D01*
X1306Y1705D02*
X1325Y1705D01*
X1357Y1705D02*
X1376Y1705D01*
X1406Y1705D02*
X1425Y1705D01*
X557Y1704D02*
X576Y1704D01*
X606Y1704D02*
X625Y1704D01*
X657Y1704D02*
X676Y1704D01*
X706Y1704D02*
X725Y1704D01*
X757Y1704D02*
X776Y1704D01*
X806Y1704D02*
X825Y1704D01*
X1157Y1704D02*
X1176Y1704D01*
X1206Y1704D02*
X1225Y1704D01*
X1257Y1704D02*
X1276Y1704D01*
X1306Y1704D02*
X1325Y1704D01*
X1357Y1704D02*
X1376Y1704D01*
X1406Y1704D02*
X1425Y1704D01*
X557Y1703D02*
X576Y1703D01*
X606Y1703D02*
X625Y1703D01*
X657Y1703D02*
X676Y1703D01*
X706Y1703D02*
X725Y1703D01*
X757Y1703D02*
X776Y1703D01*
X806Y1703D02*
X825Y1703D01*
X1157Y1703D02*
X1176Y1703D01*
X1206Y1703D02*
X1225Y1703D01*
X1257Y1703D02*
X1276Y1703D01*
X1306Y1703D02*
X1325Y1703D01*
X1357Y1703D02*
X1376Y1703D01*
X1406Y1703D02*
X1425Y1703D01*
X557Y1702D02*
X577Y1702D01*
X606Y1702D02*
X625Y1702D01*
X657Y1702D02*
X677Y1702D01*
X706Y1702D02*
X725Y1702D01*
X757Y1702D02*
X777Y1702D01*
X806Y1702D02*
X825Y1702D01*
X1157Y1702D02*
X1177Y1702D01*
X1206Y1702D02*
X1225Y1702D01*
X1257Y1702D02*
X1277Y1702D01*
X1306Y1702D02*
X1325Y1702D01*
X1357Y1702D02*
X1376Y1702D01*
X1406Y1702D02*
X1425Y1702D01*
X557Y1701D02*
X577Y1701D01*
X605Y1701D02*
X625Y1701D01*
X657Y1701D02*
X677Y1701D01*
X705Y1701D02*
X725Y1701D01*
X757Y1701D02*
X777Y1701D01*
X805Y1701D02*
X825Y1701D01*
X1157Y1701D02*
X1177Y1701D01*
X1205Y1701D02*
X1225Y1701D01*
X1257Y1701D02*
X1277Y1701D01*
X1305Y1701D02*
X1325Y1701D01*
X1357Y1701D02*
X1377Y1701D01*
X1405Y1701D02*
X1425Y1701D01*
X558Y1700D02*
X578Y1700D01*
X605Y1700D02*
X625Y1700D01*
X658Y1700D02*
X678Y1700D01*
X705Y1700D02*
X725Y1700D01*
X758Y1700D02*
X778Y1700D01*
X805Y1700D02*
X825Y1700D01*
X1158Y1700D02*
X1178Y1700D01*
X1205Y1700D02*
X1225Y1700D01*
X1258Y1700D02*
X1278Y1700D01*
X1304Y1700D02*
X1325Y1700D01*
X1358Y1700D02*
X1378Y1700D01*
X1404Y1700D02*
X1425Y1700D01*
X558Y1699D02*
X578Y1699D01*
X604Y1699D02*
X624Y1699D01*
X658Y1699D02*
X678Y1699D01*
X704Y1699D02*
X724Y1699D01*
X758Y1699D02*
X778Y1699D01*
X804Y1699D02*
X824Y1699D01*
X1158Y1699D02*
X1178Y1699D01*
X1204Y1699D02*
X1224Y1699D01*
X1258Y1699D02*
X1278Y1699D01*
X1304Y1699D02*
X1324Y1699D01*
X1358Y1699D02*
X1378Y1699D01*
X1404Y1699D02*
X1424Y1699D01*
X558Y1698D02*
X579Y1698D01*
X603Y1698D02*
X624Y1698D01*
X658Y1698D02*
X679Y1698D01*
X703Y1698D02*
X724Y1698D01*
X758Y1698D02*
X779Y1698D01*
X803Y1698D02*
X824Y1698D01*
X1158Y1698D02*
X1179Y1698D01*
X1203Y1698D02*
X1224Y1698D01*
X1258Y1698D02*
X1279Y1698D01*
X1303Y1698D02*
X1324Y1698D01*
X1358Y1698D02*
X1379Y1698D01*
X1403Y1698D02*
X1424Y1698D01*
X558Y1697D02*
X580Y1697D01*
X602Y1697D02*
X624Y1697D01*
X658Y1697D02*
X680Y1697D01*
X702Y1697D02*
X724Y1697D01*
X758Y1697D02*
X780Y1697D01*
X802Y1697D02*
X824Y1697D01*
X1158Y1697D02*
X1180Y1697D01*
X1202Y1697D02*
X1224Y1697D01*
X1258Y1697D02*
X1280Y1697D01*
X1302Y1697D02*
X1324Y1697D01*
X1358Y1697D02*
X1380Y1697D01*
X1402Y1697D02*
X1424Y1697D01*
X559Y1696D02*
X581Y1696D01*
X601Y1696D02*
X623Y1696D01*
X659Y1696D02*
X681Y1696D01*
X701Y1696D02*
X723Y1696D01*
X759Y1696D02*
X781Y1696D01*
X801Y1696D02*
X823Y1696D01*
X1159Y1696D02*
X1181Y1696D01*
X1201Y1696D02*
X1223Y1696D01*
X1259Y1696D02*
X1281Y1696D01*
X1301Y1696D02*
X1323Y1696D01*
X1359Y1696D02*
X1381Y1696D01*
X1401Y1696D02*
X1423Y1696D01*
X559Y1695D02*
X583Y1695D01*
X600Y1695D02*
X623Y1695D01*
X659Y1695D02*
X683Y1695D01*
X700Y1695D02*
X723Y1695D01*
X759Y1695D02*
X783Y1695D01*
X800Y1695D02*
X823Y1695D01*
X1159Y1695D02*
X1182Y1695D01*
X1200Y1695D02*
X1223Y1695D01*
X1259Y1695D02*
X1282Y1695D01*
X1300Y1695D02*
X1323Y1695D01*
X1359Y1695D02*
X1382Y1695D01*
X1400Y1695D02*
X1423Y1695D01*
X560Y1694D02*
X584Y1694D01*
X598Y1694D02*
X623Y1694D01*
X660Y1694D02*
X684Y1694D01*
X698Y1694D02*
X723Y1694D01*
X760Y1694D02*
X784Y1694D01*
X798Y1694D02*
X823Y1694D01*
X1160Y1694D02*
X1184Y1694D01*
X1198Y1694D02*
X1223Y1694D01*
X1260Y1694D02*
X1284Y1694D01*
X1298Y1694D02*
X1323Y1694D01*
X1360Y1694D02*
X1384Y1694D01*
X1398Y1694D02*
X1423Y1694D01*
X560Y1693D02*
X587Y1693D01*
X595Y1693D02*
X622Y1693D01*
X660Y1693D02*
X687Y1693D01*
X695Y1693D02*
X722Y1693D01*
X760Y1693D02*
X787Y1693D01*
X795Y1693D02*
X822Y1693D01*
X1160Y1693D02*
X1187Y1693D01*
X1195Y1693D02*
X1222Y1693D01*
X1260Y1693D02*
X1287Y1693D01*
X1295Y1693D02*
X1322Y1693D01*
X1360Y1693D02*
X1387Y1693D01*
X1395Y1693D02*
X1422Y1693D01*
X561Y1692D02*
X622Y1692D01*
X661Y1692D02*
X722Y1692D01*
X761Y1692D02*
X822Y1692D01*
X1161Y1692D02*
X1222Y1692D01*
X1260Y1692D02*
X1322Y1692D01*
X1360Y1692D02*
X1422Y1692D01*
X561Y1691D02*
X621Y1691D01*
X661Y1691D02*
X721Y1691D01*
X761Y1691D02*
X821Y1691D01*
X1161Y1691D02*
X1221Y1691D01*
X1261Y1691D02*
X1321Y1691D01*
X1361Y1691D02*
X1421Y1691D01*
X562Y1690D02*
X621Y1690D01*
X662Y1690D02*
X721Y1690D01*
X762Y1690D02*
X821Y1690D01*
X1162Y1690D02*
X1221Y1690D01*
X1262Y1690D02*
X1321Y1690D01*
X1362Y1690D02*
X1421Y1690D01*
X562Y1689D02*
X620Y1689D01*
X662Y1689D02*
X720Y1689D01*
X762Y1689D02*
X820Y1689D01*
X1162Y1689D02*
X1220Y1689D01*
X1262Y1689D02*
X1320Y1689D01*
X1362Y1689D02*
X1420Y1689D01*
X563Y1688D02*
X619Y1688D01*
X663Y1688D02*
X719Y1688D01*
X763Y1688D02*
X819Y1688D01*
X1163Y1688D02*
X1219Y1688D01*
X1263Y1688D02*
X1319Y1688D01*
X1363Y1688D02*
X1419Y1688D01*
X564Y1687D02*
X619Y1687D01*
X664Y1687D02*
X719Y1687D01*
X764Y1687D02*
X819Y1687D01*
X1163Y1687D02*
X1219Y1687D01*
X1263Y1687D02*
X1319Y1687D01*
X1363Y1687D02*
X1419Y1687D01*
X564Y1686D02*
X618Y1686D01*
X664Y1686D02*
X718Y1686D01*
X764Y1686D02*
X818Y1686D01*
X1164Y1686D02*
X1218Y1686D01*
X1264Y1686D02*
X1318Y1686D01*
X1364Y1686D02*
X1418Y1686D01*
X565Y1685D02*
X617Y1685D01*
X665Y1685D02*
X717Y1685D01*
X765Y1685D02*
X817Y1685D01*
X1165Y1685D02*
X1217Y1685D01*
X1265Y1685D02*
X1317Y1685D01*
X1365Y1685D02*
X1417Y1685D01*
X566Y1684D02*
X616Y1684D01*
X666Y1684D02*
X716Y1684D01*
X766Y1684D02*
X816Y1684D01*
X1166Y1684D02*
X1216Y1684D01*
X1266Y1684D02*
X1316Y1684D01*
X1366Y1684D02*
X1416Y1684D01*
X567Y1683D02*
X615Y1683D01*
X667Y1683D02*
X715Y1683D01*
X767Y1683D02*
X815Y1683D01*
X1167Y1683D02*
X1215Y1683D01*
X1267Y1683D02*
X1315Y1683D01*
X1367Y1683D02*
X1415Y1683D01*
X568Y1682D02*
X614Y1682D01*
X668Y1682D02*
X714Y1682D01*
X768Y1682D02*
X814Y1682D01*
X1168Y1682D02*
X1214Y1682D01*
X1268Y1682D02*
X1314Y1682D01*
X1368Y1682D02*
X1414Y1682D01*
X569Y1681D02*
X613Y1681D01*
X669Y1681D02*
X713Y1681D01*
X769Y1681D02*
X813Y1681D01*
X1169Y1681D02*
X1213Y1681D01*
X1269Y1681D02*
X1313Y1681D01*
X1369Y1681D02*
X1413Y1681D01*
X570Y1680D02*
X612Y1680D01*
X670Y1680D02*
X712Y1680D01*
X770Y1680D02*
X812Y1680D01*
X1170Y1680D02*
X1212Y1680D01*
X1270Y1680D02*
X1312Y1680D01*
X1370Y1680D02*
X1412Y1680D01*
X572Y1679D02*
X610Y1679D01*
X672Y1679D02*
X710Y1679D01*
X772Y1679D02*
X810Y1679D01*
X1172Y1679D02*
X1210Y1679D01*
X1272Y1679D02*
X1310Y1679D01*
X1372Y1679D02*
X1410Y1679D01*
X573Y1678D02*
X609Y1678D01*
X673Y1678D02*
X709Y1678D01*
X773Y1678D02*
X809Y1678D01*
X1173Y1678D02*
X1209Y1678D01*
X1273Y1678D02*
X1309Y1678D01*
X1373Y1678D02*
X1409Y1678D01*
X575Y1677D02*
X607Y1677D01*
X675Y1677D02*
X707Y1677D01*
X775Y1677D02*
X807Y1677D01*
X1175Y1677D02*
X1207Y1677D01*
X1275Y1677D02*
X1307Y1677D01*
X1375Y1677D02*
X1407Y1677D01*
X577Y1676D02*
X605Y1676D01*
X677Y1676D02*
X705Y1676D01*
X777Y1676D02*
X805Y1676D01*
X1177Y1676D02*
X1205Y1676D01*
X1277Y1676D02*
X1305Y1676D01*
X1377Y1676D02*
X1405Y1676D01*
X580Y1675D02*
X602Y1675D01*
X680Y1675D02*
X702Y1675D01*
X780Y1675D02*
X802Y1675D01*
X1180Y1675D02*
X1202Y1675D01*
X1280Y1675D02*
X1302Y1675D01*
X1380Y1675D02*
X1402Y1675D01*
X583Y1674D02*
X599Y1674D01*
X683Y1674D02*
X699Y1674D01*
X783Y1674D02*
X799Y1674D01*
X1183Y1674D02*
X1199Y1674D01*
X1283Y1674D02*
X1299Y1674D01*
X1383Y1674D02*
X1399Y1674D01*
X588Y1673D02*
X594Y1673D01*
X688Y1673D02*
X694Y1673D01*
X788Y1673D02*
X794Y1673D01*
X1188Y1673D02*
X1194Y1673D01*
X1288Y1673D02*
X1294Y1673D01*
X1388Y1673D02*
X1394Y1673D01*
X585Y1242D02*
X597Y1242D01*
X685Y1242D02*
X697Y1242D01*
X785Y1242D02*
X797Y1242D01*
X1185Y1242D02*
X1197Y1242D01*
X1285Y1242D02*
X1297Y1242D01*
X1385Y1242D02*
X1397Y1242D01*
X581Y1241D02*
X601Y1241D01*
X681Y1241D02*
X701Y1241D01*
X781Y1241D02*
X801Y1241D01*
X1181Y1241D02*
X1201Y1241D01*
X1281Y1241D02*
X1301Y1241D01*
X1381Y1241D02*
X1401Y1241D01*
X578Y1240D02*
X604Y1240D01*
X678Y1240D02*
X704Y1240D01*
X778Y1240D02*
X804Y1240D01*
X1178Y1240D02*
X1204Y1240D01*
X1278Y1240D02*
X1304Y1240D01*
X1378Y1240D02*
X1404Y1240D01*
X576Y1239D02*
X606Y1239D01*
X676Y1239D02*
X706Y1239D01*
X776Y1239D02*
X806Y1239D01*
X1176Y1239D02*
X1206Y1239D01*
X1276Y1239D02*
X1306Y1239D01*
X1376Y1239D02*
X1406Y1239D01*
X574Y1238D02*
X608Y1238D01*
X674Y1238D02*
X708Y1238D01*
X774Y1238D02*
X808Y1238D01*
X1174Y1238D02*
X1208Y1238D01*
X1274Y1238D02*
X1308Y1238D01*
X1374Y1238D02*
X1408Y1238D01*
X573Y1237D02*
X610Y1237D01*
X673Y1237D02*
X710Y1237D01*
X773Y1237D02*
X810Y1237D01*
X1173Y1237D02*
X1210Y1237D01*
X1273Y1237D02*
X1310Y1237D01*
X1373Y1237D02*
X1410Y1237D01*
X571Y1236D02*
X611Y1236D01*
X671Y1236D02*
X711Y1236D01*
X771Y1236D02*
X811Y1236D01*
X1171Y1236D02*
X1211Y1236D01*
X1271Y1236D02*
X1311Y1236D01*
X1371Y1236D02*
X1411Y1236D01*
X570Y1235D02*
X612Y1235D01*
X670Y1235D02*
X712Y1235D01*
X770Y1235D02*
X812Y1235D01*
X1170Y1235D02*
X1212Y1235D01*
X1270Y1235D02*
X1312Y1235D01*
X1370Y1235D02*
X1412Y1235D01*
X568Y1234D02*
X614Y1234D01*
X668Y1234D02*
X714Y1234D01*
X768Y1234D02*
X814Y1234D01*
X1168Y1234D02*
X1214Y1234D01*
X1268Y1234D02*
X1314Y1234D01*
X1368Y1234D02*
X1414Y1234D01*
X567Y1233D02*
X615Y1233D01*
X667Y1233D02*
X715Y1233D01*
X767Y1233D02*
X815Y1233D01*
X1167Y1233D02*
X1215Y1233D01*
X1267Y1233D02*
X1315Y1233D01*
X1367Y1233D02*
X1415Y1233D01*
X566Y1232D02*
X616Y1232D01*
X666Y1232D02*
X716Y1232D01*
X766Y1232D02*
X816Y1232D01*
X1166Y1232D02*
X1216Y1232D01*
X1266Y1232D02*
X1316Y1232D01*
X1366Y1232D02*
X1416Y1232D01*
X565Y1231D02*
X617Y1231D01*
X665Y1231D02*
X717Y1231D01*
X765Y1231D02*
X817Y1231D01*
X1165Y1231D02*
X1217Y1231D01*
X1265Y1231D02*
X1317Y1231D01*
X1365Y1231D02*
X1417Y1231D01*
X565Y1230D02*
X618Y1230D01*
X665Y1230D02*
X718Y1230D01*
X765Y1230D02*
X818Y1230D01*
X1165Y1230D02*
X1218Y1230D01*
X1265Y1230D02*
X1318Y1230D01*
X1365Y1230D02*
X1417Y1230D01*
X564Y1229D02*
X618Y1229D01*
X664Y1229D02*
X718Y1229D01*
X764Y1229D02*
X818Y1229D01*
X1164Y1229D02*
X1218Y1229D01*
X1264Y1229D02*
X1318Y1229D01*
X1364Y1229D02*
X1418Y1229D01*
X563Y1228D02*
X619Y1228D01*
X663Y1228D02*
X719Y1228D01*
X763Y1228D02*
X819Y1228D01*
X1163Y1228D02*
X1219Y1228D01*
X1263Y1228D02*
X1319Y1228D01*
X1363Y1228D02*
X1419Y1228D01*
X563Y1227D02*
X620Y1227D01*
X663Y1227D02*
X720Y1227D01*
X762Y1227D02*
X820Y1227D01*
X1162Y1227D02*
X1220Y1227D01*
X1262Y1227D02*
X1320Y1227D01*
X1362Y1227D02*
X1420Y1227D01*
X562Y1226D02*
X620Y1226D01*
X662Y1226D02*
X720Y1226D01*
X762Y1226D02*
X820Y1226D01*
X1162Y1226D02*
X1220Y1226D01*
X1262Y1226D02*
X1320Y1226D01*
X1362Y1226D02*
X1420Y1226D01*
X561Y1225D02*
X621Y1225D01*
X661Y1225D02*
X721Y1225D01*
X761Y1225D02*
X821Y1225D01*
X1161Y1225D02*
X1221Y1225D01*
X1261Y1225D02*
X1321Y1225D01*
X1361Y1225D02*
X1421Y1225D01*
X561Y1224D02*
X621Y1224D01*
X661Y1224D02*
X721Y1224D01*
X761Y1224D02*
X821Y1224D01*
X1161Y1224D02*
X1221Y1224D01*
X1261Y1224D02*
X1321Y1224D01*
X1361Y1224D02*
X1421Y1224D01*
X560Y1223D02*
X622Y1223D01*
X660Y1223D02*
X722Y1223D01*
X760Y1223D02*
X822Y1223D01*
X1160Y1223D02*
X1222Y1223D01*
X1260Y1223D02*
X1322Y1223D01*
X1360Y1223D02*
X1422Y1223D01*
X560Y1222D02*
X585Y1222D01*
X597Y1222D02*
X622Y1222D01*
X660Y1222D02*
X685Y1222D01*
X697Y1222D02*
X722Y1222D01*
X760Y1222D02*
X785Y1222D01*
X797Y1222D02*
X822Y1222D01*
X1160Y1222D02*
X1185Y1222D01*
X1197Y1222D02*
X1222Y1222D01*
X1260Y1222D02*
X1285Y1222D01*
X1297Y1222D02*
X1322Y1222D01*
X1360Y1222D02*
X1385Y1222D01*
X1397Y1222D02*
X1422Y1222D01*
X559Y1221D02*
X583Y1221D01*
X599Y1221D02*
X623Y1221D01*
X659Y1221D02*
X683Y1221D01*
X699Y1221D02*
X723Y1221D01*
X759Y1221D02*
X783Y1221D01*
X799Y1221D02*
X823Y1221D01*
X1159Y1221D02*
X1183Y1221D01*
X1199Y1221D02*
X1223Y1221D01*
X1259Y1221D02*
X1283Y1221D01*
X1299Y1221D02*
X1323Y1221D01*
X1359Y1221D02*
X1383Y1221D01*
X1399Y1221D02*
X1423Y1221D01*
X559Y1220D02*
X582Y1220D01*
X600Y1220D02*
X623Y1220D01*
X659Y1220D02*
X682Y1220D01*
X700Y1220D02*
X723Y1220D01*
X759Y1220D02*
X782Y1220D01*
X800Y1220D02*
X823Y1220D01*
X1159Y1220D02*
X1182Y1220D01*
X1200Y1220D02*
X1223Y1220D01*
X1259Y1220D02*
X1282Y1220D01*
X1300Y1220D02*
X1323Y1220D01*
X1359Y1220D02*
X1382Y1220D01*
X1400Y1220D02*
X1423Y1220D01*
X559Y1219D02*
X581Y1219D01*
X602Y1219D02*
X624Y1219D01*
X659Y1219D02*
X681Y1219D01*
X702Y1219D02*
X724Y1219D01*
X759Y1219D02*
X781Y1219D01*
X801Y1219D02*
X824Y1219D01*
X1159Y1219D02*
X1181Y1219D01*
X1201Y1219D02*
X1223Y1219D01*
X1259Y1219D02*
X1281Y1219D01*
X1301Y1219D02*
X1323Y1219D01*
X1359Y1219D02*
X1381Y1219D01*
X1401Y1219D02*
X1423Y1219D01*
X558Y1218D02*
X580Y1218D01*
X603Y1218D02*
X624Y1218D01*
X658Y1218D02*
X680Y1218D01*
X703Y1218D02*
X724Y1218D01*
X758Y1218D02*
X780Y1218D01*
X803Y1218D02*
X824Y1218D01*
X1158Y1218D02*
X1180Y1218D01*
X1202Y1218D02*
X1224Y1218D01*
X1258Y1218D02*
X1280Y1218D01*
X1302Y1218D02*
X1324Y1218D01*
X1358Y1218D02*
X1380Y1218D01*
X1402Y1218D02*
X1424Y1218D01*
X558Y1217D02*
X579Y1217D01*
X603Y1217D02*
X624Y1217D01*
X658Y1217D02*
X679Y1217D01*
X703Y1217D02*
X724Y1217D01*
X758Y1217D02*
X779Y1217D01*
X803Y1217D02*
X824Y1217D01*
X1158Y1217D02*
X1179Y1217D01*
X1203Y1217D02*
X1224Y1217D01*
X1258Y1217D02*
X1279Y1217D01*
X1303Y1217D02*
X1324Y1217D01*
X1358Y1217D02*
X1379Y1217D01*
X1403Y1217D02*
X1424Y1217D01*
X558Y1216D02*
X578Y1216D01*
X604Y1216D02*
X624Y1216D01*
X658Y1216D02*
X678Y1216D01*
X704Y1216D02*
X724Y1216D01*
X758Y1216D02*
X778Y1216D01*
X804Y1216D02*
X824Y1216D01*
X1158Y1216D02*
X1178Y1216D01*
X1204Y1216D02*
X1224Y1216D01*
X1258Y1216D02*
X1278Y1216D01*
X1304Y1216D02*
X1324Y1216D01*
X1358Y1216D02*
X1378Y1216D01*
X1404Y1216D02*
X1424Y1216D01*
X557Y1215D02*
X577Y1215D01*
X605Y1215D02*
X625Y1215D01*
X657Y1215D02*
X677Y1215D01*
X705Y1215D02*
X725Y1215D01*
X757Y1215D02*
X777Y1215D01*
X805Y1215D02*
X825Y1215D01*
X1157Y1215D02*
X1177Y1215D01*
X1205Y1215D02*
X1225Y1215D01*
X1257Y1215D02*
X1277Y1215D01*
X1305Y1215D02*
X1325Y1215D01*
X1357Y1215D02*
X1377Y1215D01*
X1405Y1215D02*
X1425Y1215D01*
X557Y1214D02*
X577Y1214D01*
X605Y1214D02*
X625Y1214D01*
X657Y1214D02*
X677Y1214D01*
X705Y1214D02*
X725Y1214D01*
X757Y1214D02*
X777Y1214D01*
X805Y1214D02*
X825Y1214D01*
X1157Y1214D02*
X1177Y1214D01*
X1205Y1214D02*
X1225Y1214D01*
X1257Y1214D02*
X1277Y1214D01*
X1305Y1214D02*
X1325Y1214D01*
X1357Y1214D02*
X1377Y1214D01*
X1405Y1214D02*
X1425Y1214D01*
X557Y1213D02*
X576Y1213D01*
X606Y1213D02*
X625Y1213D01*
X657Y1213D02*
X676Y1213D01*
X706Y1213D02*
X725Y1213D01*
X757Y1213D02*
X776Y1213D01*
X806Y1213D02*
X825Y1213D01*
X1157Y1213D02*
X1176Y1213D01*
X1206Y1213D02*
X1225Y1213D01*
X1257Y1213D02*
X1276Y1213D01*
X1306Y1213D02*
X1325Y1213D01*
X1357Y1213D02*
X1376Y1213D01*
X1406Y1213D02*
X1425Y1213D01*
X557Y1212D02*
X576Y1212D01*
X606Y1212D02*
X625Y1212D01*
X657Y1212D02*
X676Y1212D01*
X706Y1212D02*
X725Y1212D01*
X757Y1212D02*
X776Y1212D01*
X806Y1212D02*
X825Y1212D01*
X1157Y1212D02*
X1176Y1212D01*
X1206Y1212D02*
X1225Y1212D01*
X1257Y1212D02*
X1276Y1212D01*
X1306Y1212D02*
X1325Y1212D01*
X1357Y1212D02*
X1376Y1212D01*
X1406Y1212D02*
X1425Y1212D01*
X557Y1211D02*
X576Y1211D01*
X606Y1211D02*
X625Y1211D01*
X657Y1211D02*
X676Y1211D01*
X706Y1211D02*
X725Y1211D01*
X757Y1211D02*
X776Y1211D01*
X806Y1211D02*
X825Y1211D01*
X1157Y1211D02*
X1176Y1211D01*
X1206Y1211D02*
X1225Y1211D01*
X1257Y1211D02*
X1276Y1211D01*
X1306Y1211D02*
X1325Y1211D01*
X1357Y1211D02*
X1376Y1211D01*
X1406Y1211D02*
X1425Y1211D01*
X557Y1210D02*
X576Y1210D01*
X606Y1210D02*
X625Y1210D01*
X657Y1210D02*
X676Y1210D01*
X706Y1210D02*
X725Y1210D01*
X757Y1210D02*
X776Y1210D01*
X806Y1210D02*
X825Y1210D01*
X1157Y1210D02*
X1176Y1210D01*
X1206Y1210D02*
X1225Y1210D01*
X1257Y1210D02*
X1276Y1210D01*
X1306Y1210D02*
X1325Y1210D01*
X1357Y1210D02*
X1376Y1210D01*
X1406Y1210D02*
X1425Y1210D01*
X557Y1209D02*
X576Y1209D01*
X607Y1209D02*
X626Y1209D01*
X657Y1209D02*
X676Y1209D01*
X706Y1209D02*
X726Y1209D01*
X757Y1209D02*
X776Y1209D01*
X806Y1209D02*
X826Y1209D01*
X1157Y1209D02*
X1176Y1209D01*
X1206Y1209D02*
X1225Y1209D01*
X1257Y1209D02*
X1276Y1209D01*
X1306Y1209D02*
X1325Y1209D01*
X1357Y1209D02*
X1376Y1209D01*
X1406Y1209D02*
X1425Y1209D01*
X557Y1208D02*
X576Y1208D01*
X607Y1208D02*
X626Y1208D01*
X657Y1208D02*
X676Y1208D01*
X707Y1208D02*
X726Y1208D01*
X757Y1208D02*
X776Y1208D01*
X807Y1208D02*
X826Y1208D01*
X1157Y1208D02*
X1176Y1208D01*
X1207Y1208D02*
X1226Y1208D01*
X1257Y1208D02*
X1276Y1208D01*
X1307Y1208D02*
X1326Y1208D01*
X1357Y1208D02*
X1376Y1208D01*
X1407Y1208D02*
X1426Y1208D01*
X557Y1207D02*
X576Y1207D01*
X607Y1207D02*
X626Y1207D01*
X657Y1207D02*
X676Y1207D01*
X707Y1207D02*
X726Y1207D01*
X757Y1207D02*
X776Y1207D01*
X807Y1207D02*
X826Y1207D01*
X1157Y1207D02*
X1176Y1207D01*
X1206Y1207D02*
X1226Y1207D01*
X1257Y1207D02*
X1276Y1207D01*
X1306Y1207D02*
X1325Y1207D01*
X1357Y1207D02*
X1376Y1207D01*
X1406Y1207D02*
X1425Y1207D01*
X557Y1206D02*
X576Y1206D01*
X606Y1206D02*
X626Y1206D01*
X657Y1206D02*
X676Y1206D01*
X706Y1206D02*
X725Y1206D01*
X757Y1206D02*
X776Y1206D01*
X806Y1206D02*
X825Y1206D01*
X1157Y1206D02*
X1176Y1206D01*
X1206Y1206D02*
X1225Y1206D01*
X1257Y1206D02*
X1276Y1206D01*
X1306Y1206D02*
X1325Y1206D01*
X1357Y1206D02*
X1376Y1206D01*
X1406Y1206D02*
X1425Y1206D01*
X557Y1205D02*
X576Y1205D01*
X606Y1205D02*
X625Y1205D01*
X657Y1205D02*
X676Y1205D01*
X706Y1205D02*
X725Y1205D01*
X757Y1205D02*
X776Y1205D01*
X806Y1205D02*
X825Y1205D01*
X1157Y1205D02*
X1176Y1205D01*
X1206Y1205D02*
X1225Y1205D01*
X1257Y1205D02*
X1276Y1205D01*
X1306Y1205D02*
X1325Y1205D01*
X1357Y1205D02*
X1376Y1205D01*
X1406Y1205D02*
X1425Y1205D01*
X557Y1204D02*
X576Y1204D01*
X606Y1204D02*
X625Y1204D01*
X657Y1204D02*
X676Y1204D01*
X706Y1204D02*
X725Y1204D01*
X757Y1204D02*
X776Y1204D01*
X806Y1204D02*
X825Y1204D01*
X1157Y1204D02*
X1176Y1204D01*
X1206Y1204D02*
X1225Y1204D01*
X1257Y1204D02*
X1276Y1204D01*
X1306Y1204D02*
X1325Y1204D01*
X1357Y1204D02*
X1376Y1204D01*
X1406Y1204D02*
X1425Y1204D01*
X557Y1203D02*
X576Y1203D01*
X606Y1203D02*
X625Y1203D01*
X657Y1203D02*
X676Y1203D01*
X706Y1203D02*
X725Y1203D01*
X757Y1203D02*
X776Y1203D01*
X806Y1203D02*
X825Y1203D01*
X1157Y1203D02*
X1176Y1203D01*
X1206Y1203D02*
X1225Y1203D01*
X1257Y1203D02*
X1276Y1203D01*
X1306Y1203D02*
X1325Y1203D01*
X1357Y1203D02*
X1376Y1203D01*
X1406Y1203D02*
X1425Y1203D01*
X557Y1202D02*
X577Y1202D01*
X606Y1202D02*
X625Y1202D01*
X657Y1202D02*
X677Y1202D01*
X706Y1202D02*
X725Y1202D01*
X757Y1202D02*
X777Y1202D01*
X806Y1202D02*
X825Y1202D01*
X1157Y1202D02*
X1177Y1202D01*
X1206Y1202D02*
X1225Y1202D01*
X1257Y1202D02*
X1277Y1202D01*
X1306Y1202D02*
X1325Y1202D01*
X1357Y1202D02*
X1377Y1202D01*
X1406Y1202D02*
X1425Y1202D01*
X557Y1201D02*
X577Y1201D01*
X605Y1201D02*
X625Y1201D01*
X657Y1201D02*
X677Y1201D01*
X705Y1201D02*
X725Y1201D01*
X757Y1201D02*
X777Y1201D01*
X805Y1201D02*
X825Y1201D01*
X1157Y1201D02*
X1177Y1201D01*
X1205Y1201D02*
X1225Y1201D01*
X1257Y1201D02*
X1277Y1201D01*
X1305Y1201D02*
X1325Y1201D01*
X1357Y1201D02*
X1377Y1201D01*
X1405Y1201D02*
X1425Y1201D01*
X558Y1200D02*
X578Y1200D01*
X605Y1200D02*
X625Y1200D01*
X658Y1200D02*
X678Y1200D01*
X705Y1200D02*
X725Y1200D01*
X758Y1200D02*
X778Y1200D01*
X805Y1200D02*
X825Y1200D01*
X1158Y1200D02*
X1178Y1200D01*
X1204Y1200D02*
X1225Y1200D01*
X1258Y1200D02*
X1278Y1200D01*
X1304Y1200D02*
X1325Y1200D01*
X1358Y1200D02*
X1378Y1200D01*
X1404Y1200D02*
X1425Y1200D01*
X558Y1199D02*
X578Y1199D01*
X604Y1199D02*
X624Y1199D01*
X658Y1199D02*
X678Y1199D01*
X704Y1199D02*
X724Y1199D01*
X758Y1199D02*
X778Y1199D01*
X804Y1199D02*
X824Y1199D01*
X1158Y1199D02*
X1178Y1199D01*
X1204Y1199D02*
X1224Y1199D01*
X1258Y1199D02*
X1278Y1199D01*
X1304Y1199D02*
X1324Y1199D01*
X1358Y1199D02*
X1378Y1199D01*
X1404Y1199D02*
X1424Y1199D01*
X558Y1198D02*
X579Y1198D01*
X603Y1198D02*
X624Y1198D01*
X658Y1198D02*
X679Y1198D01*
X703Y1198D02*
X724Y1198D01*
X758Y1198D02*
X779Y1198D01*
X803Y1198D02*
X824Y1198D01*
X1158Y1198D02*
X1179Y1198D01*
X1203Y1198D02*
X1224Y1198D01*
X1258Y1198D02*
X1279Y1198D01*
X1303Y1198D02*
X1324Y1198D01*
X1358Y1198D02*
X1379Y1198D01*
X1403Y1198D02*
X1424Y1198D01*
X558Y1197D02*
X580Y1197D01*
X602Y1197D02*
X624Y1197D01*
X658Y1197D02*
X680Y1197D01*
X702Y1197D02*
X724Y1197D01*
X758Y1197D02*
X780Y1197D01*
X802Y1197D02*
X824Y1197D01*
X1158Y1197D02*
X1180Y1197D01*
X1202Y1197D02*
X1224Y1197D01*
X1258Y1197D02*
X1280Y1197D01*
X1302Y1197D02*
X1324Y1197D01*
X1358Y1197D02*
X1380Y1197D01*
X1402Y1197D02*
X1424Y1197D01*
X559Y1196D02*
X581Y1196D01*
X601Y1196D02*
X623Y1196D01*
X659Y1196D02*
X681Y1196D01*
X701Y1196D02*
X723Y1196D01*
X759Y1196D02*
X781Y1196D01*
X801Y1196D02*
X823Y1196D01*
X1159Y1196D02*
X1181Y1196D01*
X1201Y1196D02*
X1223Y1196D01*
X1259Y1196D02*
X1281Y1196D01*
X1301Y1196D02*
X1323Y1196D01*
X1359Y1196D02*
X1381Y1196D01*
X1401Y1196D02*
X1423Y1196D01*
X559Y1195D02*
X583Y1195D01*
X600Y1195D02*
X623Y1195D01*
X659Y1195D02*
X683Y1195D01*
X700Y1195D02*
X723Y1195D01*
X759Y1195D02*
X783Y1195D01*
X800Y1195D02*
X823Y1195D01*
X1159Y1195D02*
X1183Y1195D01*
X1200Y1195D02*
X1223Y1195D01*
X1259Y1195D02*
X1283Y1195D01*
X1300Y1195D02*
X1323Y1195D01*
X1359Y1195D02*
X1383Y1195D01*
X1400Y1195D02*
X1423Y1195D01*
X560Y1194D02*
X584Y1194D01*
X598Y1194D02*
X623Y1194D01*
X660Y1194D02*
X684Y1194D01*
X698Y1194D02*
X723Y1194D01*
X760Y1194D02*
X784Y1194D01*
X798Y1194D02*
X823Y1194D01*
X1160Y1194D02*
X1184Y1194D01*
X1198Y1194D02*
X1223Y1194D01*
X1260Y1194D02*
X1284Y1194D01*
X1298Y1194D02*
X1322Y1194D01*
X1360Y1194D02*
X1384Y1194D01*
X1398Y1194D02*
X1422Y1194D01*
X560Y1193D02*
X588Y1193D01*
X595Y1193D02*
X622Y1193D01*
X660Y1193D02*
X688Y1193D01*
X694Y1193D02*
X722Y1193D01*
X760Y1193D02*
X788Y1193D01*
X794Y1193D02*
X822Y1193D01*
X1160Y1193D02*
X1188Y1193D01*
X1194Y1193D02*
X1222Y1193D01*
X1260Y1193D02*
X1288Y1193D01*
X1294Y1193D02*
X1322Y1193D01*
X1360Y1193D02*
X1388Y1193D01*
X1394Y1193D02*
X1422Y1193D01*
X561Y1192D02*
X622Y1192D01*
X661Y1192D02*
X722Y1192D01*
X761Y1192D02*
X822Y1192D01*
X1161Y1192D02*
X1222Y1192D01*
X1261Y1192D02*
X1322Y1192D01*
X1361Y1192D02*
X1422Y1192D01*
X561Y1191D02*
X621Y1191D01*
X661Y1191D02*
X721Y1191D01*
X761Y1191D02*
X821Y1191D01*
X1161Y1191D02*
X1221Y1191D01*
X1261Y1191D02*
X1321Y1191D01*
X1361Y1191D02*
X1421Y1191D01*
X562Y1190D02*
X621Y1190D01*
X662Y1190D02*
X721Y1190D01*
X762Y1190D02*
X821Y1190D01*
X1162Y1190D02*
X1220Y1190D01*
X1262Y1190D02*
X1320Y1190D01*
X1362Y1190D02*
X1420Y1190D01*
X562Y1189D02*
X620Y1189D01*
X662Y1189D02*
X720Y1189D01*
X762Y1189D02*
X820Y1189D01*
X1162Y1189D02*
X1220Y1189D01*
X1262Y1189D02*
X1320Y1189D01*
X1362Y1189D02*
X1420Y1189D01*
X563Y1188D02*
X619Y1188D01*
X663Y1188D02*
X719Y1188D01*
X763Y1188D02*
X819Y1188D01*
X1163Y1188D02*
X1219Y1188D01*
X1263Y1188D02*
X1319Y1188D01*
X1363Y1188D02*
X1419Y1188D01*
X564Y1187D02*
X619Y1187D01*
X664Y1187D02*
X719Y1187D01*
X764Y1187D02*
X819Y1187D01*
X1164Y1187D02*
X1219Y1187D01*
X1264Y1187D02*
X1319Y1187D01*
X1364Y1187D02*
X1419Y1187D01*
X564Y1186D02*
X618Y1186D01*
X664Y1186D02*
X718Y1186D01*
X764Y1186D02*
X818Y1186D01*
X1164Y1186D02*
X1218Y1186D01*
X1264Y1186D02*
X1318Y1186D01*
X1364Y1186D02*
X1418Y1186D01*
X565Y1185D02*
X617Y1185D01*
X665Y1185D02*
X717Y1185D01*
X765Y1185D02*
X817Y1185D01*
X1165Y1185D02*
X1217Y1185D01*
X1265Y1185D02*
X1317Y1185D01*
X1365Y1185D02*
X1417Y1185D01*
X566Y1184D02*
X616Y1184D01*
X666Y1184D02*
X716Y1184D01*
X766Y1184D02*
X816Y1184D01*
X1166Y1184D02*
X1216Y1184D01*
X1266Y1184D02*
X1316Y1184D01*
X1366Y1184D02*
X1416Y1184D01*
X567Y1183D02*
X615Y1183D01*
X667Y1183D02*
X715Y1183D01*
X767Y1183D02*
X815Y1183D01*
X1167Y1183D02*
X1215Y1183D01*
X1267Y1183D02*
X1315Y1183D01*
X1367Y1183D02*
X1415Y1183D01*
X568Y1182D02*
X614Y1182D01*
X668Y1182D02*
X714Y1182D01*
X768Y1182D02*
X814Y1182D01*
X1168Y1182D02*
X1214Y1182D01*
X1268Y1182D02*
X1314Y1182D01*
X1368Y1182D02*
X1414Y1182D01*
X569Y1181D02*
X613Y1181D01*
X669Y1181D02*
X713Y1181D01*
X769Y1181D02*
X813Y1181D01*
X1169Y1181D02*
X1213Y1181D01*
X1269Y1181D02*
X1313Y1181D01*
X1369Y1181D02*
X1413Y1181D01*
X570Y1180D02*
X612Y1180D01*
X670Y1180D02*
X712Y1180D01*
X770Y1180D02*
X812Y1180D01*
X1170Y1180D02*
X1212Y1180D01*
X1270Y1180D02*
X1312Y1180D01*
X1370Y1180D02*
X1412Y1180D01*
X572Y1179D02*
X610Y1179D01*
X672Y1179D02*
X710Y1179D01*
X772Y1179D02*
X810Y1179D01*
X1172Y1179D02*
X1210Y1179D01*
X1272Y1179D02*
X1310Y1179D01*
X1372Y1179D02*
X1410Y1179D01*
X574Y1178D02*
X609Y1178D01*
X674Y1178D02*
X709Y1178D01*
X774Y1178D02*
X809Y1178D01*
X1174Y1178D02*
X1209Y1178D01*
X1273Y1178D02*
X1309Y1178D01*
X1373Y1178D02*
X1409Y1178D01*
X575Y1177D02*
X607Y1177D01*
X675Y1177D02*
X707Y1177D01*
X775Y1177D02*
X807Y1177D01*
X1175Y1177D02*
X1207Y1177D01*
X1275Y1177D02*
X1307Y1177D01*
X1375Y1177D02*
X1407Y1177D01*
X577Y1176D02*
X605Y1176D01*
X677Y1176D02*
X705Y1176D01*
X777Y1176D02*
X805Y1176D01*
X1177Y1176D02*
X1205Y1176D01*
X1277Y1176D02*
X1305Y1176D01*
X1377Y1176D02*
X1405Y1176D01*
X580Y1175D02*
X602Y1175D01*
X680Y1175D02*
X702Y1175D01*
X780Y1175D02*
X802Y1175D01*
X1180Y1175D02*
X1202Y1175D01*
X1280Y1175D02*
X1302Y1175D01*
X1380Y1175D02*
X1402Y1175D01*
X583Y1174D02*
X599Y1174D01*
X683Y1174D02*
X699Y1174D01*
X783Y1174D02*
X799Y1174D01*
X1183Y1174D02*
X1199Y1174D01*
X1283Y1174D02*
X1299Y1174D01*
X1383Y1174D02*
X1399Y1174D01*
X588Y1173D02*
X594Y1173D01*
X688Y1173D02*
X694Y1173D01*
X788Y1173D02*
X794Y1173D01*
X1188Y1173D02*
X1194Y1173D01*
X1288Y1173D02*
X1294Y1173D01*
X1388Y1173D02*
X1394Y1173D01*
D02*
G04 End of Copper0*
M02*