M48
;GenerationSoftware,Autodesk,EAGLE,9.2.0*%
;CreationDate,2018-11-03T09:23:13Z*%
FMAT,2
ICI,OFF
METRIC,TZ,000.000
T3C1.016
T2C1.400
T1C3.200
%
G90
M71
T1
X60960Y72390
X60960Y19050
X10160Y19050
X10160Y72390
T2
X57600Y66000
X57600Y61000
T3
X35560Y63500
X38100Y63500
X35560Y49530
X38100Y49530
X35560Y35560
X38100Y35560
X19050Y66040
X19050Y63500
X19050Y60960
X19050Y58420
X19050Y55880
X17780Y38100
X17780Y35560
X17780Y33020
X17780Y30480
X17780Y27940
X25400Y66040
X27940Y66040
X30480Y66040
X43180Y66040
X45720Y66040
X48260Y66040
X25400Y52070
X27940Y52070
X30480Y52070
X43180Y52070
X45720Y52070
X48260Y52070
X24130Y38100
X26670Y38100
X29210Y38100
X43180Y38100
X45720Y38100
X48260Y38100
X25400Y24130
X27940Y24130
X30480Y24130
X43180Y24130
X45720Y24130
X48260Y24130
X35560Y21590
X38100Y21590
M30