G04 MADE WITH FRITZING*
G04 WWW.FRITZING.ORG*
G04 SINGLE SIDED*
G04 HOLES NOT PLATED*
G04 CONTOUR ON CENTER OF CONTOUR VECTOR*
%ASAXBY*%
%FSLAX23Y23*%
%MOIN*%
%OFA0B0*%
%SFA1.0B1.0*%
%ADD10C,0.082000*%
%ADD11C,0.075000*%
%ADD12C,0.047859*%
%ADD13C,0.080000*%
%ADD14C,0.078000*%
%ADD15C,0.137795*%
%ADD16R,0.082000X0.082000*%
%ADD17R,0.075000X0.075000*%
%ADD18R,0.079986X0.080000*%
%ADD19C,0.048000*%
%LNCOPPER0*%
G90*
G70*
G54D10*
X137Y437D03*
X237Y437D03*
X337Y437D03*
G54D11*
X137Y937D03*
X237Y937D03*
X437Y937D03*
X537Y937D03*
G54D12*
X1534Y1635D03*
X637Y1835D03*
X637Y1735D03*
X637Y1635D03*
X637Y1535D03*
X637Y1436D03*
X1534Y1735D03*
X1534Y1835D03*
X1534Y1535D03*
X637Y1336D03*
X637Y1236D03*
X637Y1136D03*
X637Y1036D03*
X637Y936D03*
X637Y836D03*
X637Y737D03*
X637Y637D03*
X637Y537D03*
X637Y437D03*
X1534Y1136D03*
X1534Y1036D03*
X1534Y936D03*
X1534Y836D03*
X1534Y737D03*
X1534Y637D03*
X1534Y537D03*
X1534Y437D03*
X1534Y1436D03*
X1534Y1336D03*
X1534Y1236D03*
G54D13*
X137Y1837D03*
X137Y1637D03*
G54D14*
X1837Y1237D03*
X1837Y1137D03*
X1837Y1037D03*
X1837Y937D03*
X1837Y837D03*
X1837Y1837D03*
X1837Y1737D03*
X1837Y1637D03*
X1837Y1537D03*
X1837Y1437D03*
G54D15*
X137Y2037D03*
X137Y137D03*
X1837Y2037D03*
X1837Y137D03*
G54D16*
X137Y437D03*
G54D17*
X137Y937D03*
X437Y937D03*
G54D18*
X137Y1837D03*
G54D19*
X137Y1595D02*
X137Y977D01*
D02*
X237Y1737D02*
X237Y977D01*
D02*
X167Y1807D02*
X237Y1737D01*
D02*
X137Y480D02*
X137Y897D01*
D02*
X237Y480D02*
X237Y897D01*
D02*
X537Y437D02*
X537Y897D01*
D02*
X604Y437D02*
X537Y437D01*
D02*
X337Y537D02*
X537Y737D01*
D02*
X537Y737D02*
X537Y897D01*
D02*
X337Y480D02*
X337Y537D01*
D02*
X277Y937D02*
X397Y937D01*
D02*
X1558Y560D02*
X1808Y808D01*
D02*
X1501Y1436D02*
X1437Y1437D01*
D02*
X1437Y1437D02*
X1437Y337D01*
D02*
X1437Y337D02*
X1937Y337D01*
D02*
X1937Y337D02*
X1937Y1237D01*
D02*
X1937Y1237D02*
X1878Y1237D01*
D02*
X1568Y1835D02*
X1796Y1837D01*
D02*
X1568Y1536D02*
X1796Y1537D01*
D02*
X1568Y1136D02*
X1796Y1137D01*
D02*
X1803Y1414D02*
X1562Y1254D01*
D02*
X1568Y1735D02*
X1796Y1737D01*
D02*
X1568Y936D02*
X1796Y937D01*
D02*
X1568Y1635D02*
X1796Y1637D01*
D02*
X1568Y1036D02*
X1796Y1037D01*
D02*
X237Y1937D02*
X167Y1867D01*
D02*
X737Y637D02*
X737Y1937D01*
D02*
X737Y1937D02*
X237Y1937D01*
D02*
X661Y561D02*
X737Y637D01*
G04 End of Copper0*
M02*