; NON-PLATED HOLES START AT T1
; THROUGH (PLATED) HOLES START AT T100
M48
INCH
T100C0.038000
T101C0.042000
T102C0.035000
T103C0.129921
T104C0.022334
T105C0.040000
%
T100
X018370Y009370
X018370Y010370
X018370Y015370
X018370Y018370
X018370Y011370
X018370Y016370
X018370Y008370
X018370Y014370
X018370Y012370
X018370Y017370
T101
X003370Y004370
X002370Y004370
X001370Y004370
T102
X005370Y009370
X004370Y009370
X002370Y009370
X001370Y009370
T103
X001370Y001370
X001370Y020370
X018370Y001370
X018370Y020370
T104
X006370Y008364
X015343Y014355
X015343Y005368
X006370Y004370
X015343Y010361
X006370Y009362
X015343Y015353
X006370Y011359
X015343Y006367
X015343Y016352
X015343Y007365
X006370Y012358
X015343Y017350
X006370Y013356
X015343Y008364
X006370Y018348
X015343Y004370
X015343Y009362
X006370Y014355
X006370Y005368
X015343Y011359
X006370Y010361
X006370Y015353
X006370Y006367
X015343Y012358
X006370Y016352
X006370Y007365
X015343Y013356
X015343Y018348
X006370Y017350
T105
X001370Y016370
X001370Y018370
T00
M30
