G04 MADE WITH FRITZING*
G04 WWW.FRITZING.ORG*
G04 SINGLE SIDED*
G04 HOLES NOT PLATED*
G04 CONTOUR ON CENTER OF CONTOUR VECTOR*
%ASAXBY*%
%FSLAX23Y23*%
%MOIN*%
%OFA0B0*%
%SFA1.0B1.0*%
%ADD10C,0.147795*%
%ADD11C,0.090000*%
%ADD12C,0.088000*%
%ADD13R,0.089986X0.090000*%
%ADD14R,0.001000X0.001000*%
%LNMASK0*%
G90*
G70*
G54D10*
X92Y3107D03*
X1992Y3107D03*
X92Y907D03*
X1992Y907D03*
G54D11*
X1992Y2607D03*
X1992Y2807D03*
G54D12*
X292Y1707D03*
X292Y1607D03*
X292Y1507D03*
X292Y1407D03*
X292Y1307D03*
X292Y2807D03*
X292Y2707D03*
X292Y2607D03*
X292Y2507D03*
X292Y2407D03*
X992Y2607D03*
X892Y2607D03*
X992Y1007D03*
X892Y1007D03*
X992Y1507D03*
X892Y1507D03*
X992Y2107D03*
X892Y2107D03*
G54D13*
X1992Y2607D03*
G54D14*
X585Y2847D02*
X597Y2847D01*
X685Y2847D02*
X697Y2847D01*
X785Y2847D02*
X797Y2847D01*
X1185Y2847D02*
X1197Y2847D01*
X1285Y2847D02*
X1297Y2847D01*
X1385Y2847D02*
X1397Y2847D01*
X581Y2846D02*
X602Y2846D01*
X681Y2846D02*
X702Y2846D01*
X781Y2846D02*
X802Y2846D01*
X1181Y2846D02*
X1202Y2846D01*
X1281Y2846D02*
X1302Y2846D01*
X1381Y2846D02*
X1402Y2846D01*
X578Y2845D02*
X605Y2845D01*
X677Y2845D02*
X705Y2845D01*
X777Y2845D02*
X805Y2845D01*
X1177Y2845D02*
X1205Y2845D01*
X1277Y2845D02*
X1305Y2845D01*
X1377Y2845D02*
X1405Y2845D01*
X575Y2844D02*
X607Y2844D01*
X675Y2844D02*
X707Y2844D01*
X775Y2844D02*
X807Y2844D01*
X1175Y2844D02*
X1207Y2844D01*
X1275Y2844D02*
X1307Y2844D01*
X1375Y2844D02*
X1407Y2844D01*
X573Y2843D02*
X609Y2843D01*
X673Y2843D02*
X709Y2843D01*
X773Y2843D02*
X809Y2843D01*
X1173Y2843D02*
X1209Y2843D01*
X1273Y2843D02*
X1309Y2843D01*
X1373Y2843D02*
X1409Y2843D01*
X571Y2842D02*
X611Y2842D01*
X671Y2842D02*
X711Y2842D01*
X771Y2842D02*
X811Y2842D01*
X1171Y2842D02*
X1211Y2842D01*
X1271Y2842D02*
X1311Y2842D01*
X1371Y2842D02*
X1411Y2842D01*
X570Y2841D02*
X612Y2841D01*
X670Y2841D02*
X712Y2841D01*
X770Y2841D02*
X812Y2841D01*
X1170Y2841D02*
X1212Y2841D01*
X1270Y2841D02*
X1312Y2841D01*
X1370Y2841D02*
X1412Y2841D01*
X568Y2840D02*
X614Y2840D01*
X668Y2840D02*
X714Y2840D01*
X768Y2840D02*
X814Y2840D01*
X1168Y2840D02*
X1214Y2840D01*
X1268Y2840D02*
X1314Y2840D01*
X1368Y2840D02*
X1414Y2840D01*
X567Y2839D02*
X615Y2839D01*
X667Y2839D02*
X715Y2839D01*
X767Y2839D02*
X815Y2839D01*
X1167Y2839D02*
X1215Y2839D01*
X1267Y2839D02*
X1315Y2839D01*
X1367Y2839D02*
X1415Y2839D01*
X566Y2838D02*
X617Y2838D01*
X666Y2838D02*
X717Y2838D01*
X766Y2838D02*
X817Y2838D01*
X1166Y2838D02*
X1216Y2838D01*
X1266Y2838D02*
X1316Y2838D01*
X1366Y2838D02*
X1416Y2838D01*
X565Y2837D02*
X618Y2837D01*
X665Y2837D02*
X718Y2837D01*
X765Y2837D02*
X818Y2837D01*
X1164Y2837D02*
X1218Y2837D01*
X1264Y2837D02*
X1318Y2837D01*
X1364Y2837D02*
X1418Y2837D01*
X563Y2836D02*
X619Y2836D01*
X663Y2836D02*
X719Y2836D01*
X763Y2836D02*
X819Y2836D01*
X1163Y2836D02*
X1219Y2836D01*
X1263Y2836D02*
X1319Y2836D01*
X1363Y2836D02*
X1419Y2836D01*
X563Y2835D02*
X620Y2835D01*
X662Y2835D02*
X720Y2835D01*
X762Y2835D02*
X820Y2835D01*
X1162Y2835D02*
X1220Y2835D01*
X1262Y2835D02*
X1320Y2835D01*
X1362Y2835D02*
X1420Y2835D01*
X562Y2834D02*
X621Y2834D01*
X662Y2834D02*
X721Y2834D01*
X762Y2834D02*
X821Y2834D01*
X1162Y2834D02*
X1221Y2834D01*
X1262Y2834D02*
X1321Y2834D01*
X1362Y2834D02*
X1421Y2834D01*
X561Y2833D02*
X621Y2833D01*
X661Y2833D02*
X721Y2833D01*
X761Y2833D02*
X821Y2833D01*
X1161Y2833D02*
X1221Y2833D01*
X1261Y2833D02*
X1321Y2833D01*
X1361Y2833D02*
X1421Y2833D01*
X560Y2832D02*
X622Y2832D01*
X660Y2832D02*
X722Y2832D01*
X760Y2832D02*
X822Y2832D01*
X1160Y2832D02*
X1222Y2832D01*
X1260Y2832D02*
X1322Y2832D01*
X1360Y2832D02*
X1422Y2832D01*
X559Y2831D02*
X623Y2831D01*
X659Y2831D02*
X723Y2831D01*
X759Y2831D02*
X823Y2831D01*
X1159Y2831D02*
X1223Y2831D01*
X1259Y2831D02*
X1323Y2831D01*
X1359Y2831D02*
X1423Y2831D01*
X559Y2830D02*
X624Y2830D01*
X659Y2830D02*
X724Y2830D01*
X759Y2830D02*
X824Y2830D01*
X1158Y2830D02*
X1224Y2830D01*
X1258Y2830D02*
X1324Y2830D01*
X1358Y2830D02*
X1424Y2830D01*
X558Y2829D02*
X624Y2829D01*
X658Y2829D02*
X724Y2829D01*
X758Y2829D02*
X824Y2829D01*
X1158Y2829D02*
X1224Y2829D01*
X1258Y2829D02*
X1324Y2829D01*
X1358Y2829D02*
X1424Y2829D01*
X557Y2828D02*
X625Y2828D01*
X657Y2828D02*
X725Y2828D01*
X757Y2828D02*
X825Y2828D01*
X1157Y2828D02*
X1225Y2828D01*
X1257Y2828D02*
X1325Y2828D01*
X1357Y2828D02*
X1425Y2828D01*
X557Y2827D02*
X626Y2827D01*
X657Y2827D02*
X726Y2827D01*
X757Y2827D02*
X826Y2827D01*
X1157Y2827D02*
X1225Y2827D01*
X1257Y2827D02*
X1325Y2827D01*
X1357Y2827D02*
X1425Y2827D01*
X556Y2826D02*
X626Y2826D01*
X656Y2826D02*
X726Y2826D01*
X756Y2826D02*
X826Y2826D01*
X1156Y2826D02*
X1226Y2826D01*
X1256Y2826D02*
X1326Y2826D01*
X1356Y2826D02*
X1426Y2826D01*
X556Y2825D02*
X627Y2825D01*
X656Y2825D02*
X727Y2825D01*
X756Y2825D02*
X827Y2825D01*
X1156Y2825D02*
X1227Y2825D01*
X1256Y2825D02*
X1327Y2825D01*
X1356Y2825D02*
X1426Y2825D01*
X555Y2824D02*
X627Y2824D01*
X655Y2824D02*
X727Y2824D01*
X755Y2824D02*
X827Y2824D01*
X1155Y2824D02*
X1227Y2824D01*
X1255Y2824D02*
X1327Y2824D01*
X1355Y2824D02*
X1427Y2824D01*
X555Y2823D02*
X628Y2823D01*
X655Y2823D02*
X728Y2823D01*
X755Y2823D02*
X828Y2823D01*
X1155Y2823D02*
X1227Y2823D01*
X1255Y2823D02*
X1327Y2823D01*
X1355Y2823D02*
X1427Y2823D01*
X554Y2822D02*
X628Y2822D01*
X654Y2822D02*
X728Y2822D01*
X754Y2822D02*
X828Y2822D01*
X1154Y2822D02*
X1228Y2822D01*
X1254Y2822D02*
X1328Y2822D01*
X1354Y2822D02*
X1428Y2822D01*
X554Y2821D02*
X628Y2821D01*
X654Y2821D02*
X728Y2821D01*
X754Y2821D02*
X828Y2821D01*
X1154Y2821D02*
X1228Y2821D01*
X1254Y2821D02*
X1328Y2821D01*
X1354Y2821D02*
X1428Y2821D01*
X554Y2820D02*
X629Y2820D01*
X654Y2820D02*
X729Y2820D01*
X754Y2820D02*
X829Y2820D01*
X1154Y2820D02*
X1229Y2820D01*
X1254Y2820D02*
X1329Y2820D01*
X1354Y2820D02*
X1429Y2820D01*
X553Y2819D02*
X629Y2819D01*
X653Y2819D02*
X729Y2819D01*
X753Y2819D02*
X829Y2819D01*
X1153Y2819D02*
X1229Y2819D01*
X1253Y2819D02*
X1329Y2819D01*
X1353Y2819D02*
X1429Y2819D01*
X553Y2818D02*
X629Y2818D01*
X653Y2818D02*
X729Y2818D01*
X753Y2818D02*
X829Y2818D01*
X1153Y2818D02*
X1229Y2818D01*
X1253Y2818D02*
X1329Y2818D01*
X1353Y2818D02*
X1429Y2818D01*
X553Y2817D02*
X629Y2817D01*
X653Y2817D02*
X729Y2817D01*
X753Y2817D02*
X829Y2817D01*
X1153Y2817D02*
X1229Y2817D01*
X1253Y2817D02*
X1329Y2817D01*
X1353Y2817D02*
X1429Y2817D01*
X553Y2816D02*
X630Y2816D01*
X653Y2816D02*
X730Y2816D01*
X753Y2816D02*
X830Y2816D01*
X1153Y2816D02*
X1230Y2816D01*
X1253Y2816D02*
X1330Y2816D01*
X1352Y2816D02*
X1430Y2816D01*
X552Y2815D02*
X630Y2815D01*
X652Y2815D02*
X730Y2815D01*
X752Y2815D02*
X830Y2815D01*
X1152Y2815D02*
X1230Y2815D01*
X1252Y2815D02*
X1330Y2815D01*
X1352Y2815D02*
X1430Y2815D01*
X552Y2814D02*
X630Y2814D01*
X652Y2814D02*
X730Y2814D01*
X752Y2814D02*
X830Y2814D01*
X1152Y2814D02*
X1230Y2814D01*
X1252Y2814D02*
X1330Y2814D01*
X1352Y2814D02*
X1430Y2814D01*
X552Y2813D02*
X630Y2813D01*
X652Y2813D02*
X730Y2813D01*
X752Y2813D02*
X830Y2813D01*
X1152Y2813D02*
X1230Y2813D01*
X1252Y2813D02*
X1330Y2813D01*
X1352Y2813D02*
X1430Y2813D01*
X552Y2812D02*
X630Y2812D01*
X652Y2812D02*
X730Y2812D01*
X752Y2812D02*
X830Y2812D01*
X1152Y2812D02*
X1230Y2812D01*
X1252Y2812D02*
X1330Y2812D01*
X1352Y2812D02*
X1430Y2812D01*
X552Y2811D02*
X630Y2811D01*
X652Y2811D02*
X730Y2811D01*
X752Y2811D02*
X830Y2811D01*
X1152Y2811D02*
X1230Y2811D01*
X1252Y2811D02*
X1330Y2811D01*
X1352Y2811D02*
X1430Y2811D01*
X552Y2810D02*
X630Y2810D01*
X652Y2810D02*
X730Y2810D01*
X752Y2810D02*
X830Y2810D01*
X1152Y2810D02*
X1230Y2810D01*
X1252Y2810D02*
X1330Y2810D01*
X1352Y2810D02*
X1430Y2810D01*
X552Y2809D02*
X631Y2809D01*
X652Y2809D02*
X731Y2809D01*
X752Y2809D02*
X830Y2809D01*
X1152Y2809D02*
X1230Y2809D01*
X1252Y2809D02*
X1330Y2809D01*
X1352Y2809D02*
X1430Y2809D01*
X552Y2808D02*
X631Y2808D01*
X652Y2808D02*
X731Y2808D01*
X752Y2808D02*
X831Y2808D01*
X1152Y2808D02*
X1231Y2808D01*
X1252Y2808D02*
X1331Y2808D01*
X1352Y2808D02*
X1431Y2808D01*
X552Y2807D02*
X631Y2807D01*
X652Y2807D02*
X731Y2807D01*
X752Y2807D02*
X831Y2807D01*
X1152Y2807D02*
X1231Y2807D01*
X1252Y2807D02*
X1330Y2807D01*
X1352Y2807D02*
X1430Y2807D01*
X552Y2806D02*
X631Y2806D01*
X652Y2806D02*
X730Y2806D01*
X752Y2806D02*
X830Y2806D01*
X1152Y2806D02*
X1230Y2806D01*
X1252Y2806D02*
X1330Y2806D01*
X1352Y2806D02*
X1430Y2806D01*
X552Y2805D02*
X630Y2805D01*
X652Y2805D02*
X730Y2805D01*
X752Y2805D02*
X830Y2805D01*
X1152Y2805D02*
X1230Y2805D01*
X1252Y2805D02*
X1330Y2805D01*
X1352Y2805D02*
X1430Y2805D01*
X552Y2804D02*
X630Y2804D01*
X652Y2804D02*
X730Y2804D01*
X752Y2804D02*
X830Y2804D01*
X1152Y2804D02*
X1230Y2804D01*
X1252Y2804D02*
X1330Y2804D01*
X1352Y2804D02*
X1430Y2804D01*
X552Y2803D02*
X630Y2803D01*
X652Y2803D02*
X730Y2803D01*
X752Y2803D02*
X830Y2803D01*
X1152Y2803D02*
X1230Y2803D01*
X1252Y2803D02*
X1330Y2803D01*
X1352Y2803D02*
X1430Y2803D01*
X552Y2802D02*
X630Y2802D01*
X652Y2802D02*
X730Y2802D01*
X752Y2802D02*
X830Y2802D01*
X1152Y2802D02*
X1230Y2802D01*
X1252Y2802D02*
X1330Y2802D01*
X1352Y2802D02*
X1430Y2802D01*
X552Y2801D02*
X630Y2801D01*
X652Y2801D02*
X730Y2801D01*
X752Y2801D02*
X830Y2801D01*
X1152Y2801D02*
X1230Y2801D01*
X1252Y2801D02*
X1330Y2801D01*
X1352Y2801D02*
X1430Y2801D01*
X552Y2800D02*
X630Y2800D01*
X652Y2800D02*
X730Y2800D01*
X752Y2800D02*
X830Y2800D01*
X1152Y2800D02*
X1230Y2800D01*
X1252Y2800D02*
X1330Y2800D01*
X1352Y2800D02*
X1430Y2800D01*
X553Y2799D02*
X630Y2799D01*
X653Y2799D02*
X730Y2799D01*
X753Y2799D02*
X830Y2799D01*
X1153Y2799D02*
X1230Y2799D01*
X1253Y2799D02*
X1330Y2799D01*
X1353Y2799D02*
X1429Y2799D01*
X553Y2798D02*
X629Y2798D01*
X653Y2798D02*
X729Y2798D01*
X753Y2798D02*
X829Y2798D01*
X1153Y2798D02*
X1229Y2798D01*
X1253Y2798D02*
X1329Y2798D01*
X1353Y2798D02*
X1429Y2798D01*
X553Y2797D02*
X629Y2797D01*
X653Y2797D02*
X729Y2797D01*
X753Y2797D02*
X829Y2797D01*
X1153Y2797D02*
X1229Y2797D01*
X1253Y2797D02*
X1329Y2797D01*
X1353Y2797D02*
X1429Y2797D01*
X553Y2796D02*
X629Y2796D01*
X653Y2796D02*
X729Y2796D01*
X753Y2796D02*
X829Y2796D01*
X1153Y2796D02*
X1229Y2796D01*
X1253Y2796D02*
X1329Y2796D01*
X1353Y2796D02*
X1429Y2796D01*
X554Y2795D02*
X629Y2795D01*
X654Y2795D02*
X728Y2795D01*
X754Y2795D02*
X828Y2795D01*
X1154Y2795D02*
X1228Y2795D01*
X1254Y2795D02*
X1328Y2795D01*
X1354Y2795D02*
X1428Y2795D01*
X554Y2794D02*
X628Y2794D01*
X654Y2794D02*
X728Y2794D01*
X754Y2794D02*
X828Y2794D01*
X1154Y2794D02*
X1228Y2794D01*
X1254Y2794D02*
X1328Y2794D01*
X1354Y2794D02*
X1428Y2794D01*
X554Y2793D02*
X628Y2793D01*
X654Y2793D02*
X728Y2793D01*
X754Y2793D02*
X828Y2793D01*
X1154Y2793D02*
X1228Y2793D01*
X1254Y2793D02*
X1328Y2793D01*
X1354Y2793D02*
X1428Y2793D01*
X555Y2792D02*
X627Y2792D01*
X655Y2792D02*
X727Y2792D01*
X755Y2792D02*
X827Y2792D01*
X1155Y2792D02*
X1227Y2792D01*
X1255Y2792D02*
X1327Y2792D01*
X1355Y2792D02*
X1427Y2792D01*
X555Y2791D02*
X627Y2791D01*
X655Y2791D02*
X727Y2791D01*
X755Y2791D02*
X827Y2791D01*
X1155Y2791D02*
X1227Y2791D01*
X1255Y2791D02*
X1327Y2791D01*
X1355Y2791D02*
X1427Y2791D01*
X556Y2790D02*
X626Y2790D01*
X656Y2790D02*
X726Y2790D01*
X756Y2790D02*
X826Y2790D01*
X1156Y2790D02*
X1226Y2790D01*
X1256Y2790D02*
X1326Y2790D01*
X1356Y2790D02*
X1426Y2790D01*
X556Y2789D02*
X626Y2789D01*
X656Y2789D02*
X726Y2789D01*
X756Y2789D02*
X826Y2789D01*
X1156Y2789D02*
X1226Y2789D01*
X1256Y2789D02*
X1326Y2789D01*
X1356Y2789D02*
X1426Y2789D01*
X557Y2788D02*
X625Y2788D01*
X657Y2788D02*
X725Y2788D01*
X757Y2788D02*
X825Y2788D01*
X1157Y2788D02*
X1225Y2788D01*
X1257Y2788D02*
X1325Y2788D01*
X1357Y2788D02*
X1425Y2788D01*
X557Y2787D02*
X625Y2787D01*
X657Y2787D02*
X725Y2787D01*
X757Y2787D02*
X825Y2787D01*
X1157Y2787D02*
X1225Y2787D01*
X1257Y2787D02*
X1325Y2787D01*
X1357Y2787D02*
X1425Y2787D01*
X558Y2786D02*
X624Y2786D01*
X658Y2786D02*
X724Y2786D01*
X758Y2786D02*
X824Y2786D01*
X1158Y2786D02*
X1224Y2786D01*
X1258Y2786D02*
X1324Y2786D01*
X1358Y2786D02*
X1424Y2786D01*
X559Y2785D02*
X623Y2785D01*
X659Y2785D02*
X723Y2785D01*
X759Y2785D02*
X823Y2785D01*
X1159Y2785D02*
X1223Y2785D01*
X1259Y2785D02*
X1323Y2785D01*
X1359Y2785D02*
X1423Y2785D01*
X559Y2784D02*
X623Y2784D01*
X659Y2784D02*
X723Y2784D01*
X759Y2784D02*
X823Y2784D01*
X1159Y2784D02*
X1223Y2784D01*
X1259Y2784D02*
X1323Y2784D01*
X1359Y2784D02*
X1423Y2784D01*
X560Y2783D02*
X622Y2783D01*
X660Y2783D02*
X722Y2783D01*
X760Y2783D02*
X822Y2783D01*
X1160Y2783D02*
X1222Y2783D01*
X1260Y2783D02*
X1322Y2783D01*
X1360Y2783D02*
X1422Y2783D01*
X561Y2782D02*
X621Y2782D01*
X661Y2782D02*
X721Y2782D01*
X761Y2782D02*
X821Y2782D01*
X1161Y2782D02*
X1221Y2782D01*
X1261Y2782D02*
X1321Y2782D01*
X1361Y2782D02*
X1421Y2782D01*
X562Y2781D02*
X620Y2781D01*
X662Y2781D02*
X720Y2781D01*
X762Y2781D02*
X820Y2781D01*
X1162Y2781D02*
X1220Y2781D01*
X1262Y2781D02*
X1320Y2781D01*
X1362Y2781D02*
X1420Y2781D01*
X563Y2780D02*
X619Y2780D01*
X663Y2780D02*
X719Y2780D01*
X763Y2780D02*
X819Y2780D01*
X1163Y2780D02*
X1219Y2780D01*
X1263Y2780D02*
X1319Y2780D01*
X1363Y2780D02*
X1419Y2780D01*
X564Y2779D02*
X619Y2779D01*
X664Y2779D02*
X718Y2779D01*
X764Y2779D02*
X818Y2779D01*
X1164Y2779D02*
X1218Y2779D01*
X1264Y2779D02*
X1318Y2779D01*
X1364Y2779D02*
X1418Y2779D01*
X565Y2778D02*
X617Y2778D01*
X665Y2778D02*
X717Y2778D01*
X765Y2778D02*
X817Y2778D01*
X1165Y2778D02*
X1217Y2778D01*
X1265Y2778D02*
X1317Y2778D01*
X1365Y2778D02*
X1417Y2778D01*
X566Y2777D02*
X616Y2777D01*
X666Y2777D02*
X716Y2777D01*
X766Y2777D02*
X816Y2777D01*
X1166Y2777D02*
X1216Y2777D01*
X1266Y2777D02*
X1316Y2777D01*
X1366Y2777D02*
X1416Y2777D01*
X567Y2776D02*
X615Y2776D01*
X667Y2776D02*
X715Y2776D01*
X767Y2776D02*
X815Y2776D01*
X1167Y2776D02*
X1215Y2776D01*
X1267Y2776D02*
X1315Y2776D01*
X1367Y2776D02*
X1415Y2776D01*
X569Y2775D02*
X614Y2775D01*
X669Y2775D02*
X714Y2775D01*
X769Y2775D02*
X814Y2775D01*
X1169Y2775D02*
X1214Y2775D01*
X1269Y2775D02*
X1314Y2775D01*
X1369Y2775D02*
X1414Y2775D01*
X570Y2774D02*
X612Y2774D01*
X670Y2774D02*
X712Y2774D01*
X770Y2774D02*
X812Y2774D01*
X1170Y2774D02*
X1212Y2774D01*
X1270Y2774D02*
X1312Y2774D01*
X1370Y2774D02*
X1412Y2774D01*
X572Y2773D02*
X610Y2773D01*
X672Y2773D02*
X710Y2773D01*
X772Y2773D02*
X810Y2773D01*
X1172Y2773D02*
X1210Y2773D01*
X1272Y2773D02*
X1310Y2773D01*
X1372Y2773D02*
X1410Y2773D01*
X574Y2772D02*
X609Y2772D01*
X674Y2772D02*
X709Y2772D01*
X774Y2772D02*
X809Y2772D01*
X1173Y2772D02*
X1209Y2772D01*
X1273Y2772D02*
X1309Y2772D01*
X1373Y2772D02*
X1409Y2772D01*
X576Y2771D02*
X607Y2771D01*
X676Y2771D02*
X707Y2771D01*
X776Y2771D02*
X807Y2771D01*
X1176Y2771D02*
X1207Y2771D01*
X1276Y2771D02*
X1307Y2771D01*
X1376Y2771D02*
X1407Y2771D01*
X578Y2770D02*
X604Y2770D01*
X678Y2770D02*
X704Y2770D01*
X778Y2770D02*
X804Y2770D01*
X1178Y2770D02*
X1204Y2770D01*
X1278Y2770D02*
X1304Y2770D01*
X1378Y2770D02*
X1404Y2770D01*
X582Y2769D02*
X601Y2769D01*
X682Y2769D02*
X701Y2769D01*
X782Y2769D02*
X801Y2769D01*
X1182Y2769D02*
X1201Y2769D01*
X1282Y2769D02*
X1301Y2769D01*
X1382Y2769D02*
X1401Y2769D01*
X587Y2768D02*
X595Y2768D01*
X687Y2768D02*
X695Y2768D01*
X787Y2768D02*
X795Y2768D01*
X1187Y2768D02*
X1195Y2768D01*
X1287Y2768D02*
X1295Y2768D01*
X1387Y2768D02*
X1395Y2768D01*
X585Y2347D02*
X597Y2347D01*
X685Y2347D02*
X697Y2347D01*
X785Y2347D02*
X797Y2347D01*
X1185Y2347D02*
X1197Y2347D01*
X1285Y2347D02*
X1297Y2347D01*
X1385Y2347D02*
X1397Y2347D01*
X580Y2346D02*
X602Y2346D01*
X680Y2346D02*
X702Y2346D01*
X780Y2346D02*
X802Y2346D01*
X1180Y2346D02*
X1202Y2346D01*
X1280Y2346D02*
X1302Y2346D01*
X1380Y2346D02*
X1402Y2346D01*
X577Y2345D02*
X605Y2345D01*
X677Y2345D02*
X705Y2345D01*
X777Y2345D02*
X805Y2345D01*
X1177Y2345D02*
X1205Y2345D01*
X1277Y2345D02*
X1305Y2345D01*
X1377Y2345D02*
X1405Y2345D01*
X575Y2344D02*
X607Y2344D01*
X675Y2344D02*
X707Y2344D01*
X775Y2344D02*
X807Y2344D01*
X1175Y2344D02*
X1207Y2344D01*
X1275Y2344D02*
X1307Y2344D01*
X1375Y2344D02*
X1407Y2344D01*
X573Y2343D02*
X609Y2343D01*
X673Y2343D02*
X709Y2343D01*
X773Y2343D02*
X809Y2343D01*
X1173Y2343D02*
X1209Y2343D01*
X1273Y2343D02*
X1309Y2343D01*
X1373Y2343D02*
X1409Y2343D01*
X571Y2342D02*
X611Y2342D01*
X671Y2342D02*
X711Y2342D01*
X771Y2342D02*
X811Y2342D01*
X1171Y2342D02*
X1211Y2342D01*
X1271Y2342D02*
X1311Y2342D01*
X1371Y2342D02*
X1411Y2342D01*
X570Y2341D02*
X613Y2341D01*
X670Y2341D02*
X713Y2341D01*
X770Y2341D02*
X813Y2341D01*
X1170Y2341D02*
X1213Y2341D01*
X1270Y2341D02*
X1313Y2341D01*
X1370Y2341D02*
X1412Y2341D01*
X568Y2340D02*
X614Y2340D01*
X668Y2340D02*
X714Y2340D01*
X768Y2340D02*
X814Y2340D01*
X1168Y2340D02*
X1214Y2340D01*
X1268Y2340D02*
X1314Y2340D01*
X1368Y2340D02*
X1414Y2340D01*
X567Y2339D02*
X615Y2339D01*
X667Y2339D02*
X715Y2339D01*
X767Y2339D02*
X815Y2339D01*
X1167Y2339D02*
X1215Y2339D01*
X1267Y2339D02*
X1315Y2339D01*
X1367Y2339D02*
X1415Y2339D01*
X566Y2338D02*
X617Y2338D01*
X666Y2338D02*
X717Y2338D01*
X766Y2338D02*
X817Y2338D01*
X1166Y2338D02*
X1217Y2338D01*
X1266Y2338D02*
X1317Y2338D01*
X1366Y2338D02*
X1417Y2338D01*
X564Y2337D02*
X618Y2337D01*
X664Y2337D02*
X718Y2337D01*
X764Y2337D02*
X818Y2337D01*
X1164Y2337D02*
X1218Y2337D01*
X1264Y2337D02*
X1318Y2337D01*
X1364Y2337D02*
X1418Y2337D01*
X563Y2336D02*
X619Y2336D01*
X663Y2336D02*
X719Y2336D01*
X763Y2336D02*
X819Y2336D01*
X1163Y2336D02*
X1219Y2336D01*
X1263Y2336D02*
X1319Y2336D01*
X1363Y2336D02*
X1419Y2336D01*
X562Y2335D02*
X620Y2335D01*
X662Y2335D02*
X720Y2335D01*
X762Y2335D02*
X820Y2335D01*
X1162Y2335D02*
X1220Y2335D01*
X1262Y2335D02*
X1320Y2335D01*
X1362Y2335D02*
X1420Y2335D01*
X562Y2334D02*
X621Y2334D01*
X662Y2334D02*
X721Y2334D01*
X762Y2334D02*
X821Y2334D01*
X1162Y2334D02*
X1221Y2334D01*
X1262Y2334D02*
X1321Y2334D01*
X1362Y2334D02*
X1421Y2334D01*
X561Y2333D02*
X621Y2333D01*
X661Y2333D02*
X721Y2333D01*
X761Y2333D02*
X821Y2333D01*
X1161Y2333D02*
X1221Y2333D01*
X1261Y2333D02*
X1321Y2333D01*
X1361Y2333D02*
X1421Y2333D01*
X560Y2332D02*
X622Y2332D01*
X660Y2332D02*
X722Y2332D01*
X760Y2332D02*
X822Y2332D01*
X1160Y2332D02*
X1222Y2332D01*
X1260Y2332D02*
X1322Y2332D01*
X1360Y2332D02*
X1422Y2332D01*
X559Y2331D02*
X623Y2331D01*
X659Y2331D02*
X723Y2331D01*
X759Y2331D02*
X823Y2331D01*
X1159Y2331D02*
X1223Y2331D01*
X1259Y2331D02*
X1323Y2331D01*
X1359Y2331D02*
X1423Y2331D01*
X559Y2330D02*
X624Y2330D01*
X658Y2330D02*
X724Y2330D01*
X758Y2330D02*
X824Y2330D01*
X1158Y2330D02*
X1224Y2330D01*
X1258Y2330D02*
X1324Y2330D01*
X1358Y2330D02*
X1424Y2330D01*
X558Y2329D02*
X624Y2329D01*
X658Y2329D02*
X724Y2329D01*
X758Y2329D02*
X824Y2329D01*
X1158Y2329D02*
X1224Y2329D01*
X1258Y2329D02*
X1324Y2329D01*
X1358Y2329D02*
X1424Y2329D01*
X557Y2328D02*
X625Y2328D01*
X657Y2328D02*
X725Y2328D01*
X757Y2328D02*
X825Y2328D01*
X1157Y2328D02*
X1225Y2328D01*
X1257Y2328D02*
X1325Y2328D01*
X1357Y2328D02*
X1425Y2328D01*
X557Y2327D02*
X626Y2327D01*
X657Y2327D02*
X726Y2327D01*
X757Y2327D02*
X826Y2327D01*
X1157Y2327D02*
X1226Y2327D01*
X1257Y2327D02*
X1325Y2327D01*
X1357Y2327D02*
X1425Y2327D01*
X556Y2326D02*
X626Y2326D01*
X656Y2326D02*
X726Y2326D01*
X756Y2326D02*
X826Y2326D01*
X1156Y2326D02*
X1226Y2326D01*
X1256Y2326D02*
X1326Y2326D01*
X1356Y2326D02*
X1426Y2326D01*
X556Y2325D02*
X627Y2325D01*
X656Y2325D02*
X727Y2325D01*
X756Y2325D02*
X827Y2325D01*
X1156Y2325D02*
X1227Y2325D01*
X1256Y2325D02*
X1327Y2325D01*
X1356Y2325D02*
X1427Y2325D01*
X555Y2324D02*
X627Y2324D01*
X655Y2324D02*
X727Y2324D01*
X755Y2324D02*
X827Y2324D01*
X1155Y2324D02*
X1227Y2324D01*
X1255Y2324D02*
X1327Y2324D01*
X1355Y2324D02*
X1427Y2324D01*
X555Y2323D02*
X628Y2323D01*
X655Y2323D02*
X728Y2323D01*
X755Y2323D02*
X828Y2323D01*
X1155Y2323D02*
X1227Y2323D01*
X1255Y2323D02*
X1327Y2323D01*
X1355Y2323D02*
X1427Y2323D01*
X554Y2322D02*
X628Y2322D01*
X654Y2322D02*
X728Y2322D01*
X754Y2322D02*
X828Y2322D01*
X1154Y2322D02*
X1228Y2322D01*
X1254Y2322D02*
X1328Y2322D01*
X1354Y2322D02*
X1428Y2322D01*
X554Y2321D02*
X628Y2321D01*
X654Y2321D02*
X728Y2321D01*
X754Y2321D02*
X828Y2321D01*
X1154Y2321D02*
X1228Y2321D01*
X1254Y2321D02*
X1328Y2321D01*
X1354Y2321D02*
X1428Y2321D01*
X554Y2320D02*
X629Y2320D01*
X654Y2320D02*
X729Y2320D01*
X754Y2320D02*
X829Y2320D01*
X1154Y2320D02*
X1229Y2320D01*
X1254Y2320D02*
X1329Y2320D01*
X1354Y2320D02*
X1429Y2320D01*
X553Y2319D02*
X629Y2319D01*
X653Y2319D02*
X729Y2319D01*
X753Y2319D02*
X829Y2319D01*
X1153Y2319D02*
X1229Y2319D01*
X1253Y2319D02*
X1329Y2319D01*
X1353Y2319D02*
X1429Y2319D01*
X553Y2318D02*
X629Y2318D01*
X653Y2318D02*
X729Y2318D01*
X753Y2318D02*
X829Y2318D01*
X1153Y2318D02*
X1229Y2318D01*
X1253Y2318D02*
X1329Y2318D01*
X1353Y2318D02*
X1429Y2318D01*
X553Y2317D02*
X629Y2317D01*
X653Y2317D02*
X729Y2317D01*
X753Y2317D02*
X829Y2317D01*
X1153Y2317D02*
X1229Y2317D01*
X1253Y2317D02*
X1329Y2317D01*
X1353Y2317D02*
X1429Y2317D01*
X553Y2316D02*
X630Y2316D01*
X653Y2316D02*
X730Y2316D01*
X753Y2316D02*
X830Y2316D01*
X1153Y2316D02*
X1230Y2316D01*
X1253Y2316D02*
X1330Y2316D01*
X1352Y2316D02*
X1430Y2316D01*
X552Y2315D02*
X630Y2315D01*
X652Y2315D02*
X730Y2315D01*
X752Y2315D02*
X830Y2315D01*
X1152Y2315D02*
X1230Y2315D01*
X1252Y2315D02*
X1330Y2315D01*
X1352Y2315D02*
X1430Y2315D01*
X552Y2314D02*
X630Y2314D01*
X652Y2314D02*
X730Y2314D01*
X752Y2314D02*
X830Y2314D01*
X1152Y2314D02*
X1230Y2314D01*
X1252Y2314D02*
X1330Y2314D01*
X1352Y2314D02*
X1430Y2314D01*
X552Y2313D02*
X630Y2313D01*
X652Y2313D02*
X730Y2313D01*
X752Y2313D02*
X830Y2313D01*
X1152Y2313D02*
X1230Y2313D01*
X1252Y2313D02*
X1330Y2313D01*
X1352Y2313D02*
X1430Y2313D01*
X552Y2312D02*
X630Y2312D01*
X652Y2312D02*
X730Y2312D01*
X752Y2312D02*
X830Y2312D01*
X1152Y2312D02*
X1230Y2312D01*
X1252Y2312D02*
X1330Y2312D01*
X1352Y2312D02*
X1430Y2312D01*
X552Y2311D02*
X630Y2311D01*
X652Y2311D02*
X730Y2311D01*
X752Y2311D02*
X830Y2311D01*
X1152Y2311D02*
X1230Y2311D01*
X1252Y2311D02*
X1330Y2311D01*
X1352Y2311D02*
X1430Y2311D01*
X552Y2310D02*
X630Y2310D01*
X652Y2310D02*
X730Y2310D01*
X752Y2310D02*
X830Y2310D01*
X1152Y2310D02*
X1230Y2310D01*
X1252Y2310D02*
X1330Y2310D01*
X1352Y2310D02*
X1430Y2310D01*
X552Y2309D02*
X631Y2309D01*
X652Y2309D02*
X731Y2309D01*
X752Y2309D02*
X831Y2309D01*
X1152Y2309D02*
X1230Y2309D01*
X1252Y2309D02*
X1330Y2309D01*
X1352Y2309D02*
X1430Y2309D01*
X552Y2308D02*
X631Y2308D01*
X652Y2308D02*
X731Y2308D01*
X752Y2308D02*
X831Y2308D01*
X1152Y2308D02*
X1231Y2308D01*
X1252Y2308D02*
X1331Y2308D01*
X1352Y2308D02*
X1431Y2308D01*
X552Y2307D02*
X631Y2307D01*
X652Y2307D02*
X731Y2307D01*
X752Y2307D02*
X831Y2307D01*
X1152Y2307D02*
X1231Y2307D01*
X1252Y2307D02*
X1330Y2307D01*
X1352Y2307D02*
X1430Y2307D01*
X552Y2306D02*
X631Y2306D01*
X652Y2306D02*
X730Y2306D01*
X752Y2306D02*
X830Y2306D01*
X1152Y2306D02*
X1230Y2306D01*
X1252Y2306D02*
X1330Y2306D01*
X1352Y2306D02*
X1430Y2306D01*
X552Y2305D02*
X630Y2305D01*
X652Y2305D02*
X730Y2305D01*
X752Y2305D02*
X830Y2305D01*
X1152Y2305D02*
X1230Y2305D01*
X1252Y2305D02*
X1330Y2305D01*
X1352Y2305D02*
X1430Y2305D01*
X552Y2304D02*
X630Y2304D01*
X652Y2304D02*
X730Y2304D01*
X752Y2304D02*
X830Y2304D01*
X1152Y2304D02*
X1230Y2304D01*
X1252Y2304D02*
X1330Y2304D01*
X1352Y2304D02*
X1430Y2304D01*
X552Y2303D02*
X630Y2303D01*
X652Y2303D02*
X730Y2303D01*
X752Y2303D02*
X830Y2303D01*
X1152Y2303D02*
X1230Y2303D01*
X1252Y2303D02*
X1330Y2303D01*
X1352Y2303D02*
X1430Y2303D01*
X552Y2302D02*
X630Y2302D01*
X652Y2302D02*
X730Y2302D01*
X752Y2302D02*
X830Y2302D01*
X1152Y2302D02*
X1230Y2302D01*
X1252Y2302D02*
X1330Y2302D01*
X1352Y2302D02*
X1430Y2302D01*
X552Y2301D02*
X630Y2301D01*
X652Y2301D02*
X730Y2301D01*
X752Y2301D02*
X830Y2301D01*
X1152Y2301D02*
X1230Y2301D01*
X1252Y2301D02*
X1330Y2301D01*
X1352Y2301D02*
X1430Y2301D01*
X552Y2300D02*
X630Y2300D01*
X652Y2300D02*
X730Y2300D01*
X752Y2300D02*
X830Y2300D01*
X1152Y2300D02*
X1230Y2300D01*
X1252Y2300D02*
X1330Y2300D01*
X1352Y2300D02*
X1430Y2300D01*
X553Y2299D02*
X630Y2299D01*
X653Y2299D02*
X730Y2299D01*
X753Y2299D02*
X830Y2299D01*
X1153Y2299D02*
X1229Y2299D01*
X1253Y2299D02*
X1329Y2299D01*
X1353Y2299D02*
X1429Y2299D01*
X553Y2298D02*
X629Y2298D01*
X653Y2298D02*
X729Y2298D01*
X753Y2298D02*
X829Y2298D01*
X1153Y2298D02*
X1229Y2298D01*
X1253Y2298D02*
X1329Y2298D01*
X1353Y2298D02*
X1429Y2298D01*
X553Y2297D02*
X629Y2297D01*
X653Y2297D02*
X729Y2297D01*
X753Y2297D02*
X829Y2297D01*
X1153Y2297D02*
X1229Y2297D01*
X1253Y2297D02*
X1329Y2297D01*
X1353Y2297D02*
X1429Y2297D01*
X553Y2296D02*
X629Y2296D01*
X653Y2296D02*
X729Y2296D01*
X753Y2296D02*
X829Y2296D01*
X1153Y2296D02*
X1229Y2296D01*
X1253Y2296D02*
X1329Y2296D01*
X1353Y2296D02*
X1429Y2296D01*
X554Y2295D02*
X628Y2295D01*
X654Y2295D02*
X728Y2295D01*
X754Y2295D02*
X828Y2295D01*
X1154Y2295D02*
X1228Y2295D01*
X1254Y2295D02*
X1328Y2295D01*
X1354Y2295D02*
X1428Y2295D01*
X554Y2294D02*
X628Y2294D01*
X654Y2294D02*
X728Y2294D01*
X754Y2294D02*
X828Y2294D01*
X1154Y2294D02*
X1228Y2294D01*
X1254Y2294D02*
X1328Y2294D01*
X1354Y2294D02*
X1428Y2294D01*
X554Y2293D02*
X628Y2293D01*
X654Y2293D02*
X728Y2293D01*
X754Y2293D02*
X828Y2293D01*
X1154Y2293D02*
X1228Y2293D01*
X1254Y2293D02*
X1328Y2293D01*
X1354Y2293D02*
X1428Y2293D01*
X555Y2292D02*
X627Y2292D01*
X655Y2292D02*
X727Y2292D01*
X755Y2292D02*
X827Y2292D01*
X1155Y2292D02*
X1227Y2292D01*
X1255Y2292D02*
X1327Y2292D01*
X1355Y2292D02*
X1427Y2292D01*
X555Y2291D02*
X627Y2291D01*
X655Y2291D02*
X727Y2291D01*
X755Y2291D02*
X827Y2291D01*
X1155Y2291D02*
X1227Y2291D01*
X1255Y2291D02*
X1327Y2291D01*
X1355Y2291D02*
X1427Y2291D01*
X556Y2290D02*
X626Y2290D01*
X656Y2290D02*
X726Y2290D01*
X756Y2290D02*
X826Y2290D01*
X1156Y2290D02*
X1226Y2290D01*
X1256Y2290D02*
X1326Y2290D01*
X1356Y2290D02*
X1426Y2290D01*
X556Y2289D02*
X626Y2289D01*
X656Y2289D02*
X726Y2289D01*
X756Y2289D02*
X826Y2289D01*
X1156Y2289D02*
X1226Y2289D01*
X1256Y2289D02*
X1326Y2289D01*
X1356Y2289D02*
X1426Y2289D01*
X557Y2288D02*
X625Y2288D01*
X657Y2288D02*
X725Y2288D01*
X757Y2288D02*
X825Y2288D01*
X1157Y2288D02*
X1225Y2288D01*
X1257Y2288D02*
X1325Y2288D01*
X1357Y2288D02*
X1425Y2288D01*
X557Y2287D02*
X625Y2287D01*
X657Y2287D02*
X725Y2287D01*
X757Y2287D02*
X825Y2287D01*
X1157Y2287D02*
X1225Y2287D01*
X1257Y2287D02*
X1325Y2287D01*
X1357Y2287D02*
X1425Y2287D01*
X558Y2286D02*
X624Y2286D01*
X658Y2286D02*
X724Y2286D01*
X758Y2286D02*
X824Y2286D01*
X1158Y2286D02*
X1224Y2286D01*
X1258Y2286D02*
X1324Y2286D01*
X1358Y2286D02*
X1424Y2286D01*
X559Y2285D02*
X623Y2285D01*
X659Y2285D02*
X723Y2285D01*
X759Y2285D02*
X823Y2285D01*
X1159Y2285D02*
X1223Y2285D01*
X1259Y2285D02*
X1323Y2285D01*
X1359Y2285D02*
X1423Y2285D01*
X560Y2284D02*
X623Y2284D01*
X659Y2284D02*
X723Y2284D01*
X759Y2284D02*
X823Y2284D01*
X1159Y2284D02*
X1223Y2284D01*
X1259Y2284D02*
X1323Y2284D01*
X1359Y2284D02*
X1423Y2284D01*
X560Y2283D02*
X622Y2283D01*
X660Y2283D02*
X722Y2283D01*
X760Y2283D02*
X822Y2283D01*
X1160Y2283D02*
X1222Y2283D01*
X1260Y2283D02*
X1322Y2283D01*
X1360Y2283D02*
X1422Y2283D01*
X561Y2282D02*
X621Y2282D01*
X661Y2282D02*
X721Y2282D01*
X761Y2282D02*
X821Y2282D01*
X1161Y2282D02*
X1221Y2282D01*
X1261Y2282D02*
X1321Y2282D01*
X1361Y2282D02*
X1421Y2282D01*
X562Y2281D02*
X620Y2281D01*
X662Y2281D02*
X720Y2281D01*
X762Y2281D02*
X820Y2281D01*
X1162Y2281D02*
X1220Y2281D01*
X1262Y2281D02*
X1320Y2281D01*
X1362Y2281D02*
X1420Y2281D01*
X563Y2280D02*
X619Y2280D01*
X663Y2280D02*
X719Y2280D01*
X763Y2280D02*
X819Y2280D01*
X1163Y2280D02*
X1219Y2280D01*
X1263Y2280D02*
X1319Y2280D01*
X1363Y2280D02*
X1419Y2280D01*
X564Y2279D02*
X618Y2279D01*
X664Y2279D02*
X718Y2279D01*
X764Y2279D02*
X818Y2279D01*
X1164Y2279D02*
X1218Y2279D01*
X1264Y2279D02*
X1318Y2279D01*
X1364Y2279D02*
X1418Y2279D01*
X565Y2278D02*
X617Y2278D01*
X665Y2278D02*
X717Y2278D01*
X765Y2278D02*
X817Y2278D01*
X1165Y2278D02*
X1217Y2278D01*
X1265Y2278D02*
X1317Y2278D01*
X1365Y2278D02*
X1417Y2278D01*
X566Y2277D02*
X616Y2277D01*
X666Y2277D02*
X716Y2277D01*
X766Y2277D02*
X816Y2277D01*
X1166Y2277D02*
X1216Y2277D01*
X1266Y2277D02*
X1316Y2277D01*
X1366Y2277D02*
X1416Y2277D01*
X567Y2276D02*
X615Y2276D01*
X667Y2276D02*
X715Y2276D01*
X767Y2276D02*
X815Y2276D01*
X1167Y2276D02*
X1215Y2276D01*
X1267Y2276D02*
X1315Y2276D01*
X1367Y2276D02*
X1415Y2276D01*
X569Y2275D02*
X614Y2275D01*
X669Y2275D02*
X714Y2275D01*
X769Y2275D02*
X813Y2275D01*
X1169Y2275D02*
X1213Y2275D01*
X1269Y2275D02*
X1313Y2275D01*
X1369Y2275D02*
X1413Y2275D01*
X570Y2274D02*
X612Y2274D01*
X670Y2274D02*
X712Y2274D01*
X770Y2274D02*
X812Y2274D01*
X1170Y2274D02*
X1212Y2274D01*
X1270Y2274D02*
X1312Y2274D01*
X1370Y2274D02*
X1412Y2274D01*
X572Y2273D02*
X610Y2273D01*
X672Y2273D02*
X710Y2273D01*
X772Y2273D02*
X810Y2273D01*
X1172Y2273D02*
X1210Y2273D01*
X1272Y2273D02*
X1310Y2273D01*
X1372Y2273D02*
X1410Y2273D01*
X574Y2272D02*
X609Y2272D01*
X674Y2272D02*
X709Y2272D01*
X774Y2272D02*
X809Y2272D01*
X1174Y2272D02*
X1209Y2272D01*
X1274Y2272D02*
X1308Y2272D01*
X1374Y2272D02*
X1408Y2272D01*
X576Y2271D02*
X607Y2271D01*
X676Y2271D02*
X707Y2271D01*
X776Y2271D02*
X807Y2271D01*
X1176Y2271D02*
X1206Y2271D01*
X1276Y2271D02*
X1306Y2271D01*
X1376Y2271D02*
X1406Y2271D01*
X578Y2270D02*
X604Y2270D01*
X678Y2270D02*
X704Y2270D01*
X778Y2270D02*
X804Y2270D01*
X1178Y2270D02*
X1204Y2270D01*
X1278Y2270D02*
X1304Y2270D01*
X1378Y2270D02*
X1404Y2270D01*
X582Y2269D02*
X600Y2269D01*
X682Y2269D02*
X700Y2269D01*
X782Y2269D02*
X800Y2269D01*
X1182Y2269D02*
X1200Y2269D01*
X1282Y2269D02*
X1300Y2269D01*
X1382Y2269D02*
X1400Y2269D01*
X587Y2268D02*
X595Y2268D01*
X687Y2268D02*
X695Y2268D01*
X787Y2268D02*
X795Y2268D01*
X1187Y2268D02*
X1195Y2268D01*
X1287Y2268D02*
X1295Y2268D01*
X1387Y2268D02*
X1395Y2268D01*
X585Y1747D02*
X598Y1747D01*
X685Y1747D02*
X698Y1747D01*
X785Y1747D02*
X798Y1747D01*
X1184Y1747D02*
X1198Y1747D01*
X1284Y1747D02*
X1298Y1747D01*
X1384Y1747D02*
X1398Y1747D01*
X580Y1746D02*
X602Y1746D01*
X680Y1746D02*
X702Y1746D01*
X780Y1746D02*
X802Y1746D01*
X1180Y1746D02*
X1202Y1746D01*
X1280Y1746D02*
X1302Y1746D01*
X1380Y1746D02*
X1402Y1746D01*
X577Y1745D02*
X605Y1745D01*
X677Y1745D02*
X705Y1745D01*
X777Y1745D02*
X805Y1745D01*
X1177Y1745D02*
X1205Y1745D01*
X1277Y1745D02*
X1305Y1745D01*
X1377Y1745D02*
X1405Y1745D01*
X575Y1744D02*
X607Y1744D01*
X675Y1744D02*
X707Y1744D01*
X775Y1744D02*
X807Y1744D01*
X1175Y1744D02*
X1207Y1744D01*
X1275Y1744D02*
X1307Y1744D01*
X1375Y1744D02*
X1407Y1744D01*
X573Y1743D02*
X609Y1743D01*
X673Y1743D02*
X709Y1743D01*
X773Y1743D02*
X809Y1743D01*
X1173Y1743D02*
X1209Y1743D01*
X1273Y1743D02*
X1309Y1743D01*
X1373Y1743D02*
X1409Y1743D01*
X571Y1742D02*
X611Y1742D01*
X671Y1742D02*
X711Y1742D01*
X771Y1742D02*
X811Y1742D01*
X1171Y1742D02*
X1211Y1742D01*
X1271Y1742D02*
X1311Y1742D01*
X1371Y1742D02*
X1411Y1742D01*
X570Y1741D02*
X613Y1741D01*
X670Y1741D02*
X713Y1741D01*
X770Y1741D02*
X813Y1741D01*
X1169Y1741D02*
X1213Y1741D01*
X1269Y1741D02*
X1313Y1741D01*
X1369Y1741D02*
X1413Y1741D01*
X568Y1740D02*
X614Y1740D01*
X668Y1740D02*
X714Y1740D01*
X768Y1740D02*
X814Y1740D01*
X1168Y1740D02*
X1214Y1740D01*
X1268Y1740D02*
X1314Y1740D01*
X1368Y1740D02*
X1414Y1740D01*
X567Y1739D02*
X615Y1739D01*
X667Y1739D02*
X715Y1739D01*
X767Y1739D02*
X815Y1739D01*
X1167Y1739D02*
X1215Y1739D01*
X1267Y1739D02*
X1315Y1739D01*
X1367Y1739D02*
X1415Y1739D01*
X566Y1738D02*
X617Y1738D01*
X666Y1738D02*
X717Y1738D01*
X766Y1738D02*
X817Y1738D01*
X1165Y1738D02*
X1217Y1738D01*
X1265Y1738D02*
X1317Y1738D01*
X1365Y1738D02*
X1417Y1738D01*
X564Y1737D02*
X618Y1737D01*
X664Y1737D02*
X718Y1737D01*
X764Y1737D02*
X818Y1737D01*
X1164Y1737D02*
X1218Y1737D01*
X1264Y1737D02*
X1318Y1737D01*
X1364Y1737D02*
X1418Y1737D01*
X563Y1736D02*
X619Y1736D01*
X663Y1736D02*
X719Y1736D01*
X763Y1736D02*
X819Y1736D01*
X1163Y1736D02*
X1219Y1736D01*
X1263Y1736D02*
X1319Y1736D01*
X1363Y1736D02*
X1419Y1736D01*
X562Y1735D02*
X620Y1735D01*
X662Y1735D02*
X720Y1735D01*
X762Y1735D02*
X820Y1735D01*
X1162Y1735D02*
X1220Y1735D01*
X1262Y1735D02*
X1320Y1735D01*
X1362Y1735D02*
X1420Y1735D01*
X562Y1734D02*
X621Y1734D01*
X662Y1734D02*
X721Y1734D01*
X761Y1734D02*
X821Y1734D01*
X1161Y1734D02*
X1221Y1734D01*
X1261Y1734D02*
X1321Y1734D01*
X1361Y1734D02*
X1421Y1734D01*
X561Y1733D02*
X622Y1733D01*
X661Y1733D02*
X722Y1733D01*
X761Y1733D02*
X822Y1733D01*
X1161Y1733D02*
X1221Y1733D01*
X1261Y1733D02*
X1321Y1733D01*
X1361Y1733D02*
X1421Y1733D01*
X560Y1732D02*
X622Y1732D01*
X660Y1732D02*
X722Y1732D01*
X760Y1732D02*
X822Y1732D01*
X1160Y1732D02*
X1222Y1732D01*
X1260Y1732D02*
X1322Y1732D01*
X1360Y1732D02*
X1422Y1732D01*
X559Y1731D02*
X623Y1731D01*
X659Y1731D02*
X723Y1731D01*
X759Y1731D02*
X823Y1731D01*
X1159Y1731D02*
X1223Y1731D01*
X1259Y1731D02*
X1323Y1731D01*
X1359Y1731D02*
X1423Y1731D01*
X558Y1730D02*
X624Y1730D01*
X658Y1730D02*
X724Y1730D01*
X758Y1730D02*
X824Y1730D01*
X1158Y1730D02*
X1224Y1730D01*
X1258Y1730D02*
X1324Y1730D01*
X1358Y1730D02*
X1424Y1730D01*
X558Y1729D02*
X624Y1729D01*
X658Y1729D02*
X724Y1729D01*
X758Y1729D02*
X824Y1729D01*
X1158Y1729D02*
X1224Y1729D01*
X1258Y1729D02*
X1324Y1729D01*
X1358Y1729D02*
X1424Y1729D01*
X557Y1728D02*
X625Y1728D01*
X657Y1728D02*
X725Y1728D01*
X757Y1728D02*
X825Y1728D01*
X1157Y1728D02*
X1225Y1728D01*
X1257Y1728D02*
X1325Y1728D01*
X1357Y1728D02*
X1425Y1728D01*
X557Y1727D02*
X626Y1727D01*
X657Y1727D02*
X726Y1727D01*
X757Y1727D02*
X826Y1727D01*
X1157Y1727D02*
X1226Y1727D01*
X1257Y1727D02*
X1326Y1727D01*
X1357Y1727D02*
X1426Y1727D01*
X556Y1726D02*
X626Y1726D01*
X656Y1726D02*
X726Y1726D01*
X756Y1726D02*
X826Y1726D01*
X1156Y1726D02*
X1226Y1726D01*
X1256Y1726D02*
X1326Y1726D01*
X1356Y1726D02*
X1426Y1726D01*
X556Y1725D02*
X627Y1725D01*
X656Y1725D02*
X727Y1725D01*
X756Y1725D02*
X827Y1725D01*
X1156Y1725D02*
X1227Y1725D01*
X1256Y1725D02*
X1327Y1725D01*
X1356Y1725D02*
X1427Y1725D01*
X555Y1724D02*
X627Y1724D01*
X655Y1724D02*
X727Y1724D01*
X755Y1724D02*
X827Y1724D01*
X1155Y1724D02*
X1227Y1724D01*
X1255Y1724D02*
X1327Y1724D01*
X1355Y1724D02*
X1427Y1724D01*
X555Y1723D02*
X628Y1723D01*
X655Y1723D02*
X728Y1723D01*
X755Y1723D02*
X828Y1723D01*
X1155Y1723D02*
X1228Y1723D01*
X1255Y1723D02*
X1327Y1723D01*
X1355Y1723D02*
X1427Y1723D01*
X554Y1722D02*
X628Y1722D01*
X654Y1722D02*
X728Y1722D01*
X754Y1722D02*
X828Y1722D01*
X1154Y1722D02*
X1228Y1722D01*
X1254Y1722D02*
X1328Y1722D01*
X1354Y1722D02*
X1428Y1722D01*
X554Y1721D02*
X628Y1721D01*
X654Y1721D02*
X728Y1721D01*
X754Y1721D02*
X828Y1721D01*
X1154Y1721D02*
X1228Y1721D01*
X1254Y1721D02*
X1328Y1721D01*
X1354Y1721D02*
X1428Y1721D01*
X554Y1720D02*
X629Y1720D01*
X654Y1720D02*
X729Y1720D01*
X754Y1720D02*
X829Y1720D01*
X1154Y1720D02*
X1229Y1720D01*
X1254Y1720D02*
X1329Y1720D01*
X1354Y1720D02*
X1429Y1720D01*
X553Y1719D02*
X629Y1719D01*
X653Y1719D02*
X729Y1719D01*
X753Y1719D02*
X829Y1719D01*
X1153Y1719D02*
X1229Y1719D01*
X1253Y1719D02*
X1329Y1719D01*
X1353Y1719D02*
X1429Y1719D01*
X553Y1718D02*
X629Y1718D01*
X653Y1718D02*
X729Y1718D01*
X753Y1718D02*
X829Y1718D01*
X1153Y1718D02*
X1229Y1718D01*
X1253Y1718D02*
X1329Y1718D01*
X1353Y1718D02*
X1429Y1718D01*
X553Y1717D02*
X629Y1717D01*
X653Y1717D02*
X729Y1717D01*
X753Y1717D02*
X829Y1717D01*
X1153Y1717D02*
X1229Y1717D01*
X1253Y1717D02*
X1329Y1717D01*
X1353Y1717D02*
X1429Y1717D01*
X553Y1716D02*
X630Y1716D01*
X653Y1716D02*
X730Y1716D01*
X753Y1716D02*
X830Y1716D01*
X1153Y1716D02*
X1230Y1716D01*
X1252Y1716D02*
X1330Y1716D01*
X1352Y1716D02*
X1430Y1716D01*
X552Y1715D02*
X630Y1715D01*
X652Y1715D02*
X730Y1715D01*
X752Y1715D02*
X830Y1715D01*
X1152Y1715D02*
X1230Y1715D01*
X1252Y1715D02*
X1330Y1715D01*
X1352Y1715D02*
X1430Y1715D01*
X552Y1714D02*
X630Y1714D01*
X652Y1714D02*
X730Y1714D01*
X752Y1714D02*
X830Y1714D01*
X1152Y1714D02*
X1230Y1714D01*
X1252Y1714D02*
X1330Y1714D01*
X1352Y1714D02*
X1430Y1714D01*
X552Y1713D02*
X630Y1713D01*
X652Y1713D02*
X730Y1713D01*
X752Y1713D02*
X830Y1713D01*
X1152Y1713D02*
X1230Y1713D01*
X1252Y1713D02*
X1330Y1713D01*
X1352Y1713D02*
X1430Y1713D01*
X552Y1712D02*
X630Y1712D01*
X652Y1712D02*
X730Y1712D01*
X752Y1712D02*
X830Y1712D01*
X1152Y1712D02*
X1230Y1712D01*
X1252Y1712D02*
X1330Y1712D01*
X1352Y1712D02*
X1430Y1712D01*
X552Y1711D02*
X630Y1711D01*
X652Y1711D02*
X730Y1711D01*
X752Y1711D02*
X830Y1711D01*
X1152Y1711D02*
X1230Y1711D01*
X1252Y1711D02*
X1330Y1711D01*
X1352Y1711D02*
X1430Y1711D01*
X552Y1710D02*
X630Y1710D01*
X652Y1710D02*
X730Y1710D01*
X752Y1710D02*
X830Y1710D01*
X1152Y1710D02*
X1230Y1710D01*
X1252Y1710D02*
X1330Y1710D01*
X1352Y1710D02*
X1430Y1710D01*
X552Y1709D02*
X631Y1709D01*
X652Y1709D02*
X731Y1709D01*
X752Y1709D02*
X831Y1709D01*
X1152Y1709D02*
X1230Y1709D01*
X1252Y1709D02*
X1330Y1709D01*
X1352Y1709D02*
X1430Y1709D01*
X552Y1708D02*
X631Y1708D01*
X652Y1708D02*
X731Y1708D01*
X752Y1708D02*
X831Y1708D01*
X1152Y1708D02*
X1231Y1708D01*
X1252Y1708D02*
X1331Y1708D01*
X1352Y1708D02*
X1431Y1708D01*
X552Y1707D02*
X631Y1707D01*
X652Y1707D02*
X731Y1707D01*
X752Y1707D02*
X831Y1707D01*
X1152Y1707D02*
X1231Y1707D01*
X1252Y1707D02*
X1330Y1707D01*
X1352Y1707D02*
X1430Y1707D01*
X552Y1706D02*
X631Y1706D01*
X652Y1706D02*
X730Y1706D01*
X752Y1706D02*
X830Y1706D01*
X1152Y1706D02*
X1230Y1706D01*
X1252Y1706D02*
X1330Y1706D01*
X1352Y1706D02*
X1430Y1706D01*
X552Y1705D02*
X630Y1705D01*
X652Y1705D02*
X730Y1705D01*
X752Y1705D02*
X830Y1705D01*
X1152Y1705D02*
X1230Y1705D01*
X1252Y1705D02*
X1330Y1705D01*
X1352Y1705D02*
X1430Y1705D01*
X552Y1704D02*
X630Y1704D01*
X652Y1704D02*
X730Y1704D01*
X752Y1704D02*
X830Y1704D01*
X1152Y1704D02*
X1230Y1704D01*
X1252Y1704D02*
X1330Y1704D01*
X1352Y1704D02*
X1430Y1704D01*
X552Y1703D02*
X630Y1703D01*
X652Y1703D02*
X730Y1703D01*
X752Y1703D02*
X830Y1703D01*
X1152Y1703D02*
X1230Y1703D01*
X1252Y1703D02*
X1330Y1703D01*
X1352Y1703D02*
X1430Y1703D01*
X552Y1702D02*
X630Y1702D01*
X652Y1702D02*
X730Y1702D01*
X752Y1702D02*
X830Y1702D01*
X1152Y1702D02*
X1230Y1702D01*
X1252Y1702D02*
X1330Y1702D01*
X1352Y1702D02*
X1430Y1702D01*
X552Y1701D02*
X630Y1701D01*
X652Y1701D02*
X730Y1701D01*
X752Y1701D02*
X830Y1701D01*
X1152Y1701D02*
X1230Y1701D01*
X1252Y1701D02*
X1330Y1701D01*
X1352Y1701D02*
X1430Y1701D01*
X552Y1700D02*
X630Y1700D01*
X652Y1700D02*
X730Y1700D01*
X752Y1700D02*
X830Y1700D01*
X1152Y1700D02*
X1230Y1700D01*
X1252Y1700D02*
X1330Y1700D01*
X1352Y1700D02*
X1430Y1700D01*
X553Y1699D02*
X630Y1699D01*
X653Y1699D02*
X730Y1699D01*
X753Y1699D02*
X830Y1699D01*
X1153Y1699D02*
X1229Y1699D01*
X1253Y1699D02*
X1329Y1699D01*
X1353Y1699D02*
X1429Y1699D01*
X553Y1698D02*
X629Y1698D01*
X653Y1698D02*
X729Y1698D01*
X753Y1698D02*
X829Y1698D01*
X1153Y1698D02*
X1229Y1698D01*
X1253Y1698D02*
X1329Y1698D01*
X1353Y1698D02*
X1429Y1698D01*
X553Y1697D02*
X629Y1697D01*
X653Y1697D02*
X729Y1697D01*
X753Y1697D02*
X829Y1697D01*
X1153Y1697D02*
X1229Y1697D01*
X1253Y1697D02*
X1329Y1697D01*
X1353Y1697D02*
X1429Y1697D01*
X553Y1696D02*
X629Y1696D01*
X653Y1696D02*
X729Y1696D01*
X753Y1696D02*
X829Y1696D01*
X1153Y1696D02*
X1229Y1696D01*
X1253Y1696D02*
X1329Y1696D01*
X1353Y1696D02*
X1429Y1696D01*
X554Y1695D02*
X628Y1695D01*
X654Y1695D02*
X728Y1695D01*
X754Y1695D02*
X828Y1695D01*
X1154Y1695D02*
X1228Y1695D01*
X1254Y1695D02*
X1328Y1695D01*
X1354Y1695D02*
X1428Y1695D01*
X554Y1694D02*
X628Y1694D01*
X654Y1694D02*
X728Y1694D01*
X754Y1694D02*
X828Y1694D01*
X1154Y1694D02*
X1228Y1694D01*
X1254Y1694D02*
X1328Y1694D01*
X1354Y1694D02*
X1428Y1694D01*
X554Y1693D02*
X628Y1693D01*
X654Y1693D02*
X728Y1693D01*
X754Y1693D02*
X828Y1693D01*
X1154Y1693D02*
X1228Y1693D01*
X1254Y1693D02*
X1328Y1693D01*
X1354Y1693D02*
X1428Y1693D01*
X555Y1692D02*
X627Y1692D01*
X655Y1692D02*
X727Y1692D01*
X755Y1692D02*
X827Y1692D01*
X1155Y1692D02*
X1227Y1692D01*
X1255Y1692D02*
X1327Y1692D01*
X1355Y1692D02*
X1427Y1692D01*
X555Y1691D02*
X627Y1691D01*
X655Y1691D02*
X727Y1691D01*
X755Y1691D02*
X827Y1691D01*
X1155Y1691D02*
X1227Y1691D01*
X1255Y1691D02*
X1327Y1691D01*
X1355Y1691D02*
X1427Y1691D01*
X556Y1690D02*
X626Y1690D01*
X656Y1690D02*
X726Y1690D01*
X756Y1690D02*
X826Y1690D01*
X1156Y1690D02*
X1226Y1690D01*
X1256Y1690D02*
X1326Y1690D01*
X1356Y1690D02*
X1426Y1690D01*
X556Y1689D02*
X626Y1689D01*
X656Y1689D02*
X726Y1689D01*
X756Y1689D02*
X826Y1689D01*
X1156Y1689D02*
X1226Y1689D01*
X1256Y1689D02*
X1326Y1689D01*
X1356Y1689D02*
X1426Y1689D01*
X557Y1688D02*
X625Y1688D01*
X657Y1688D02*
X725Y1688D01*
X757Y1688D02*
X825Y1688D01*
X1157Y1688D02*
X1225Y1688D01*
X1257Y1688D02*
X1325Y1688D01*
X1357Y1688D02*
X1425Y1688D01*
X558Y1687D02*
X625Y1687D01*
X658Y1687D02*
X725Y1687D01*
X757Y1687D02*
X825Y1687D01*
X1157Y1687D02*
X1225Y1687D01*
X1257Y1687D02*
X1325Y1687D01*
X1357Y1687D02*
X1425Y1687D01*
X558Y1686D02*
X624Y1686D01*
X658Y1686D02*
X724Y1686D01*
X758Y1686D02*
X824Y1686D01*
X1158Y1686D02*
X1224Y1686D01*
X1258Y1686D02*
X1324Y1686D01*
X1358Y1686D02*
X1424Y1686D01*
X559Y1685D02*
X623Y1685D01*
X659Y1685D02*
X723Y1685D01*
X759Y1685D02*
X823Y1685D01*
X1159Y1685D02*
X1223Y1685D01*
X1259Y1685D02*
X1323Y1685D01*
X1359Y1685D02*
X1423Y1685D01*
X560Y1684D02*
X623Y1684D01*
X660Y1684D02*
X723Y1684D01*
X760Y1684D02*
X823Y1684D01*
X1159Y1684D02*
X1223Y1684D01*
X1259Y1684D02*
X1323Y1684D01*
X1359Y1684D02*
X1423Y1684D01*
X560Y1683D02*
X622Y1683D01*
X660Y1683D02*
X722Y1683D01*
X760Y1683D02*
X822Y1683D01*
X1160Y1683D02*
X1222Y1683D01*
X1260Y1683D02*
X1322Y1683D01*
X1360Y1683D02*
X1422Y1683D01*
X561Y1682D02*
X621Y1682D01*
X661Y1682D02*
X721Y1682D01*
X761Y1682D02*
X821Y1682D01*
X1161Y1682D02*
X1221Y1682D01*
X1261Y1682D02*
X1321Y1682D01*
X1361Y1682D02*
X1421Y1682D01*
X562Y1681D02*
X620Y1681D01*
X662Y1681D02*
X720Y1681D01*
X762Y1681D02*
X820Y1681D01*
X1162Y1681D02*
X1220Y1681D01*
X1262Y1681D02*
X1320Y1681D01*
X1362Y1681D02*
X1420Y1681D01*
X563Y1680D02*
X619Y1680D01*
X663Y1680D02*
X719Y1680D01*
X763Y1680D02*
X819Y1680D01*
X1163Y1680D02*
X1219Y1680D01*
X1263Y1680D02*
X1319Y1680D01*
X1363Y1680D02*
X1419Y1680D01*
X564Y1679D02*
X618Y1679D01*
X664Y1679D02*
X718Y1679D01*
X764Y1679D02*
X818Y1679D01*
X1164Y1679D02*
X1218Y1679D01*
X1264Y1679D02*
X1318Y1679D01*
X1364Y1679D02*
X1418Y1679D01*
X565Y1678D02*
X617Y1678D01*
X665Y1678D02*
X717Y1678D01*
X765Y1678D02*
X817Y1678D01*
X1165Y1678D02*
X1217Y1678D01*
X1265Y1678D02*
X1317Y1678D01*
X1365Y1678D02*
X1417Y1678D01*
X566Y1677D02*
X616Y1677D01*
X666Y1677D02*
X716Y1677D01*
X766Y1677D02*
X816Y1677D01*
X1166Y1677D02*
X1216Y1677D01*
X1266Y1677D02*
X1316Y1677D01*
X1366Y1677D02*
X1416Y1677D01*
X567Y1676D02*
X615Y1676D01*
X667Y1676D02*
X715Y1676D01*
X767Y1676D02*
X815Y1676D01*
X1167Y1676D02*
X1215Y1676D01*
X1267Y1676D02*
X1315Y1676D01*
X1367Y1676D02*
X1415Y1676D01*
X569Y1675D02*
X613Y1675D01*
X669Y1675D02*
X713Y1675D01*
X769Y1675D02*
X813Y1675D01*
X1169Y1675D02*
X1213Y1675D01*
X1269Y1675D02*
X1313Y1675D01*
X1369Y1675D02*
X1413Y1675D01*
X570Y1674D02*
X612Y1674D01*
X670Y1674D02*
X712Y1674D01*
X770Y1674D02*
X812Y1674D01*
X1170Y1674D02*
X1212Y1674D01*
X1270Y1674D02*
X1312Y1674D01*
X1370Y1674D02*
X1412Y1674D01*
X572Y1673D02*
X610Y1673D01*
X672Y1673D02*
X710Y1673D01*
X772Y1673D02*
X810Y1673D01*
X1172Y1673D02*
X1210Y1673D01*
X1272Y1673D02*
X1310Y1673D01*
X1372Y1673D02*
X1410Y1673D01*
X574Y1672D02*
X608Y1672D01*
X674Y1672D02*
X708Y1672D01*
X774Y1672D02*
X808Y1672D01*
X1174Y1672D02*
X1208Y1672D01*
X1274Y1672D02*
X1308Y1672D01*
X1374Y1672D02*
X1408Y1672D01*
X576Y1671D02*
X606Y1671D01*
X676Y1671D02*
X706Y1671D01*
X776Y1671D02*
X806Y1671D01*
X1176Y1671D02*
X1206Y1671D01*
X1276Y1671D02*
X1306Y1671D01*
X1376Y1671D02*
X1406Y1671D01*
X579Y1670D02*
X604Y1670D01*
X679Y1670D02*
X704Y1670D01*
X779Y1670D02*
X804Y1670D01*
X1178Y1670D02*
X1204Y1670D01*
X1278Y1670D02*
X1304Y1670D01*
X1378Y1670D02*
X1404Y1670D01*
X582Y1669D02*
X600Y1669D01*
X682Y1669D02*
X700Y1669D01*
X782Y1669D02*
X800Y1669D01*
X1182Y1669D02*
X1200Y1669D01*
X1282Y1669D02*
X1300Y1669D01*
X1382Y1669D02*
X1400Y1669D01*
X587Y1668D02*
X595Y1668D01*
X687Y1668D02*
X695Y1668D01*
X787Y1668D02*
X795Y1668D01*
X1187Y1668D02*
X1195Y1668D01*
X1287Y1668D02*
X1295Y1668D01*
X1387Y1668D02*
X1395Y1668D01*
X584Y1247D02*
X598Y1247D01*
X684Y1247D02*
X698Y1247D01*
X784Y1247D02*
X798Y1247D01*
X1184Y1247D02*
X1198Y1247D01*
X1284Y1247D02*
X1298Y1247D01*
X1384Y1247D02*
X1398Y1247D01*
X580Y1246D02*
X602Y1246D01*
X680Y1246D02*
X702Y1246D01*
X780Y1246D02*
X802Y1246D01*
X1180Y1246D02*
X1202Y1246D01*
X1280Y1246D02*
X1302Y1246D01*
X1380Y1246D02*
X1402Y1246D01*
X577Y1245D02*
X605Y1245D01*
X677Y1245D02*
X705Y1245D01*
X777Y1245D02*
X805Y1245D01*
X1177Y1245D02*
X1205Y1245D01*
X1277Y1245D02*
X1305Y1245D01*
X1377Y1245D02*
X1405Y1245D01*
X575Y1244D02*
X607Y1244D01*
X675Y1244D02*
X707Y1244D01*
X775Y1244D02*
X807Y1244D01*
X1175Y1244D02*
X1207Y1244D01*
X1275Y1244D02*
X1307Y1244D01*
X1375Y1244D02*
X1407Y1244D01*
X573Y1243D02*
X609Y1243D01*
X673Y1243D02*
X709Y1243D01*
X773Y1243D02*
X809Y1243D01*
X1173Y1243D02*
X1209Y1243D01*
X1273Y1243D02*
X1309Y1243D01*
X1373Y1243D02*
X1409Y1243D01*
X571Y1242D02*
X611Y1242D01*
X671Y1242D02*
X711Y1242D01*
X771Y1242D02*
X811Y1242D01*
X1171Y1242D02*
X1211Y1242D01*
X1271Y1242D02*
X1311Y1242D01*
X1371Y1242D02*
X1411Y1242D01*
X569Y1241D02*
X613Y1241D01*
X669Y1241D02*
X713Y1241D01*
X769Y1241D02*
X813Y1241D01*
X1169Y1241D02*
X1213Y1241D01*
X1269Y1241D02*
X1313Y1241D01*
X1369Y1241D02*
X1413Y1241D01*
X568Y1240D02*
X614Y1240D01*
X668Y1240D02*
X714Y1240D01*
X768Y1240D02*
X814Y1240D01*
X1168Y1240D02*
X1214Y1240D01*
X1268Y1240D02*
X1314Y1240D01*
X1368Y1240D02*
X1414Y1240D01*
X567Y1239D02*
X615Y1239D01*
X667Y1239D02*
X715Y1239D01*
X767Y1239D02*
X815Y1239D01*
X1167Y1239D02*
X1215Y1239D01*
X1267Y1239D02*
X1315Y1239D01*
X1367Y1239D02*
X1415Y1239D01*
X565Y1238D02*
X617Y1238D01*
X665Y1238D02*
X717Y1238D01*
X765Y1238D02*
X817Y1238D01*
X1165Y1238D02*
X1217Y1238D01*
X1265Y1238D02*
X1317Y1238D01*
X1365Y1238D02*
X1417Y1238D01*
X564Y1237D02*
X618Y1237D01*
X664Y1237D02*
X718Y1237D01*
X764Y1237D02*
X818Y1237D01*
X1164Y1237D02*
X1218Y1237D01*
X1264Y1237D02*
X1318Y1237D01*
X1364Y1237D02*
X1418Y1237D01*
X563Y1236D02*
X619Y1236D01*
X663Y1236D02*
X719Y1236D01*
X763Y1236D02*
X819Y1236D01*
X1163Y1236D02*
X1219Y1236D01*
X1263Y1236D02*
X1319Y1236D01*
X1363Y1236D02*
X1419Y1236D01*
X562Y1235D02*
X620Y1235D01*
X662Y1235D02*
X720Y1235D01*
X762Y1235D02*
X820Y1235D01*
X1162Y1235D02*
X1220Y1235D01*
X1262Y1235D02*
X1320Y1235D01*
X1362Y1235D02*
X1420Y1235D01*
X561Y1234D02*
X621Y1234D01*
X661Y1234D02*
X721Y1234D01*
X761Y1234D02*
X821Y1234D01*
X1161Y1234D02*
X1221Y1234D01*
X1261Y1234D02*
X1321Y1234D01*
X1361Y1234D02*
X1421Y1234D01*
X561Y1233D02*
X622Y1233D01*
X661Y1233D02*
X722Y1233D01*
X761Y1233D02*
X822Y1233D01*
X1161Y1233D02*
X1222Y1233D01*
X1261Y1233D02*
X1322Y1233D01*
X1361Y1233D02*
X1421Y1233D01*
X560Y1232D02*
X622Y1232D01*
X660Y1232D02*
X722Y1232D01*
X760Y1232D02*
X822Y1232D01*
X1160Y1232D02*
X1222Y1232D01*
X1260Y1232D02*
X1322Y1232D01*
X1360Y1232D02*
X1422Y1232D01*
X559Y1231D02*
X623Y1231D01*
X659Y1231D02*
X723Y1231D01*
X759Y1231D02*
X823Y1231D01*
X1159Y1231D02*
X1223Y1231D01*
X1259Y1231D02*
X1323Y1231D01*
X1359Y1231D02*
X1423Y1231D01*
X558Y1230D02*
X624Y1230D01*
X658Y1230D02*
X724Y1230D01*
X758Y1230D02*
X824Y1230D01*
X1158Y1230D02*
X1224Y1230D01*
X1258Y1230D02*
X1324Y1230D01*
X1358Y1230D02*
X1424Y1230D01*
X558Y1229D02*
X624Y1229D01*
X658Y1229D02*
X724Y1229D01*
X758Y1229D02*
X824Y1229D01*
X1158Y1229D02*
X1224Y1229D01*
X1258Y1229D02*
X1324Y1229D01*
X1358Y1229D02*
X1424Y1229D01*
X557Y1228D02*
X625Y1228D01*
X657Y1228D02*
X725Y1228D01*
X757Y1228D02*
X825Y1228D01*
X1157Y1228D02*
X1225Y1228D01*
X1257Y1228D02*
X1325Y1228D01*
X1357Y1228D02*
X1425Y1228D01*
X557Y1227D02*
X626Y1227D01*
X657Y1227D02*
X726Y1227D01*
X757Y1227D02*
X826Y1227D01*
X1157Y1227D02*
X1226Y1227D01*
X1257Y1227D02*
X1326Y1227D01*
X1357Y1227D02*
X1426Y1227D01*
X556Y1226D02*
X626Y1226D01*
X656Y1226D02*
X726Y1226D01*
X756Y1226D02*
X826Y1226D01*
X1156Y1226D02*
X1226Y1226D01*
X1256Y1226D02*
X1326Y1226D01*
X1356Y1226D02*
X1426Y1226D01*
X556Y1225D02*
X627Y1225D01*
X656Y1225D02*
X727Y1225D01*
X756Y1225D02*
X827Y1225D01*
X1156Y1225D02*
X1227Y1225D01*
X1256Y1225D02*
X1327Y1225D01*
X1355Y1225D02*
X1427Y1225D01*
X555Y1224D02*
X627Y1224D01*
X655Y1224D02*
X727Y1224D01*
X755Y1224D02*
X827Y1224D01*
X1155Y1224D02*
X1227Y1224D01*
X1255Y1224D02*
X1327Y1224D01*
X1355Y1224D02*
X1427Y1224D01*
X555Y1223D02*
X628Y1223D01*
X655Y1223D02*
X728Y1223D01*
X755Y1223D02*
X828Y1223D01*
X1155Y1223D02*
X1228Y1223D01*
X1255Y1223D02*
X1328Y1223D01*
X1355Y1223D02*
X1428Y1223D01*
X554Y1222D02*
X628Y1222D01*
X654Y1222D02*
X728Y1222D01*
X754Y1222D02*
X828Y1222D01*
X1154Y1222D02*
X1228Y1222D01*
X1254Y1222D02*
X1328Y1222D01*
X1354Y1222D02*
X1428Y1222D01*
X554Y1221D02*
X628Y1221D01*
X654Y1221D02*
X728Y1221D01*
X754Y1221D02*
X828Y1221D01*
X1154Y1221D02*
X1228Y1221D01*
X1254Y1221D02*
X1328Y1221D01*
X1354Y1221D02*
X1428Y1221D01*
X554Y1220D02*
X629Y1220D01*
X654Y1220D02*
X729Y1220D01*
X754Y1220D02*
X829Y1220D01*
X1154Y1220D02*
X1229Y1220D01*
X1254Y1220D02*
X1329Y1220D01*
X1353Y1220D02*
X1429Y1220D01*
X553Y1219D02*
X629Y1219D01*
X653Y1219D02*
X729Y1219D01*
X753Y1219D02*
X829Y1219D01*
X1153Y1219D02*
X1229Y1219D01*
X1253Y1219D02*
X1329Y1219D01*
X1353Y1219D02*
X1429Y1219D01*
X553Y1218D02*
X629Y1218D01*
X653Y1218D02*
X729Y1218D01*
X753Y1218D02*
X829Y1218D01*
X1153Y1218D02*
X1229Y1218D01*
X1253Y1218D02*
X1329Y1218D01*
X1353Y1218D02*
X1429Y1218D01*
X553Y1217D02*
X629Y1217D01*
X653Y1217D02*
X729Y1217D01*
X753Y1217D02*
X829Y1217D01*
X1153Y1217D02*
X1229Y1217D01*
X1253Y1217D02*
X1329Y1217D01*
X1353Y1217D02*
X1429Y1217D01*
X553Y1216D02*
X630Y1216D01*
X653Y1216D02*
X730Y1216D01*
X753Y1216D02*
X830Y1216D01*
X1152Y1216D02*
X1230Y1216D01*
X1252Y1216D02*
X1330Y1216D01*
X1352Y1216D02*
X1430Y1216D01*
X552Y1215D02*
X630Y1215D01*
X652Y1215D02*
X730Y1215D01*
X752Y1215D02*
X830Y1215D01*
X1152Y1215D02*
X1230Y1215D01*
X1252Y1215D02*
X1330Y1215D01*
X1352Y1215D02*
X1430Y1215D01*
X552Y1214D02*
X630Y1214D01*
X652Y1214D02*
X730Y1214D01*
X752Y1214D02*
X830Y1214D01*
X1152Y1214D02*
X1230Y1214D01*
X1252Y1214D02*
X1330Y1214D01*
X1352Y1214D02*
X1430Y1214D01*
X552Y1213D02*
X630Y1213D01*
X652Y1213D02*
X730Y1213D01*
X752Y1213D02*
X830Y1213D01*
X1152Y1213D02*
X1230Y1213D01*
X1252Y1213D02*
X1330Y1213D01*
X1352Y1213D02*
X1430Y1213D01*
X552Y1212D02*
X630Y1212D01*
X652Y1212D02*
X730Y1212D01*
X752Y1212D02*
X830Y1212D01*
X1152Y1212D02*
X1230Y1212D01*
X1252Y1212D02*
X1330Y1212D01*
X1352Y1212D02*
X1430Y1212D01*
X552Y1211D02*
X630Y1211D01*
X652Y1211D02*
X730Y1211D01*
X752Y1211D02*
X830Y1211D01*
X1152Y1211D02*
X1230Y1211D01*
X1252Y1211D02*
X1330Y1211D01*
X1352Y1211D02*
X1430Y1211D01*
X552Y1210D02*
X630Y1210D01*
X652Y1210D02*
X730Y1210D01*
X752Y1210D02*
X830Y1210D01*
X1152Y1210D02*
X1230Y1210D01*
X1252Y1210D02*
X1330Y1210D01*
X1352Y1210D02*
X1430Y1210D01*
X552Y1209D02*
X631Y1209D01*
X652Y1209D02*
X731Y1209D01*
X752Y1209D02*
X831Y1209D01*
X1152Y1209D02*
X1230Y1209D01*
X1252Y1209D02*
X1330Y1209D01*
X1352Y1209D02*
X1430Y1209D01*
X552Y1208D02*
X631Y1208D01*
X652Y1208D02*
X731Y1208D01*
X752Y1208D02*
X831Y1208D01*
X1152Y1208D02*
X1231Y1208D01*
X1252Y1208D02*
X1331Y1208D01*
X1352Y1208D02*
X1431Y1208D01*
X552Y1207D02*
X631Y1207D01*
X652Y1207D02*
X731Y1207D01*
X752Y1207D02*
X831Y1207D01*
X1152Y1207D02*
X1231Y1207D01*
X1252Y1207D02*
X1330Y1207D01*
X1352Y1207D02*
X1430Y1207D01*
X552Y1206D02*
X631Y1206D01*
X652Y1206D02*
X730Y1206D01*
X752Y1206D02*
X830Y1206D01*
X1152Y1206D02*
X1230Y1206D01*
X1252Y1206D02*
X1330Y1206D01*
X1352Y1206D02*
X1430Y1206D01*
X552Y1205D02*
X630Y1205D01*
X652Y1205D02*
X730Y1205D01*
X752Y1205D02*
X830Y1205D01*
X1152Y1205D02*
X1230Y1205D01*
X1252Y1205D02*
X1330Y1205D01*
X1352Y1205D02*
X1430Y1205D01*
X552Y1204D02*
X630Y1204D01*
X652Y1204D02*
X730Y1204D01*
X752Y1204D02*
X830Y1204D01*
X1152Y1204D02*
X1230Y1204D01*
X1252Y1204D02*
X1330Y1204D01*
X1352Y1204D02*
X1430Y1204D01*
X552Y1203D02*
X630Y1203D01*
X652Y1203D02*
X730Y1203D01*
X752Y1203D02*
X830Y1203D01*
X1152Y1203D02*
X1230Y1203D01*
X1252Y1203D02*
X1330Y1203D01*
X1352Y1203D02*
X1430Y1203D01*
X552Y1202D02*
X630Y1202D01*
X652Y1202D02*
X730Y1202D01*
X752Y1202D02*
X830Y1202D01*
X1152Y1202D02*
X1230Y1202D01*
X1252Y1202D02*
X1330Y1202D01*
X1352Y1202D02*
X1430Y1202D01*
X552Y1201D02*
X630Y1201D01*
X652Y1201D02*
X730Y1201D01*
X752Y1201D02*
X830Y1201D01*
X1152Y1201D02*
X1230Y1201D01*
X1252Y1201D02*
X1330Y1201D01*
X1352Y1201D02*
X1430Y1201D01*
X552Y1200D02*
X630Y1200D01*
X652Y1200D02*
X730Y1200D01*
X752Y1200D02*
X830Y1200D01*
X1152Y1200D02*
X1230Y1200D01*
X1252Y1200D02*
X1330Y1200D01*
X1352Y1200D02*
X1430Y1200D01*
X553Y1199D02*
X630Y1199D01*
X653Y1199D02*
X730Y1199D01*
X753Y1199D02*
X830Y1199D01*
X1153Y1199D02*
X1229Y1199D01*
X1253Y1199D02*
X1329Y1199D01*
X1353Y1199D02*
X1429Y1199D01*
X553Y1198D02*
X629Y1198D01*
X653Y1198D02*
X729Y1198D01*
X753Y1198D02*
X829Y1198D01*
X1153Y1198D02*
X1229Y1198D01*
X1253Y1198D02*
X1329Y1198D01*
X1353Y1198D02*
X1429Y1198D01*
X553Y1197D02*
X629Y1197D01*
X653Y1197D02*
X729Y1197D01*
X753Y1197D02*
X829Y1197D01*
X1153Y1197D02*
X1229Y1197D01*
X1253Y1197D02*
X1329Y1197D01*
X1353Y1197D02*
X1429Y1197D01*
X553Y1196D02*
X629Y1196D01*
X653Y1196D02*
X729Y1196D01*
X753Y1196D02*
X829Y1196D01*
X1153Y1196D02*
X1229Y1196D01*
X1253Y1196D02*
X1329Y1196D01*
X1353Y1196D02*
X1429Y1196D01*
X554Y1195D02*
X628Y1195D01*
X654Y1195D02*
X728Y1195D01*
X754Y1195D02*
X828Y1195D01*
X1154Y1195D02*
X1228Y1195D01*
X1254Y1195D02*
X1328Y1195D01*
X1354Y1195D02*
X1428Y1195D01*
X554Y1194D02*
X628Y1194D01*
X654Y1194D02*
X728Y1194D01*
X754Y1194D02*
X828Y1194D01*
X1154Y1194D02*
X1228Y1194D01*
X1254Y1194D02*
X1328Y1194D01*
X1354Y1194D02*
X1428Y1194D01*
X554Y1193D02*
X628Y1193D01*
X654Y1193D02*
X728Y1193D01*
X754Y1193D02*
X828Y1193D01*
X1154Y1193D02*
X1228Y1193D01*
X1254Y1193D02*
X1328Y1193D01*
X1354Y1193D02*
X1428Y1193D01*
X555Y1192D02*
X627Y1192D01*
X655Y1192D02*
X727Y1192D01*
X755Y1192D02*
X827Y1192D01*
X1155Y1192D02*
X1227Y1192D01*
X1255Y1192D02*
X1327Y1192D01*
X1355Y1192D02*
X1427Y1192D01*
X555Y1191D02*
X627Y1191D01*
X655Y1191D02*
X727Y1191D01*
X755Y1191D02*
X827Y1191D01*
X1155Y1191D02*
X1227Y1191D01*
X1255Y1191D02*
X1327Y1191D01*
X1355Y1191D02*
X1427Y1191D01*
X556Y1190D02*
X626Y1190D01*
X656Y1190D02*
X726Y1190D01*
X756Y1190D02*
X826Y1190D01*
X1156Y1190D02*
X1226Y1190D01*
X1256Y1190D02*
X1326Y1190D01*
X1356Y1190D02*
X1426Y1190D01*
X556Y1189D02*
X626Y1189D01*
X656Y1189D02*
X726Y1189D01*
X756Y1189D02*
X826Y1189D01*
X1156Y1189D02*
X1226Y1189D01*
X1256Y1189D02*
X1326Y1189D01*
X1356Y1189D02*
X1426Y1189D01*
X557Y1188D02*
X625Y1188D01*
X657Y1188D02*
X725Y1188D01*
X757Y1188D02*
X825Y1188D01*
X1157Y1188D02*
X1225Y1188D01*
X1257Y1188D02*
X1325Y1188D01*
X1357Y1188D02*
X1425Y1188D01*
X558Y1187D02*
X625Y1187D01*
X658Y1187D02*
X725Y1187D01*
X758Y1187D02*
X825Y1187D01*
X1157Y1187D02*
X1225Y1187D01*
X1257Y1187D02*
X1325Y1187D01*
X1357Y1187D02*
X1425Y1187D01*
X558Y1186D02*
X624Y1186D01*
X658Y1186D02*
X724Y1186D01*
X758Y1186D02*
X824Y1186D01*
X1158Y1186D02*
X1224Y1186D01*
X1258Y1186D02*
X1324Y1186D01*
X1358Y1186D02*
X1424Y1186D01*
X559Y1185D02*
X623Y1185D01*
X659Y1185D02*
X723Y1185D01*
X759Y1185D02*
X823Y1185D01*
X1159Y1185D02*
X1223Y1185D01*
X1259Y1185D02*
X1323Y1185D01*
X1359Y1185D02*
X1423Y1185D01*
X560Y1184D02*
X623Y1184D01*
X660Y1184D02*
X723Y1184D01*
X760Y1184D02*
X823Y1184D01*
X1160Y1184D02*
X1223Y1184D01*
X1259Y1184D02*
X1323Y1184D01*
X1359Y1184D02*
X1423Y1184D01*
X560Y1183D02*
X622Y1183D01*
X660Y1183D02*
X722Y1183D01*
X760Y1183D02*
X822Y1183D01*
X1160Y1183D02*
X1222Y1183D01*
X1260Y1183D02*
X1322Y1183D01*
X1360Y1183D02*
X1422Y1183D01*
X561Y1182D02*
X621Y1182D01*
X661Y1182D02*
X721Y1182D01*
X761Y1182D02*
X821Y1182D01*
X1161Y1182D02*
X1221Y1182D01*
X1261Y1182D02*
X1321Y1182D01*
X1361Y1182D02*
X1421Y1182D01*
X562Y1181D02*
X620Y1181D01*
X662Y1181D02*
X720Y1181D01*
X762Y1181D02*
X820Y1181D01*
X1162Y1181D02*
X1220Y1181D01*
X1262Y1181D02*
X1320Y1181D01*
X1362Y1181D02*
X1420Y1181D01*
X563Y1180D02*
X619Y1180D01*
X663Y1180D02*
X719Y1180D01*
X763Y1180D02*
X819Y1180D01*
X1163Y1180D02*
X1219Y1180D01*
X1263Y1180D02*
X1319Y1180D01*
X1363Y1180D02*
X1419Y1180D01*
X564Y1179D02*
X618Y1179D01*
X664Y1179D02*
X718Y1179D01*
X764Y1179D02*
X818Y1179D01*
X1164Y1179D02*
X1218Y1179D01*
X1264Y1179D02*
X1318Y1179D01*
X1364Y1179D02*
X1418Y1179D01*
X565Y1178D02*
X617Y1178D01*
X665Y1178D02*
X717Y1178D01*
X765Y1178D02*
X817Y1178D01*
X1165Y1178D02*
X1217Y1178D01*
X1265Y1178D02*
X1317Y1178D01*
X1365Y1178D02*
X1417Y1178D01*
X566Y1177D02*
X616Y1177D01*
X666Y1177D02*
X716Y1177D01*
X766Y1177D02*
X816Y1177D01*
X1166Y1177D02*
X1216Y1177D01*
X1266Y1177D02*
X1316Y1177D01*
X1366Y1177D02*
X1416Y1177D01*
X567Y1176D02*
X615Y1176D01*
X667Y1176D02*
X715Y1176D01*
X767Y1176D02*
X815Y1176D01*
X1167Y1176D02*
X1215Y1176D01*
X1267Y1176D02*
X1315Y1176D01*
X1367Y1176D02*
X1415Y1176D01*
X569Y1175D02*
X613Y1175D01*
X669Y1175D02*
X713Y1175D01*
X769Y1175D02*
X813Y1175D01*
X1169Y1175D02*
X1213Y1175D01*
X1269Y1175D02*
X1313Y1175D01*
X1369Y1175D02*
X1413Y1175D01*
X570Y1174D02*
X612Y1174D01*
X670Y1174D02*
X712Y1174D01*
X770Y1174D02*
X812Y1174D01*
X1170Y1174D02*
X1212Y1174D01*
X1270Y1174D02*
X1312Y1174D01*
X1370Y1174D02*
X1412Y1174D01*
X572Y1173D02*
X610Y1173D01*
X672Y1173D02*
X710Y1173D01*
X772Y1173D02*
X810Y1173D01*
X1172Y1173D02*
X1210Y1173D01*
X1272Y1173D02*
X1310Y1173D01*
X1372Y1173D02*
X1410Y1173D01*
X574Y1172D02*
X608Y1172D01*
X674Y1172D02*
X708Y1172D01*
X774Y1172D02*
X808Y1172D01*
X1174Y1172D02*
X1208Y1172D01*
X1274Y1172D02*
X1308Y1172D01*
X1374Y1172D02*
X1408Y1172D01*
X576Y1171D02*
X606Y1171D01*
X676Y1171D02*
X706Y1171D01*
X776Y1171D02*
X806Y1171D01*
X1176Y1171D02*
X1206Y1171D01*
X1276Y1171D02*
X1306Y1171D01*
X1376Y1171D02*
X1406Y1171D01*
X579Y1170D02*
X604Y1170D01*
X679Y1170D02*
X704Y1170D01*
X779Y1170D02*
X804Y1170D01*
X1179Y1170D02*
X1204Y1170D01*
X1279Y1170D02*
X1303Y1170D01*
X1379Y1170D02*
X1403Y1170D01*
X582Y1169D02*
X600Y1169D01*
X682Y1169D02*
X700Y1169D01*
X782Y1169D02*
X800Y1169D01*
X1182Y1169D02*
X1200Y1169D01*
X1282Y1169D02*
X1300Y1169D01*
X1382Y1169D02*
X1400Y1169D01*
X588Y1168D02*
X594Y1168D01*
X688Y1168D02*
X694Y1168D01*
X788Y1168D02*
X794Y1168D01*
X1188Y1168D02*
X1194Y1168D01*
X1288Y1168D02*
X1294Y1168D01*
X1388Y1168D02*
X1394Y1168D01*
D02*
G04 End of Mask0*
M02*