G04 EAGLE Gerber RS-274X export*
G75*
%MOMM*%
%FSLAX34Y34*%
%LPD*%
%INBottom Copper*%
%IPPOS*%
%AMOC8*
5,1,8,0,0,1.08239X$1,22.5*%
G01*
%ADD10P,1.319650X8X22.500000*%
%ADD11C,1.219200*%
%ADD12P,1.319650X8X202.500000*%
%ADD13C,1.524000*%
%ADD14C,1.930400*%
%ADD15C,2.380000*%
%ADD16C,1.270000*%
%ADD17C,0.812800*%
%ADD18C,4.215891*%


D10*
X262890Y342900D03*
D11*
X245110Y342900D03*
D12*
X321310Y342900D03*
D11*
X339090Y342900D03*
D13*
X254000Y210820D02*
X254000Y195580D01*
X279400Y195580D02*
X279400Y210820D01*
X304800Y210820D02*
X304800Y195580D01*
X678180Y546100D02*
X693420Y546100D01*
X693420Y520700D02*
X678180Y520700D01*
X678180Y495300D02*
X693420Y495300D01*
X693420Y469900D02*
X678180Y469900D01*
X678180Y444500D02*
X693420Y444500D01*
X693420Y393700D02*
X678180Y393700D01*
X678180Y368300D02*
X693420Y368300D01*
X693420Y342900D02*
X678180Y342900D01*
X678180Y317500D02*
X693420Y317500D01*
X693420Y292100D02*
X678180Y292100D01*
D14*
X393700Y546100D03*
X393700Y520700D03*
X393700Y495300D03*
X393700Y469900D03*
X393700Y444500D03*
X393700Y419100D03*
X393700Y393700D03*
X393700Y368300D03*
X393700Y342900D03*
X393700Y317500D03*
X393700Y292100D03*
X393700Y266700D03*
X393700Y241300D03*
X393700Y215900D03*
X393700Y190500D03*
X622300Y546100D03*
X622300Y520700D03*
X622300Y495300D03*
X622300Y469900D03*
X622300Y444500D03*
X622300Y419100D03*
X622300Y393700D03*
X622300Y368300D03*
X622300Y342900D03*
X622300Y317500D03*
X622300Y292100D03*
X622300Y266700D03*
X622300Y241300D03*
X622300Y215900D03*
X622300Y190500D03*
D15*
X257700Y571100D02*
X233900Y571100D01*
X233900Y521100D02*
X257700Y521100D01*
D16*
X246180Y520720D02*
X245800Y521100D01*
X246180Y520720D02*
X245110Y342900D01*
X245110Y254381D01*
X254000Y203200D01*
X262890Y342900D02*
X321310Y342900D01*
X393700Y215900D02*
X444500Y215900D01*
X444500Y571500D01*
X292100Y571500D01*
X246518Y571500D01*
D17*
X245800Y571100D01*
D16*
X292100Y419100D02*
X262890Y342900D01*
X292100Y419100D02*
X292100Y571500D01*
X262890Y342900D02*
X279400Y304800D01*
X279400Y203200D01*
X339090Y248920D02*
X339090Y342900D01*
X339090Y248920D02*
X304800Y203200D01*
X355600Y190500D02*
X393700Y190500D01*
X355600Y190500D02*
X339090Y248920D01*
X622300Y546100D02*
X685800Y546100D01*
X685800Y520700D02*
X622300Y520700D01*
X622300Y495300D02*
X685800Y495300D01*
X685800Y469900D02*
X622300Y469900D01*
X685800Y444500D02*
X660400Y406400D01*
X622300Y393700D01*
X685800Y393700D02*
X723900Y393700D01*
X571500Y419100D02*
X571500Y165100D01*
X723900Y165100D01*
X723900Y393700D01*
X622300Y444500D02*
X571500Y419100D01*
X622300Y368300D02*
X685800Y368300D01*
X685800Y342900D02*
X622300Y342900D01*
X622300Y317500D02*
X685800Y317500D01*
X685800Y292100D02*
X685800Y228600D01*
X622300Y215900D01*
D18*
X190500Y635000D03*
X190500Y127000D03*
X723900Y127000D03*
X723900Y635000D03*
M02*
