G04 EAGLE Gerber RS-274X export*
G75*
%MOMM*%
%FSLAX34Y34*%
%LPD*%
%INBottom Copper*%
%IPPOS*%
%AMOC8*
5,1,8,0,0,1.08239X$1,22.5*%
G01*
%ADD10C,2.380000*%
%ADD11C,1.524000*%
%ADD12C,1.270000*%
%ADD13C,4.216000*%


D10*
X587900Y660000D02*
X564100Y660000D01*
X564100Y610000D02*
X587900Y610000D01*
D11*
X355600Y627380D02*
X355600Y642620D01*
X381000Y642620D02*
X381000Y627380D01*
X355600Y502920D02*
X355600Y487680D01*
X381000Y487680D02*
X381000Y502920D01*
X355600Y363220D02*
X355600Y347980D01*
X381000Y347980D02*
X381000Y363220D01*
X185420Y660400D02*
X170180Y660400D01*
X170180Y635000D02*
X185420Y635000D01*
X185420Y609600D02*
X170180Y609600D01*
X170180Y584200D02*
X185420Y584200D01*
X185420Y558800D02*
X170180Y558800D01*
X170180Y381000D02*
X185420Y381000D01*
X185420Y355600D02*
X170180Y355600D01*
X170180Y330200D02*
X185420Y330200D01*
X185420Y304800D02*
X170180Y304800D01*
X170180Y279400D02*
X185420Y279400D01*
X254000Y652780D02*
X254000Y668020D01*
X279400Y668020D02*
X279400Y652780D01*
X304800Y652780D02*
X304800Y668020D01*
X431800Y668020D02*
X431800Y652780D01*
X457200Y652780D02*
X457200Y668020D01*
X482600Y668020D02*
X482600Y652780D01*
X254000Y528320D02*
X254000Y513080D01*
X279400Y513080D02*
X279400Y528320D01*
X304800Y528320D02*
X304800Y513080D01*
X431800Y513080D02*
X431800Y528320D01*
X457200Y528320D02*
X457200Y513080D01*
X482600Y513080D02*
X482600Y528320D01*
X254000Y388620D02*
X254000Y373380D01*
X279400Y373380D02*
X279400Y388620D01*
X304800Y388620D02*
X304800Y373380D01*
X431800Y373380D02*
X431800Y388620D01*
X457200Y388620D02*
X457200Y373380D01*
X482600Y373380D02*
X482600Y388620D01*
X254000Y248920D02*
X254000Y233680D01*
X279400Y233680D02*
X279400Y248920D01*
X304800Y248920D02*
X304800Y233680D01*
X431800Y233680D02*
X431800Y248920D01*
X457200Y248920D02*
X457200Y233680D01*
X482600Y233680D02*
X482600Y248920D01*
X355600Y223520D02*
X355600Y208280D01*
X381000Y208280D02*
X381000Y223520D01*
D12*
X254000Y660400D02*
X177800Y660400D01*
X355600Y673100D02*
X355600Y635000D01*
X279400Y660400D02*
X279400Y698500D01*
X330200Y698500D01*
X355600Y673100D01*
X457200Y660400D02*
X457200Y635000D01*
X381000Y635000D01*
X254000Y520700D02*
X215900Y520700D01*
X177800Y558800D01*
X431800Y558800D02*
X431800Y520700D01*
X431800Y558800D02*
X406400Y584200D01*
X177800Y584200D01*
X279400Y558800D02*
X279400Y520700D01*
X330200Y558800D02*
X355600Y533400D01*
X355600Y495300D01*
X330200Y558800D02*
X279400Y558800D01*
X457200Y520700D02*
X457200Y495300D01*
X381000Y495300D01*
X431800Y660400D02*
X431800Y723900D01*
X177800Y635000D02*
X152400Y635000D01*
X177800Y723900D02*
X431800Y723900D01*
X177800Y723900D02*
X152400Y698500D01*
X152400Y635000D01*
X177800Y381000D02*
X254000Y381000D01*
X279400Y381000D02*
X279400Y419100D01*
X355600Y381000D02*
X355600Y355600D01*
X317500Y419100D02*
X279400Y419100D01*
X317500Y419100D02*
X355600Y381000D01*
X483000Y660000D02*
X576000Y660000D01*
X483000Y660000D02*
X482600Y660400D01*
X482600Y520700D01*
X304800Y520700D02*
X304800Y469900D01*
X152400Y469900D02*
X152400Y609600D01*
X177800Y609600D01*
X482600Y520700D02*
X482600Y469900D01*
X482600Y381000D01*
X482600Y469900D02*
X304800Y469900D01*
X304800Y381000D02*
X304800Y330200D01*
X177800Y330200D01*
X482600Y381000D02*
X482600Y241300D01*
X304800Y241300D02*
X304800Y203200D01*
X127000Y330200D02*
X127000Y469900D01*
X152400Y330200D02*
X177800Y330200D01*
X152400Y330200D02*
X127000Y330200D01*
X152400Y469900D02*
X304800Y469900D01*
X304800Y635000D02*
X304800Y660400D01*
X279400Y609600D02*
X177800Y609600D01*
X279400Y609600D02*
X304800Y635000D01*
X152400Y469900D02*
X127000Y469900D01*
X203200Y203200D02*
X304800Y203200D01*
X203200Y203200D02*
X152400Y254000D01*
X152400Y330200D01*
X457200Y355600D02*
X457200Y381000D01*
X457200Y355600D02*
X381000Y355600D01*
X254000Y241300D02*
X215900Y241300D01*
X177800Y279400D01*
X431800Y279400D02*
X431800Y241300D01*
X431800Y279400D02*
X406400Y304800D01*
X177800Y304800D01*
X279400Y279400D02*
X279400Y241300D01*
X342900Y279400D02*
X355600Y266700D01*
X355600Y215900D01*
X342900Y279400D02*
X279400Y279400D01*
X457200Y241300D02*
X457200Y215900D01*
X381000Y215900D01*
X431800Y381000D02*
X431800Y444500D01*
X177800Y355600D02*
X152400Y355600D01*
X152400Y444500D02*
X431800Y444500D01*
X152400Y444500D02*
X152400Y355600D01*
D13*
X609600Y723900D03*
X609600Y190500D03*
X101600Y190500D03*
X101600Y723900D03*
M02*
