G04 EAGLE Gerber RS-274X export*
G75*
%MOMM*%
%FSLAX34Y34*%
%LPD*%
%INSoldermask Bottom*%
%IPNEG*%
%AMOC8*
5,1,8,0,0,1.08239X$1,22.5*%
G01*
%ADD10C,2.583200*%
%ADD11C,1.727200*%
%ADD12C,4.419200*%


D10*
X587900Y660000D02*
X564100Y660000D01*
X564100Y610000D02*
X587900Y610000D01*
D11*
X355600Y627380D02*
X355600Y642620D01*
X381000Y642620D02*
X381000Y627380D01*
X355600Y502920D02*
X355600Y487680D01*
X381000Y487680D02*
X381000Y502920D01*
X355600Y363220D02*
X355600Y347980D01*
X381000Y347980D02*
X381000Y363220D01*
X198120Y660400D02*
X182880Y660400D01*
X182880Y635000D02*
X198120Y635000D01*
X198120Y609600D02*
X182880Y609600D01*
X182880Y584200D02*
X198120Y584200D01*
X198120Y558800D02*
X182880Y558800D01*
X185420Y381000D02*
X170180Y381000D01*
X170180Y355600D02*
X185420Y355600D01*
X185420Y330200D02*
X170180Y330200D01*
X170180Y304800D02*
X185420Y304800D01*
X185420Y279400D02*
X170180Y279400D01*
X254000Y652780D02*
X254000Y668020D01*
X279400Y668020D02*
X279400Y652780D01*
X304800Y652780D02*
X304800Y668020D01*
X431800Y668020D02*
X431800Y652780D01*
X457200Y652780D02*
X457200Y668020D01*
X482600Y668020D02*
X482600Y652780D01*
X254000Y528320D02*
X254000Y513080D01*
X279400Y513080D02*
X279400Y528320D01*
X304800Y528320D02*
X304800Y513080D01*
X431800Y513080D02*
X431800Y528320D01*
X457200Y528320D02*
X457200Y513080D01*
X482600Y513080D02*
X482600Y528320D01*
X241300Y388620D02*
X241300Y373380D01*
X266700Y373380D02*
X266700Y388620D01*
X292100Y388620D02*
X292100Y373380D01*
X431800Y373380D02*
X431800Y388620D01*
X457200Y388620D02*
X457200Y373380D01*
X482600Y373380D02*
X482600Y388620D01*
X254000Y248920D02*
X254000Y233680D01*
X279400Y233680D02*
X279400Y248920D01*
X304800Y248920D02*
X304800Y233680D01*
X431800Y233680D02*
X431800Y248920D01*
X457200Y248920D02*
X457200Y233680D01*
X482600Y233680D02*
X482600Y248920D01*
X355600Y223520D02*
X355600Y208280D01*
X381000Y208280D02*
X381000Y223520D01*
D12*
X609600Y723900D03*
X609600Y190500D03*
X101600Y190500D03*
X101600Y723900D03*
M02*
